<?xml version="1.0" standalone="no"?>
<!DOCTYPE svg PUBLIC "-//W3C//DTD SVG 20010904//EN"
 "http://www.w3.org/TR/2001/REC-SVG-20010904/DTD/svg10.dtd">
<svg version="1.0" xmlns="http://www.w3.org/2000/svg"
 width="512.000000pt" height="512.000000pt" viewBox="0 0 512.000000 512.000000"
 preserveAspectRatio="xMidYMid meet">

<g transform="translate(0.000000,512.000000) scale(0.100000,-0.100000)"
fill="#000000" stroke="none">
<path d="M1604 3887 c-181 -28 -279 -48 -297 -60 -39 -25 -54 -84 -33 -129 18
-38 7 -30 568 -354 152 -87 275 -160 274 -162 -5 -5 -1009 -272 -1023 -272 -8
0 -119 98 -248 218 -129 119 -254 227 -276 240 -23 12 -58 22 -78 22 -36 0
-340 -77 -416 -105 -46 -17 -75 -57 -75 -103 0 -36 -1 -35 324 -442 l268 -334
-101 -272 c-112 -301 -118 -334 -74 -376 43 -41 70 -43 180 -13 175 48 222 85
319 255 30 52 58 100 62 107 6 9 30 5 97 -16 162 -52 266 -65 505 -64 230 0
404 18 656 68 70 13 130 23 132 20 2 -2 -51 -100 -119 -217 -308 -533 -329
-572 -329 -600 0 -61 44 -107 101 -108 30 0 365 124 563 209 139 60 326 217
413 346 22 33 117 189 211 347 95 159 180 289 190 292 9 3 271 73 582 156 311
83 601 162 645 174 239 69 391 172 466 316 35 67 34 169 -3 232 -58 97 -183
177 -342 218 -47 12 -110 38 -155 65 -111 64 -201 103 -294 125 -92 22 -227
26 -309 9 -29 -6 -421 -110 -870 -230 -449 -121 -822 -219 -827 -219 -16 0
-886 504 -875 506 5 2 122 19 259 40 218 32 266 36 375 31 190 -8 256 -32 552
-195 179 -99 188 -103 215 -90 15 7 29 21 31 31 10 50 -5 62 -190 165 -324
180 -390 201 -628 207 -144 4 -175 1 -426 -38z m2665 -333 c36 -9 86 -26 111
-37 l45 -19 -137 -38 c-141 -38 -178 -57 -178 -93 0 -28 29 -57 57 -57 13 0
109 23 214 51 l190 50 52 -19 c29 -11 75 -25 102 -31 72 -17 174 -67 213 -104
70 -67 78 -114 32 -194 -48 -84 -163 -164 -306 -212 -49 -16 -1177 -321 -1189
-321 -6 0 114 198 123 204 4 2 270 74 592 160 322 86 595 161 608 166 12 5 27
21 34 34 15 35 -12 76 -51 76 -21 0 -972 -249 -1093 -286 -11 -3 -19 2 -23 16
-3 11 -15 25 -27 31 -50 27 -52 25 -394 -547 -180 -300 -346 -572 -371 -604
-58 -78 -150 -160 -241 -217 -63 -39 -561 -247 -570 -238 -2 2 166 296 372
654 207 358 376 660 376 671 0 25 -34 60 -58 60 -24 0 -45 -18 -71 -62 -18
-31 -32 -41 -74 -52 -29 -9 -297 -81 -597 -161 -300 -80 -620 -166 -712 -191
-154 -41 -171 -44 -208 -33 -48 15 -49 9 25 135 77 130 73 195 -12 230 -31 14
-43 12 -151 -17 -64 -17 -123 -36 -130 -42 -7 -6 -12 -25 -10 -46 5 -57 31
-63 138 -36 l90 23 -12 -22 c-50 -95 -275 -476 -292 -494 -11 -13 -37 -32 -56
-42 -39 -20 -152 -52 -158 -45 -3 3 41 127 97 278 55 150 101 280 101 289 0 9
-132 182 -294 384 -184 230 -290 371 -283 375 37 19 339 91 359 85 13 -3 140
-114 282 -246 167 -154 267 -240 281 -240 11 0 315 79 675 175 1652 443 2236
599 2275 608 49 11 193 6 254 -9z m-1701 -1102 c-1 -4 -27 -48 -55 -98 l-53
-91 -75 -16 c-137 -30 -343 -66 -467 -82 -153 -19 -473 -32 -481 -19 -4 7
1082 309 1126 313 5 1 7 -3 5 -7z"/>
<path d="M3622 3274 c-43 -30 -20 -104 33 -104 53 0 76 74 33 104 -12 9 -27
16 -33 16 -6 0 -21 -7 -33 -16z"/>
<path d="M3260 3175 c-17 -21 -16 -64 3 -82 18 -19 61 -20 82 -3 18 15 20 71
3 88 -17 17 -73 15 -88 -3z"/>
<path d="M2915 3086 c-11 -8 -18 -26 -18 -46 0 -54 61 -81 96 -42 50 55 -19
132 -78 88z"/>
<path d="M2565 2986 c-29 -29 -31 -43 -9 -74 10 -14 26 -22 44 -22 72 0 82 94
13 115 -17 4 -29 -1 -48 -19z"/>
<path d="M2206 2888 c-9 -12 -16 -30 -16 -40 0 -24 35 -58 60 -58 27 0 60 35
60 63 0 53 -75 77 -104 35z"/>
<path d="M1860 2800 c-25 -25 -26 -62 -2 -83 39 -35 102 -9 102 41 0 28 -34
62 -60 62 -11 0 -29 -9 -40 -20z"/>
</g>
</svg>
