<?xml version="1.0" standalone="no"?>
<!DOCTYPE svg PUBLIC "-//W3C//DTD SVG 20010904//EN"
 "http://www.w3.org/TR/2001/REC-SVG-20010904/DTD/svg10.dtd">
<svg version="1.0" xmlns="http://www.w3.org/2000/svg"
 width="512.000000pt" height="512.000000pt" viewBox="0 0 512.000000 512.000000"
 preserveAspectRatio="xMidYMid meet">

<g transform="translate(0.000000,512.000000) scale(0.100000,-0.100000)"
fill="#000000" stroke="none">
<path d="M435 5095 c-215 -116 -377 -345 -421 -596 -39 -224 18 -468 153 -650
49 -66 153 -165 216 -204 l47 -30 0 -1055 0 -1055 -48 -30 c-69 -43 -187 -160
-238 -236 -50 -75 -94 -174 -120 -269 -25 -91 -25 -308 0 -405 24 -92 85 -221
140 -300 89 -124 256 -253 340 -262 53 -5 122 29 153 76 22 33 23 41 23 285 0
282 5 303 73 363 60 53 145 54 209 3 53 -41 58 -68 58 -325 0 -141 5 -254 11
-280 21 -82 109 -137 191 -121 47 9 154 82 229 156 146 144 232 330 254 550
10 102 -17 268 -62 386 -4 12 150 14 1010 14 l1016 0 3 -163 c3 -152 5 -166
29 -212 28 -56 91 -109 147 -125 22 -6 174 -10 378 -10 381 0 403 3 468 66 72
70 80 98 84 291 3 163 5 173 24 179 32 10 98 74 121 118 18 34 22 62 25 168
l4 127 44 26 c46 27 93 87 112 144 9 24 12 200 12 611 0 491 -2 584 -15 621
-32 90 -97 144 -208 173 -33 8 -61 16 -63 18 -1 2 3 22 11 43 8 22 14 70 15
107 0 88 -43 175 -114 229 -67 51 -103 59 -268 59 l-145 0 -93 243 c-110 288
-125 319 -182 373 -84 81 -126 92 -438 119 -379 32 -605 38 -1215 31 -330 -4
-621 -9 -646 -12 l-46 -6 -7 74 c-16 162 -60 294 -142 420 -86 134 -265 283
-352 295 -81 11 -159 -43 -181 -124 -6 -22 -11 -141 -11 -276 0 -269 -4 -290
-69 -332 -48 -31 -91 -39 -139 -26 -49 14 -106 74 -121 128 -6 22 -11 140 -11
279 0 233 -1 242 -22 274 -55 80 -138 101 -223 55z m98 -683 c36 -94 101 -162
195 -205 35 -16 67 -21 127 -22 71 0 88 4 147 33 73 36 124 87 160 161 22 44
23 60 26 304 2 141 7 257 11 257 21 0 136 -98 182 -154 103 -127 152 -271 151
-441 -1 -235 -113 -435 -318 -570 -46 -31 -88 -64 -94 -75 -14 -26 -14 -2254
0 -2280 6 -11 48 -44 94 -75 350 -230 425 -680 169 -1007 -42 -53 -164 -158
-184 -158 -5 0 -9 110 -9 245 0 285 -7 318 -88 404 -69 73 -145 106 -247 106
-101 0 -173 -31 -244 -104 -85 -88 -94 -124 -101 -410 l-5 -243 -62 45 c-162
120 -273 340 -273 542 0 229 143 477 338 587 28 17 61 41 72 55 20 25 20 42
20 1153 0 1111 0 1128 -20 1153 -11 14 -45 39 -76 57 -74 41 -189 159 -237
240 -50 86 -87 207 -94 305 -15 218 94 452 272 583 l60 44 6 -243 c4 -193 9
-253 22 -287z m2702 -242 c188 -10 505 -35 598 -47 52 -6 99 -33 129 -73 18
-25 320 -801 314 -808 -2 -2 -66 4 -142 12 -594 64 -1372 89 -2084 67 -357
-11 -657 -26 -732 -36 l-38 -5 0 167 0 168 40 23 c57 32 174 146 225 217 55
78 100 168 121 244 l17 61 46 1 c25 1 116 5 201 9 249 11 1098 11 1305 0z
m1395 -775 c37 -19 60 -62 60 -110 0 -37 -24 -91 -44 -98 -6 -3 -47 2 -92 10
l-80 15 -35 91 c-19 50 -35 95 -37 99 -7 15 197 9 228 -7z m-1249 -255 c587
-29 1021 -79 1366 -156 139 -30 176 -46 192 -80 8 -17 11 -151 11 -439 l0
-415 -479 0 -479 0 -22 73 c-60 199 -225 443 -338 499 l-47 23 -1025 0 c-1151
0 -1055 6 -1146 -77 -26 -24 -67 -69 -91 -102 l-43 -58 0 350 0 350 38 6 c62
9 408 28 685 36 313 10 1092 4 1378 -10z m236 -725 c26 -31 67 -87 91 -126 40
-66 102 -204 102 -228 0 -8 -359 -11 -1250 -11 -891 0 -1250 3 -1250 11 0 24
62 162 102 228 24 39 65 95 91 126 l48 55 1009 0 1009 0 48 -55z m1333 -585
c0 -55 -20 -104 -45 -114 -9 -3 -829 -6 -1821 -6 l-1804 0 0 85 0 85 1835 0
1835 0 0 -50z m-170 -391 c0 -98 -1 -101 -29 -130 l-29 -29 -1591 0 -1591 0
-74 78 c-41 42 -99 93 -130 112 -31 20 -55 42 -56 53 0 16 90 17 1750 17
l1750 0 0 -101z m-170 -470 l0 -141 -29 -29 -29 -29 -329 0 c-242 1 -332 4
-344 13 -33 25 -39 55 -39 191 l0 136 385 0 385 0 0 -141z"/>
<path d="M1870 3954 c-72 -68 -88 -102 -70 -145 15 -35 58 -58 95 -52 12 3 51
34 86 69 54 55 63 69 63 100 0 28 -7 42 -28 60 -45 40 -79 32 -146 -32z"/>
<path d="M2161 3816 c-183 -183 -195 -197 -195 -232 0 -46 39 -84 87 -84 28 0
55 24 224 193 182 182 193 195 193 230 0 49 -36 87 -82 87 -28 0 -54 -22 -227
-194z"/>
<path d="M2349 2975 c-29 -16 -52 -66 -42 -93 3 -9 15 -27 26 -39 20 -22 26
-23 227 -23 201 0 207 1 227 23 29 31 34 52 21 87 -18 53 -46 60 -250 60 -140
-1 -189 -4 -209 -15z"/>
<path d="M4186 2707 c-69 -39 -81 -64 -84 -185 -3 -101 -2 -110 25 -162 31
-61 92 -113 151 -130 51 -14 276 -13 324 2 50 15 122 78 151 132 30 57 30 165
0 221 -28 53 -78 99 -133 124 -40 18 -65 21 -220 21 -163 0 -178 -2 -214 -23z
m395 -176 c17 -18 29 -40 29 -56 0 -16 -12 -38 -29 -56 -29 -29 -31 -29 -146
-29 -110 0 -117 1 -140 25 -21 20 -25 34 -25 85 l0 60 141 0 141 0 29 -29z"/>
</g>
</svg>
