<?xml version="1.0" standalone="no"?>
<!DOCTYPE svg PUBLIC "-//W3C//DTD SVG 20010904//EN"
 "http://www.w3.org/TR/2001/REC-SVG-20010904/DTD/svg10.dtd">
<svg version="1.0" xmlns="http://www.w3.org/2000/svg"
 width="512.000000pt" height="512.000000pt" viewBox="0 0 512.000000 512.000000"
 preserveAspectRatio="xMidYMid meet">

<g transform="translate(0.000000,512.000000) scale(0.100000,-0.100000)"
fill="#000000" stroke="none">
<path d="M819 5106 c-20 -7 -49 -22 -65 -34 -56 -40 -712 -707 -730 -742 -24
-47 -25 -153 -2 -200 10 -19 389 -406 846 -863 897 -896 853 -857 907 -802 55
54 94 11 -800 905 -708 708 -825 829 -825 854 0 22 18 47 82 113 l82 84 376
-376 c330 -329 379 -375 406 -375 39 0 74 36 74 76 0 25 -52 81 -375 404
l-375 375 223 223 c189 188 227 222 252 222 26 0 148 -118 953 -923 l923 -923
-123 -111 -123 -111 -381 379 c-329 328 -384 379 -410 379 -62 0 -98 -55 -70
-108 8 -15 177 -189 375 -387 199 -198 361 -363 361 -367 0 -4 -349 -321 -775
-704 -762 -685 -775 -697 -775 -734 0 -46 24 -70 71 -70 37 0 -88 -110 1533
1348 l649 583 129 -128 c70 -70 128 -131 128 -135 0 -11 -2485 -2773 -2512
-2792 -33 -23 -55 -20 -133 17 -204 98 -428 365 -413 492 2 25 43 66 232 237
127 113 233 216 238 227 17 46 -38 109 -85 97 -37 -9 -478 -411 -510 -464 -55
-91 -27 -219 84 -384 92 -137 283 -298 423 -357 81 -35 173 -36 231 -3 27 15
289 299 780 847 l740 823 840 -837 c787 -785 843 -839 888 -851 60 -16 128 -7
181 24 53 32 729 711 751 755 9 18 19 57 22 85 11 102 6 108 -455 568 -276
276 -426 419 -444 423 -22 6 -33 1 -58 -23 -16 -17 -30 -41 -30 -53 0 -17 112
-135 420 -444 362 -362 420 -425 420 -450 0 -25 -39 -69 -265 -295 l-264 -265
-180 178 c-174 174 -180 178 -216 175 -49 -4 -81 -43 -71 -85 5 -18 70 -91
182 -204 l175 -176 -41 -36 c-25 -24 -50 -37 -67 -37 -23 0 -162 135 -855 827
-456 456 -827 831 -826 835 2 4 93 107 202 229 l199 221 461 -460 c254 -253
471 -465 483 -471 48 -25 103 14 103 73 0 26 -60 91 -471 502 l-472 472 109
121 c60 67 111 121 114 121 3 0 158 -153 345 -340 307 -307 343 -340 372 -340
43 0 73 30 73 72 0 29 -35 67 -346 379 l-345 346 52 57 c49 54 53 56 73 41
112 -81 144 -78 461 40 282 105 308 110 392 71 39 -19 63 -40 99 -88 90 -122
144 -250 200 -470 19 -79 47 -165 62 -191 46 -85 126 -134 235 -143 76 -7 121
14 155 72 23 38 23 44 18 220 -9 279 -37 459 -100 641 -105 305 -217 465 -579
831 -237 238 -253 252 -287 252 -46 0 -70 -25 -70 -70 0 -30 23 -57 243 -279
325 -329 433 -477 528 -720 71 -182 104 -365 116 -643 7 -176 8 -173 -60 -144
-60 25 -76 54 -117 212 -62 243 -109 356 -202 491 -62 90 -114 137 -187 172
-49 23 -68 26 -151 25 -95 -1 -96 -1 -335 -92 -132 -51 -254 -92 -270 -92 -26
0 -66 36 -298 268 -235 235 -267 271 -267 298 0 25 52 102 271 395 149 200
283 376 297 392 45 48 73 39 171 -58 76 -74 92 -85 123 -85 43 0 71 28 71 72
0 26 -15 46 -100 129 -105 102 -135 119 -219 119 -23 0 -61 -10 -87 -24 -42
-21 -48 -22 -60 -7 -8 9 -109 149 -224 311 -116 162 -221 305 -235 317 -55 51
-161 68 -236 38 -42 -18 -473 -440 -499 -490 -38 -71 -34 -167 10 -233 13 -20
164 -134 380 -288 196 -141 359 -259 361 -263 2 -3 -30 -51 -71 -106 -90 -121
-103 -148 -103 -221 0 -46 6 -69 31 -112 l31 -55 -39 -39 c-21 -22 -46 -44
-57 -50 -16 -9 -138 109 -955 924 -813 812 -941 936 -977 946 -53 15 -100 15
-145 -2z m2404 -484 l239 -333 -131 -174 -131 -174 -347 248 c-192 137 -355
256 -362 265 -8 9 -14 31 -14 47 0 26 30 60 214 245 213 214 214 215 254 212
l40 -3 238 -333z"/>
<path d="M2830 560 c-14 -14 -20 -33 -20 -65 l0 -45 -514 0 c-283 0 -522 -3
-531 -6 -8 -4 -22 -19 -30 -34 -19 -36 -4 -83 31 -99 18 -8 175 -11 534 -11
l510 0 0 -45 c0 -76 65 -112 121 -66 23 19 24 23 24 184 0 148 -2 167 -19 186
-25 27 -79 28 -106 1z"/>
</g>
</svg>
