<?xml version="1.0" standalone="no"?>
<!DOCTYPE svg PUBLIC "-//W3C//DTD SVG 20010904//EN"
 "http://www.w3.org/TR/2001/REC-SVG-20010904/DTD/svg10.dtd">
<svg version="1.0" xmlns="http://www.w3.org/2000/svg"
 width="512.000000pt" height="512.000000pt" viewBox="0 0 512.000000 512.000000"
 preserveAspectRatio="xMidYMid meet">

<g transform="translate(0.000000,512.000000) scale(0.100000,-0.100000)"
fill="#000000" stroke="none">
<path d="M2609 5097 c-27 -15 -52 -38 -66 -63 -23 -39 -23 -42 -23 -477 0
-305 3 -445 11 -460 29 -57 82 -93 151 -105 l40 -7 138 -345 138 -345 -40 -22
c-83 -48 -98 -92 -98 -290 1 -143 11 -195 47 -235 30 -34 93 -58 156 -58 l57
0 0 -132 c0 -148 9 -193 47 -238 38 -45 74 -60 148 -60 l65 0 1 -262 c1 -145
4 -274 8 -288 4 -17 59 -65 173 -150 l166 -125 4 -173 3 -174 28 -24 c33 -28
56 -30 97 -9 41 21 50 64 50 235 l0 145 165 124 c91 68 166 124 167 125 1 0 5
129 8 286 l5 285 76 5 c62 5 83 11 111 32 60 45 68 76 68 247 l0 151 62 0 c83
0 140 28 174 85 25 43 25 46 22 229 -3 169 -5 187 -24 213 -19 26 -71 67 -95
75 -5 2 53 158 129 348 l138 345 41 7 c78 13 120 45 148 111 21 51 23 860 1
910 -16 39 -61 82 -99 96 -19 8 -394 11 -1191 11 l-1163 0 -44 -23z m2339
-539 l2 -388 -1130 0 -1130 0 0 390 0 390 1128 -2 1127 -3 3 -387z m-357 -913
l-136 -345 -636 0 -637 0 -136 340 c-75 187 -136 342 -136 345 0 3 409 5 909
5 l908 0 -136 -345z m9 -655 l0 -130 -404 0 c-222 0 -412 -3 -421 -6 -19 -8
-45 -55 -45 -84 0 -12 13 -35 29 -51 l29 -29 276 0 276 0 0 -130 0 -130 -520
0 -520 0 0 130 0 130 99 0 c83 0 102 3 124 20 45 36 44 102 -2 137 -12 9 -82
12 -248 13 l-233 0 0 130 0 130 780 0 780 0 0 -130z m-520 -970 l0 -239 -120
-91 c-66 -50 -126 -93 -134 -96 -8 -3 -68 34 -140 88 l-125 93 -1 243 0 242
260 0 260 0 0 -240z"/>
<path d="M2890 4745 c-34 -37 -33 -90 4 -121 25 -22 36 -24 136 -24 60 0 120
5 133 11 50 23 62 95 22 134 -23 24 -30 25 -148 25 -119 0 -124 -1 -147 -25z"/>
<path d="M3416 4748 c-38 -35 -39 -86 -1 -123 l24 -25 641 0 641 0 24 25 c17
16 25 35 25 60 0 25 -8 44 -25 60 l-24 25 -640 0 -640 0 -25 -22z"/>
<path d="M1890 4411 c-83 -25 -152 -95 -175 -176 -7 -27 -33 -159 -57 -292
-37 -210 -45 -243 -63 -251 -17 -8 -55 15 -230 140 -116 82 -226 158 -245 168
-57 29 -120 34 -187 15 -55 -16 -68 -27 -272 -228 -235 -233 -261 -270 -261
-364 0 -29 7 -70 16 -92 8 -22 84 -139 169 -261 153 -221 168 -252 126 -264
-9 -3 -130 -26 -270 -51 -139 -25 -267 -52 -285 -59 -47 -19 -93 -63 -124
-115 l-27 -46 0 -325 c0 -314 1 -326 22 -365 25 -47 75 -96 121 -119 18 -9
144 -37 280 -62 308 -55 289 -51 302 -74 9 -16 -13 -51 -142 -232 -83 -117
-160 -233 -171 -257 -27 -62 -20 -162 16 -223 14 -24 117 -133 229 -244 173
-172 210 -203 252 -217 59 -20 127 -21 177 -3 20 7 139 83 263 170 255 176
257 177 275 84 6 -29 26 -143 46 -253 45 -251 50 -266 98 -321 77 -88 81 -89
420 -92 336 -3 373 2 443 61 62 54 80 106 132 396 42 237 49 265 68 272 17 6
63 -21 243 -146 123 -85 242 -162 267 -171 55 -21 144 -15 200 14 57 29 374
352 374 381 0 30 -25 77 -45 85 -9 3 -31 6 -48 6 -28 0 -52 -19 -182 -151
-159 -159 -192 -184 -231 -175 -25 7 -374 245 -374 255 0 4 33 27 73 53 190
124 437 389 437 468 0 34 -32 76 -64 84 -42 10 -71 -10 -138 -96 -214 -274
-511 -459 -858 -534 -120 -26 -429 -27 -550 -1 -417 89 -758 333 -969 693
-129 220 -202 523 -188 779 37 667 507 1210 1164 1342 140 28 404 25 556 -6
l117 -25 28 21 c51 38 55 107 8 139 -14 8 -69 25 -123 37 -84 18 -130 21 -318
21 -186 0 -234 -3 -312 -20 -51 -12 -93 -18 -93 -15 0 3 16 100 37 215 30 167
42 215 59 235 22 26 24 26 209 31 181 5 187 6 206 29 27 33 25 86 -6 116 -24
25 -25 25 -212 24 -103 0 -199 -4 -213 -8z m-672 -687 l182 -125 -88 -59
c-171 -115 -325 -269 -439 -441 -25 -38 -49 -66 -54 -64 -14 9 -232 329 -242
356 -6 14 -7 36 -4 50 3 13 93 111 200 217 177 176 196 192 228 192 28 0 69
-24 217 -126z m-562 -1119 c-46 -120 -57 -530 -19 -700 11 -49 19 -91 18 -93
-1 -1 -100 15 -220 36 -176 32 -221 43 -238 61 -21 21 -22 31 -25 279 -4 274
2 323 41 344 16 9 378 80 441 87 4 1 6 -6 2 -14z m231 -1292 c109 -164 257
-313 430 -430 46 -31 80 -60 76 -63 -24 -22 -333 -231 -355 -241 -15 -6 -37
-9 -50 -6 -13 4 -111 94 -217 201 -174 174 -195 199 -195 228 0 26 27 71 123
211 67 97 126 177 129 177 4 0 30 -35 59 -77z m1328 -696 c183 0 235 3 310 20
50 11 91 20 92 19 5 -4 -77 -427 -86 -444 -20 -38 -70 -44 -343 -40 -250 3
-258 4 -280 25 -18 18 -29 60 -60 225 -20 112 -37 210 -38 219 0 15 9 14 93
-4 78 -18 125 -21 312 -20z"/>
<path d="M1850 3360 c-61 -61 -10 -162 75 -146 65 13 90 93 45 141 -30 32 -91
34 -120 5z"/>
<path d="M1575 3182 c-175 -96 -314 -240 -402 -417 -77 -153 -124 -345 -126
-521 -2 -96 1 -115 17 -132 26 -29 68 -36 105 -18 36 19 51 63 51 156 0 126
44 309 102 425 66 132 188 269 294 329 98 57 114 73 114 117 0 29 -7 47 -25
64 -32 32 -68 32 -130 -3z"/>
<path d="M2145 2774 c-272 -41 -473 -254 -492 -521 -17 -236 114 -455 329
-552 122 -55 240 -65 372 -31 107 27 169 63 252 145 114 112 168 240 168 400
0 300 -227 539 -529 559 -38 2 -83 2 -100 0z m237 -212 c79 -38 149 -110 186
-190 24 -51 27 -69 27 -162 0 -96 -3 -110 -29 -164 -77 -155 -252 -247 -413
-217 -171 31 -293 153 -324 323 -28 153 58 330 194 400 83 42 110 48 203 45
79 -2 100 -7 156 -35z"/>
</g>
</svg>
