<?xml version="1.0" standalone="no"?>
<!DOCTYPE svg PUBLIC "-//W3C//DTD SVG 20010904//EN"
 "http://www.w3.org/TR/2001/REC-SVG-20010904/DTD/svg10.dtd">
<svg version="1.0" xmlns="http://www.w3.org/2000/svg"
 width="512.000000pt" height="512.000000pt" viewBox="0 0 512.000000 512.000000"
 preserveAspectRatio="xMidYMid meet">

<g transform="translate(0.000000,512.000000) scale(0.100000,-0.100000)"
fill="#000000" stroke="none">
<path d="M1062 5094 c-29 -14 -64 -41 -78 -60 -53 -69 -53 -70 -54 -630 l0
-521 -72 -5 c-106 -7 -169 -43 -211 -123 -20 -36 -22 -56 -22 -185 0 -122 3
-150 19 -180 26 -49 55 -79 99 -101 l37 -19 0 -458 c0 -632 -23 -571 356 -952
l264 -266 0 -230 c0 -228 0 -231 23 -252 18 -17 36 -22 75 -22 l52 0 0 -293
c0 -165 5 -319 11 -353 36 -202 207 -381 410 -429 95 -22 1393 -22 1488 0 200
47 363 216 406 420 13 60 15 278 15 1498 0 912 4 1435 10 1447 17 32 67 40
243 40 197 0 234 8 293 65 51 48 80 132 70 200 -10 62 -56 128 -113 162 -48
28 -48 28 -257 31 -165 3 -224 0 -282 -13 -198 -44 -341 -178 -410 -385 -18
-52 -19 -126 -22 -1516 l-3 -1461 -20 -19 c-19 -17 -45 -19 -291 -24 -252 -5
-271 -6 -284 -24 -20 -28 -17 -69 5 -97 l19 -24 279 0 c266 0 280 1 318 22 51
27 90 68 109 115 14 33 16 196 16 1450 0 895 4 1439 10 1483 21 141 92 240
218 302 l76 38 213 3 213 4 31 -32 c26 -26 30 -36 25 -63 -12 -62 -28 -67
-225 -67 -215 0 -262 -11 -325 -73 -24 -24 -47 -59 -54 -83 -9 -32 -12 -368
-12 -1466 0 -869 -4 -1445 -10 -1476 -15 -80 -49 -142 -115 -208 -42 -43 -77
-68 -120 -85 l-60 -24 -710 0 -710 0 -60 24 c-83 33 -183 133 -216 216 -23 58
-24 70 -27 378 l-3 317 80 0 79 0 4 -302 c3 -288 4 -305 25 -343 25 -47 64
-85 113 -111 32 -17 61 -19 308 -19 l274 0 19 24 c26 31 24 73 -4 99 -21 20
-33 21 -279 24 -253 3 -258 3 -280 26 -23 22 -23 24 -23 310 l0 287 59 5 c96
9 96 9 96 278 l0 226 253 255 c354 359 358 365 365 676 4 193 3 201 -18 228
-28 35 -77 37 -107 4 -20 -20 -22 -36 -25 -217 -4 -273 11 -245 -321 -577
l-261 -263 -276 0 -276 0 -255 257 c-211 212 -261 269 -285 318 l-29 60 -3
463 -3 462 360 0 360 0 -200 -334 c-207 -345 -222 -377 -185 -414 14 -15 47
-18 229 -22 l212 -5 3 -212 2 -212 27 -20 c32 -26 64 -27 91 -3 11 9 126 195
257 413 263 442 265 446 195 481 -30 15 -64 18 -227 18 l-193 0 0 155 0 155
390 0 390 0 0 -125 c0 -120 1 -127 25 -150 31 -32 69 -32 100 0 24 23 25 29
25 158 0 132 1 135 23 141 30 7 84 61 108 108 16 31 19 59 19 178 0 123 -3
146 -21 182 -43 84 -124 128 -236 128 l-53 0 0 533 c0 600 2 577 -78 649 -90
81 -223 75 -312 -14 -67 -66 -65 -48 -68 -635 l-3 -531 -129 -4 c-142 -3 -155
-8 -166 -65 -5 -26 -1 -37 19 -57 l26 -26 409 0 c504 0 462 15 462 -160 0
-116 0 -119 -27 -139 l-26 -21 -964 2 -965 3 -19 24 c-16 20 -19 40 -19 131 0
91 3 111 19 131 l19 24 427 5 c408 5 427 6 441 24 23 33 18 82 -12 105 -24 19
-40 21 -150 21 l-124 0 0 532 c0 519 -1 533 -21 575 -57 117 -192 164 -307
107z m153 -149 c24 -23 25 -29 25 -160 l0 -135 -80 0 -80 0 0 126 c0 125 7
156 39 181 26 20 70 15 96 -12z m1239 4 c26 -20 26 -21 26 -160 l0 -140 -77 3
-78 3 0 133 0 134 28 24 c34 29 66 31 101 3z m-1214 -529 l0 -80 -80 0 -80 0
0 80 0 80 80 0 80 0 0 -80z m1240 0 l0 -81 -77 3 -78 3 -3 78 -3 77 81 0 80 0
0 -80z m-1240 -385 l0 -155 -80 0 -80 0 0 155 0 155 80 0 80 0 0 -155z m1240
0 l0 -155 -80 0 -80 0 0 155 0 155 80 0 80 0 0 -155z m-746 -1221 c15 -11 60
-14 198 -14 98 0 178 -3 178 -7 0 -4 -55 -100 -122 -212 l-123 -205 -5 107
c-7 155 -2 151 -225 155 -96 2 -175 6 -175 9 0 2 55 97 123 209 l122 204 5
-116 c4 -100 8 -118 24 -130z m286 -1419 l0 -155 -235 0 -235 0 0 155 0 155
235 0 235 0 0 -155z"/>
</g>
</svg>
