<?xml version="1.0" standalone="no"?>
<!DOCTYPE svg PUBLIC "-//W3C//DTD SVG 20010904//EN"
 "http://www.w3.org/TR/2001/REC-SVG-20010904/DTD/svg10.dtd">
<svg version="1.0" xmlns="http://www.w3.org/2000/svg"
 width="512.000000pt" height="512.000000pt" viewBox="0 0 512.000000 512.000000"
 preserveAspectRatio="xMidYMid meet">
<metadata>
Created by potrace 1.16, written by Peter Selinger 2001-2019
</metadata>
<g transform="translate(0.000000,512.000000) scale(0.100000,-0.100000)"
fill="#000000" stroke="none">
<path d="M1985 5114 c-355 -50 -626 -140 -882 -290 -572 -336 -949 -876 -1074
-1534 -27 -143 -38 -486 -20 -637 46 -390 187 -752 419 -1073 100 -138 335
-373 472 -472 319 -229 652 -363 1030 -414 136 -18 445 -18 580 1 385 52 748
199 1046 423 l40 31 121 -122 c106 -107 122 -128 132 -171 7 -27 21 -67 32
-90 13 -26 145 -165 357 -377 394 -392 382 -384 542 -384 91 0 111 3 150 24
61 32 126 96 158 156 24 45 27 60 27 155 0 160 4 154 -388 546 -344 343 -376
369 -466 381 -33 5 -55 22 -164 132 l-126 126 45 60 c219 290 365 661 414
1051 15 115 14 403 0 524 -59 492 -272 937 -614 1289 -339 347 -732 553 -1231
647 -64 12 -158 17 -330 19 -132 2 -253 1 -270 -1z m540 -201 c423 -61 830
-267 1140 -578 301 -300 489 -663 572 -1100 24 -127 29 -464 9 -608 -128 -914
-837 -1625 -1747 -1752 -147 -20 -401 -20 -548 0 -581 81 -1096 404 -1425 895
-77 114 -197 360 -241 492 -101 308 -127 666 -71 983 135 767 698 1395 1443
1609 289 83 571 102 868 59z m1405 -3608 l74 -75 -24 -17 c-30 -21 -52 -43
-73 -73 l-17 -25 -77 77 -77 77 54 56 c30 30 57 55 60 55 3 0 39 -34 80 -75z
m328 -224 c20 -11 179 -163 354 -338 273 -275 318 -324 327 -360 35 -132 -93
-243 -224 -193 -39 14 -650 623 -676 672 -73 142 77 292 219 219z"/>
<path d="M2068 4769 c-709 -57 -1327 -514 -1591 -1179 -91 -229 -129 -433
-129 -695 0 -244 38 -462 116 -665 235 -608 741 -1038 1384 -1176 146 -32 443
-44 599 -25 554 69 1036 366 1347 831 125 187 228 439 277 680 21 102 24 141
24 355 0 210 -3 254 -23 354 -118 584 -484 1066 -1012 1331 -295 148 -653 216
-992 189z m451 -200 c602 -102 1119 -547 1315 -1130 68 -205 80 -287 80 -539
0 -196 -3 -238 -22 -330 -25 -112 -82 -293 -113 -350 -18 -34 -18 -27 -19 480
l0 515 -24 50 c-28 60 -66 97 -126 124 -43 20 -64 21 -456 21 l-412 0 -4 123
c-4 136 -17 175 -80 233 -77 73 -21 69 -828 72 -504 2 -741 0 -776 -8 -65 -14
-127 -59 -162 -118 l-27 -47 -5 -885 -5 -885 -53 80 c-68 102 -151 273 -191
395 -268 814 117 1703 894 2066 315 146 663 192 1014 133z m12 -938 l29 -29 0
-1185 0 -1185 -50 -11 c-28 -6 -64 -11 -80 -11 l-30 0 0 393 c0 438 -2 448
-71 498 -31 22 -45 24 -175 27 -163 4 -195 -5 -240 -64 l-29 -37 -3 -398 -3
-397 -42 9 c-236 52 -551 215 -729 379 l-68 62 0 960 c0 660 3 966 11 979 6
11 20 24 32 29 12 5 336 9 720 9 l699 1 29 -29z m1024 -426 l25 -24 0 -652 0
-652 -55 -67 c-123 -150 -296 -294 -473 -394 -86 -48 -225 -111 -289 -131
l-23 -6 0 975 0 976 395 0 396 0 24 -25z m-1335 -1630 l0 -375 -80 0 -80 0 0
375 0 375 80 0 80 0 0 -375z"/>
<path d="M1319 3490 c-44 -13 -79 -42 -100 -81 -16 -32 -19 -59 -19 -177 0
-128 2 -142 23 -173 12 -18 38 -44 56 -56 31 -21 45 -23 174 -23 158 0 192 11
237 77 22 33 25 49 28 153 3 69 -1 133 -8 160 -15 54 -63 104 -115 119 -45 12
-236 13 -276 1z m221 -250 l0 -80 -80 0 -80 0 0 80 0 80 80 0 80 0 0 -80z"/>
<path d="M1994 3489 c-41 -12 -101 -79 -109 -122 -4 -19 -5 -90 -3 -159 3
-120 4 -126 32 -162 43 -57 75 -66 227 -66 153 0 186 11 227 73 26 39 27 45
27 187 0 146 0 147 -29 184 -46 61 -91 76 -226 75 -63 0 -129 -5 -146 -10z
m226 -249 l0 -80 -80 0 -80 0 0 80 0 80 80 0 80 0 0 -80z"/>
<path d="M1331 2811 c-43 -11 -80 -39 -108 -81 -21 -30 -23 -44 -23 -175 0
-131 2 -145 23 -176 50 -74 123 -96 282 -87 100 7 148 28 183 81 26 39 27 46
27 181 0 130 -2 144 -23 178 -41 66 -79 82 -211 85 -64 1 -131 -2 -150 -6z
m209 -256 l0 -85 -80 0 -80 0 0 85 0 85 80 0 80 0 0 -85z"/>
<path d="M2011 2810 c-39 -9 -77 -35 -105 -74 -18 -24 -21 -45 -24 -153 -2
-69 -1 -141 3 -159 7 -40 46 -89 88 -110 37 -20 161 -29 250 -20 81 9 124 35
155 96 19 39 22 60 22 165 0 106 -3 126 -22 165 -27 52 -60 78 -114 90 -47 11
-206 11 -253 0z m209 -255 l0 -85 -80 0 -80 0 0 85 0 85 80 0 80 0 0 -85z"/>
<path d="M1279 2107 c-18 -12 -44 -38 -56 -56 -21 -31 -23 -45 -23 -174 0
-125 2 -143 22 -179 38 -67 75 -82 208 -86 137 -5 191 7 236 52 45 45 57 99
52 236 -4 133 -19 170 -86 208 -36 20 -54 22 -179 22 -129 0 -143 -2 -174 -23z
m261 -237 l0 -80 -80 0 -80 0 0 80 0 80 80 0 80 0 0 -80z"/>
<path d="M3005 3056 c-37 -17 -80 -62 -94 -99 -14 -36 -14 -240 -1 -287 11
-41 61 -94 103 -109 16 -6 84 -11 151 -11 109 0 128 3 167 23 27 15 52 38 66
63 20 35 23 53 23 174 0 122 -3 139 -23 175 -13 22 -40 49 -62 62 -36 20 -53
23 -170 22 -87 0 -140 -4 -160 -13z m235 -246 l0 -80 -80 0 -80 0 0 80 0 80
80 0 80 0 0 -80z"/>
<path d="M3005 2376 c-41 -19 -83 -66 -95 -107 -13 -45 -13 -250 1 -286 14
-38 57 -83 96 -99 22 -9 74 -14 158 -14 143 0 185 13 227 72 21 30 23 45 26
176 3 138 3 144 -22 186 -41 70 -85 86 -237 86 -81 -1 -134 -5 -154 -14z m235
-246 l0 -80 -80 0 -80 0 0 80 0 80 80 0 80 0 0 -80z"/>
</g>
</svg>
