<?xml version="1.0" standalone="no"?>
<!DOCTYPE svg PUBLIC "-//W3C//DTD SVG 20010904//EN"
 "http://www.w3.org/TR/2001/REC-SVG-20010904/DTD/svg10.dtd">
<svg version="1.0" xmlns="http://www.w3.org/2000/svg"
 width="512.000000pt" height="512.000000pt" viewBox="0 0 512.000000 512.000000"
 preserveAspectRatio="xMidYMid meet">

<g transform="translate(0.000000,512.000000) scale(0.100000,-0.100000)"
fill="#000000" stroke="none">
<path d="M255 5111 c-91 -22 -177 -92 -220 -177 l-30 -59 0 -2315 0 -2315 25
-50 c31 -64 101 -134 165 -165 l50 -25 2315 0 2315 0 57 28 c64 31 124 94 160
165 23 47 23 50 26 452 2 222 0 415 -3 428 -11 46 -106 59 -133 19 -4 -7 -9
-195 -12 -418 l-5 -406 -27 -40 c-16 -24 -44 -49 -70 -62 l-44 -21 -2265 0
c-2175 0 -2266 1 -2304 19 -48 22 -69 44 -90 94 -13 32 -15 285 -15 2297 0
2012 2 2265 15 2297 21 50 42 72 90 94 38 18 128 19 2305 19 2177 0 2267 -1
2305 -19 48 -22 69 -44 90 -94 13 -32 15 -231 15 -1755 l0 -1719 21 -27 c28
-36 80 -36 108 1 l21 26 -2 1746 -3 1746 -23 47 c-36 71 -96 134 -160 165
l-57 28 -2295 2 c-1262 0 -2308 -2 -2325 -6z"/>
<path d="M502 4806 c-59 -19 -107 -58 -139 -114 -24 -40 -28 -58 -28 -122 0
-64 4 -82 28 -123 58 -98 168 -144 274 -114 l58 16 57 -55 c62 -59 90 -67 129
-35 16 13 23 29 23 55 0 30 -8 45 -52 89 -49 49 -52 56 -42 81 15 40 12 141
-6 184 -19 46 -68 98 -116 123 -50 25 -133 32 -186 15z m146 -171 c45 -53 18
-146 -48 -160 -57 -12 -120 37 -120 95 0 87 111 130 168 65z"/>
<path d="M4485 4811 c-74 -19 -142 -77 -170 -146 -19 -45 -22 -136 -5 -179 10
-28 8 -32 -42 -83 -44 -44 -52 -59 -52 -89 0 -26 7 -42 23 -55 39 -32 67 -24
129 35 l57 55 58 -16 c223 -63 397 202 254 389 -55 71 -167 111 -252 89z m105
-158 c69 -40 65 -134 -7 -168 -66 -32 -133 10 -133 84 0 80 73 124 140 84z"/>
<path d="M2360 4734 c-369 -45 -651 -139 -935 -312 -466 -283 -818 -747 -965
-1267 -59 -211 -74 -336 -74 -595 0 -260 15 -384 75 -597 201 -717 789 -1304
1504 -1502 220 -61 326 -74 590 -75 270 -1 394 15 616 79 710 205 1291 790
1488 1500 61 220 74 326 75 590 0 208 -3 257 -22 368 -134 745 -611 1349
-1299 1644 -268 115 -501 163 -813 168 -113 2 -221 1 -240 -1z m415 -154 c701
-79 1299 -499 1611 -1135 379 -771 221 -1708 -391 -2320 -612 -612 -1545 -769
-2320 -391 -1011 495 -1433 1709 -941 2711 309 629 908 1055 1596 1134 107 12
339 13 445 1z"/>
<path d="M2190 4435 c-57 -18 -122 -72 -145 -122 -41 -85 -40 -89 60 -594 52
-260 92 -475 89 -478 -2 -3 -87 81 -188 185 -195 201 -246 240 -360 270 -66
18 -187 18 -253 0 -84 -22 -147 -63 -375 -239 -192 -148 -219 -173 -242 -219
-59 -118 -20 -261 89 -328 18 -11 227 -85 463 -164 237 -79 439 -149 449 -154
24 -14 33 -11 -241 -77 -126 -31 -254 -68 -284 -83 -162 -79 -272 -253 -274
-431 -1 -97 58 -542 79 -600 36 -98 127 -161 235 -161 104 0 77 -21 697 527
89 79 165 142 168 140 2 -3 -26 -105 -62 -228 -75 -257 -87 -322 -74 -414 21
-149 101 -273 227 -354 60 -38 524 -228 579 -237 89 -14 209 50 248 133 41 85
40 89 -60 594 -52 260 -92 475 -89 478 2 3 87 -81 188 -185 235 -243 305 -284
486 -284 156 0 210 27 498 250 247 189 265 211 270 325 5 85 -19 147 -76 196
-47 42 -58 46 -528 203 -394 132 -444 150 -434 159 3 2 106 27 230 56 146 34
250 65 298 86 169 79 280 246 283 427 2 109 -59 563 -84 621 -24 57 -90 119
-145 135 -60 18 -140 15 -186 -8 -23 -11 -202 -162 -400 -335 -197 -174 -360
-314 -363 -312 -2 3 26 105 62 228 75 256 87 323 75 412 -17 116 -56 198 -135
280 -67 69 -104 89 -364 197 -313 130 -323 132 -411 105z m322 -231 c265 -109
300 -127 351 -183 70 -77 104 -183 88 -278 -6 -41 -119 -441 -127 -452 -2 -2
-36 5 -76 15 -86 22 -288 25 -357 5 -23 -7 -45 -11 -47 -9 -2 2 -44 205 -93
451 -99 492 -99 490 -37 528 17 10 39 19 48 19 10 0 122 -43 250 -96z m1389
-503 c16 -16 29 -35 29 -43 0 -7 15 -128 34 -268 37 -283 36 -323 -9 -416 -30
-61 -99 -128 -159 -155 -51 -22 -455 -121 -471 -115 -6 2 -17 28 -23 57 -20
87 -94 227 -156 295 l-56 62 192 168 c106 93 249 219 318 279 191 168 187 165
232 165 30 0 46 -7 69 -29z m-2257 -161 c66 -25 103 -57 280 -244 l139 -146
-56 -59 c-89 -93 -149 -199 -191 -333 -5 -15 -58 0 -430 126 -233 80 -434 149
-445 155 -29 16 -41 43 -41 89 0 50 -2 47 250 242 115 88 216 158 245 169 69
27 177 27 249 1z m1115 -391 c176 -61 321 -212 387 -404 39 -112 41 -265 5
-374 -68 -206 -235 -356 -461 -412 -162 -41 -324 -12 -466 83 -118 79 -200
188 -250 333 -39 112 -41 265 -5 374 66 202 232 352 451 411 98 26 245 22 339
-11z m-939 -797 c27 -98 92 -220 154 -288 l56 -62 -317 -278 c-396 -349 -377
-334 -423 -334 -40 0 -85 28 -94 58 -3 9 -21 136 -40 282 -37 286 -37 330 5
412 28 54 84 114 136 145 44 25 448 133 487 130 14 -2 23 -17 36 -65z m2359
-271 c11 -6 25 -20 31 -31 14 -26 12 -91 -3 -111 -7 -8 -106 -88 -222 -177
-139 -107 -228 -169 -263 -182 -71 -27 -174 -27 -246 0 -66 25 -103 57 -280
244 l-139 146 56 59 c89 93 149 198 191 333 5 16 57 0 430 -126 233 -79 433
-149 445 -155z m-1805 -268 c75 -21 289 -23 355 -4 23 7 45 11 47 9 2 -2 44
-206 94 -453 89 -447 90 -449 72 -484 -12 -27 -28 -40 -57 -50 -40 -13 -41
-13 -275 84 -129 53 -253 107 -276 120 -49 29 -106 90 -133 142 -24 48 -42
143 -35 186 10 63 129 467 138 467 4 0 36 -8 70 -17z"/>
<path d="M2448 3014 c-72 -17 -120 -41 -185 -92 -59 -48 -133 -153 -133 -191
0 -36 38 -71 76 -71 33 0 51 16 98 87 56 83 180 141 283 130 268 -28 386 -353
198 -542 -142 -141 -372 -117 -490 51 -48 67 -82 85 -121 59 -44 -28 -50 -57
-23 -112 55 -114 198 -214 339 -236 309 -48 584 228 532 536 -46 272 -308 446
-574 381z"/>
<path d="M750 824 c-48 -45 -62 -54 -77 -46 -35 19 -103 24 -153 12 -65 -16
-122 -58 -157 -117 -24 -41 -28 -59 -28 -123 0 -64 4 -82 28 -123 103 -174
365 -159 441 25 18 43 21 144 6 184 -10 25 -7 32 42 81 44 44 52 59 52 89 0
26 -7 42 -23 55 -39 32 -67 24 -131 -37z m-102 -210 c45 -52 18 -145 -48 -159
-57 -12 -120 37 -120 95 0 86 111 128 168 64z"/>
<path d="M4239 861 c-16 -13 -23 -29 -23 -55 0 -30 8 -45 52 -89 50 -51 52
-55 42 -83 -7 -16 -12 -54 -12 -84 0 -252 331 -340 459 -123 24 41 28 59 28
123 0 64 -4 82 -28 123 -35 59 -92 101 -157 117 -50 12 -118 7 -153 -12 -15
-8 -29 1 -77 46 -64 61 -92 69 -131 37z m346 -226 c73 -36 73 -135 -2 -170
-43 -21 -86 -12 -113 22 -38 48 -19 132 34 153 31 13 44 12 81 -5z"/>
</g>
</svg>
