<?xml version="1.0" standalone="no"?>
<!DOCTYPE svg PUBLIC "-//W3C//DTD SVG 20010904//EN"
 "http://www.w3.org/TR/2001/REC-SVG-20010904/DTD/svg10.dtd">
<svg version="1.0" xmlns="http://www.w3.org/2000/svg"
 width="512.000000pt" height="512.000000pt" viewBox="0 0 512.000000 512.000000"
 preserveAspectRatio="xMidYMid meet">

<g transform="translate(0.000000,512.000000) scale(0.100000,-0.100000)"
fill="#000000" stroke="none">
<path d="M887 4419 c-83 -19 -173 -91 -212 -169 -34 -69 -510 -1721 -498
-1728 6 -4 182 -121 392 -261 l381 -254 0 -69 0 -68 -130 0 -131 0 3 -462 3
-463 26 -56 c34 -73 96 -134 168 -167 82 -39 193 -38 273 1 69 34 151 120 170
179 l15 43 1286 3 1287 2 0 385 0 385 380 0 380 0 0 460 0 460 -255 0 -255 0
0 305 0 305 255 0 255 0 0 460 0 460 -1638 0 -1637 0 -19 52 c-12 36 -36 69
-75 109 -48 47 -69 61 -125 78 -73 23 -224 28 -299 10z m272 -163 c34 -18 73
-63 89 -102 11 -29 452 -1548 452 -1558 0 -7 -564 -384 -586 -393 -12 -4 -14
41 -14 306 l0 311 -75 0 -75 0 0 -311 c0 -265 -2 -310 -14 -306 -30 12 -586
388 -586 396 0 25 454 1569 468 1594 20 34 72 68 121 78 53 12 186 2 220 -15z
m811 -546 l0 -310 -172 2 -171 3 -83 285 c-46 157 -85 295 -89 308 l-5 22 260
0 260 0 0 -310z m1280 0 l0 -310 -562 2 -563 3 -3 295 c-1 162 0 300 3 307 3
10 123 13 565 13 l560 0 0 -310z m1280 0 l0 -310 -562 2 -563 3 -3 295 c-1
162 0 300 3 307 3 10 123 13 565 13 l560 0 0 -310z m-1790 -765 l0 -305 -446
2 -447 3 -72 250 c-40 138 -80 274 -88 303 l-16 52 535 0 534 0 0 -305z m1280
0 l0 -305 -565 0 -565 0 0 305 0 305 565 0 565 0 0 -305z m-2050 -770 l0 -305
-435 0 -436 0 3 70 3 70 350 234 350 235 83 0 82 1 0 -305z m1280 0 l0 -305
-565 0 -565 0 0 305 0 305 565 0 565 0 0 -305z m1280 0 l0 -305 -565 0 -565 0
0 305 0 305 565 0 565 0 0 -305z m-3330 -825 c0 -350 -1 -373 -20 -410 -64
-125 -248 -122 -318 5 -15 26 -17 78 -20 389 -2 197 -1 364 2 372 4 11 40 14
181 14 l175 0 0 -370z m1280 60 l0 -310 -560 0 -560 0 0 310 0 310 560 0 560
0 0 -310z m1280 0 l0 -310 -560 0 -560 0 0 310 0 310 560 0 560 0 0 -310z"/>
</g>
</svg>
