<?xml version="1.0" standalone="no"?>
<!DOCTYPE svg PUBLIC "-//W3C//DTD SVG 20010904//EN"
 "http://www.w3.org/TR/2001/REC-SVG-20010904/DTD/svg10.dtd">
<svg version="1.0" xmlns="http://www.w3.org/2000/svg"
 width="512.000000pt" height="512.000000pt" viewBox="0 0 512.000000 512.000000"
 preserveAspectRatio="xMidYMid meet">

<g transform="translate(0.000000,512.000000) scale(0.100000,-0.100000)"
fill="#000000" stroke="none">
<path d="M1977 4755 c-21 -8 -60 -30 -85 -49 -77 -56 -248 -238 -276 -294 -34
-67 -74 -206 -82 -287 l-7 -65 -222 0 c-254 0 -322 -12 -448 -77 -108 -56
-231 -182 -286 -293 -68 -139 -71 -166 -71 -665 l0 -440 -44 -24 c-25 -13 -57
-41 -73 -64 -24 -35 -28 -50 -28 -112 0 -61 4 -77 28 -114 17 -26 45 -50 72
-63 l45 -22 0 -298 0 -297 -32 -17 c-159 -80 -159 -288 -1 -368 l33 -17 0
-407 c0 -304 3 -411 12 -420 17 -17 649 -17 666 0 9 9 12 116 12 419 l0 408
42 23 c22 13 55 40 72 61 29 36 31 45 31 117 0 72 -2 81 -31 117 -17 21 -50
48 -72 61 l-42 23 0 299 0 299 23 6 c113 35 165 191 99 296 -18 28 -46 53 -75
69 l-47 25 0 352 c0 252 3 360 12 378 24 53 40 55 387 55 l321 0 112 -31 c73
-19 124 -28 145 -24 30 5 63 -25 1059 -982 565 -543 1060 -1018 1100 -1054 79
-71 119 -89 205 -89 131 1 238 108 239 239 0 117 28 84 -605 721 -616 621
-670 682 -700 796 -17 65 -19 100 -7 108 5 3 107 -94 228 -216 137 -138 234
-227 259 -239 80 -37 178 -14 231 56 36 48 46 143 19 196 -10 19 -126 143
-258 277 l-241 242 337 0 337 0 19 -37 c40 -80 106 -117 195 -111 69 4 108 26
154 85 l27 36 3 346 c2 190 0 361 -3 379 -8 44 -76 118 -122 133 -19 6 -62 9
-94 7 -69 -5 -120 -39 -157 -106 l-23 -42 -550 0 -550 0 -37 30 c-71 57 -127
75 -235 76 l-98 1 -88 86 c-56 56 -106 95 -137 108 -36 16 -93 65 -214 184
-199 196 -234 217 -360 222 -57 2 -97 -2 -123 -12z m208 -109 c35 -17 91 -65
183 -158 l133 -134 -27 -24 c-15 -14 -35 -43 -45 -65 -39 -83 -18 -149 73
-242 34 -34 60 -64 57 -66 -74 -57 -140 -96 -144 -85 -2 7 -9 33 -15 57 -17
67 -61 104 -145 125 -38 9 -94 24 -123 32 l-52 15 55 62 c58 65 72 102 61 161
-8 41 -60 91 -105 101 -64 14 -97 -9 -283 -193 -123 -122 -178 -170 -178 -157
0 47 40 208 65 263 22 49 52 85 154 184 84 83 138 128 161 135 60 19 121 15
175 -11z m-87 -351 c2 -14 -46 -69 -172 -195 l-175 -174 -26 24 -26 24 173
173 c143 143 177 173 198 171 16 -2 26 -10 28 -23z m540 -29 c15 -8 163 -151
330 -318 l302 -303 -60 -60 -60 -60 -315 315 c-296 295 -315 317 -315 351 0
38 13 60 45 77 27 15 41 15 73 -2z m1981 -170 c49 -26 51 -43 51 -382 0 -342
-2 -358 -55 -382 -51 -23 -107 -7 -131 39 -20 39 -20 652 0 688 26 47 84 63
135 37z m-1554 -37 c59 -16 132 -66 165 -113 26 -39 67 -152 58 -161 -2 -3
-69 61 -148 140 -80 80 -138 145 -130 145 8 0 33 -5 55 -11z m-777 -124 c2 -1
21 -69 43 -151 l40 -148 -112 -112 -111 -111 -131 34 c-73 20 -141 39 -152 43
-16 6 -28 37 -58 151 -21 79 -37 149 -37 155 0 5 48 58 108 116 l107 106 150
-40 c82 -22 151 -41 153 -43z m-668 -30 c51 -51 54 -58 51 -99 -1 -26 12 -97
33 -178 20 -74 36 -139 36 -146 0 -8 -74 -12 -263 -14 -260 -3 -264 -3 -299
-27 -19 -13 -46 -40 -59 -59 l-24 -36 -3 -378 -3 -378 -245 0 -245 0 3 453 c3
437 4 454 26 519 48 143 160 270 297 338 97 49 165 58 415 59 l226 1 54 -55z
m2750 -190 l0 -245 -344 0 -343 0 -7 42 c-6 37 -20 56 -99 135 -77 77 -99 93
-133 98 l-40 7 -21 81 c-11 45 -24 92 -28 105 l-7 22 511 0 511 0 0 -245z
m-1511 -49 l214 -215 -31 -35 c-33 -38 -48 -90 -37 -128 4 -12 46 -62 93 -111
114 -116 139 -123 245 -69 4 2 7 -30 7 -71 0 -102 28 -186 91 -278 35 -50 237
-260 624 -649 315 -316 580 -589 589 -607 58 -115 -56 -244 -179 -203 -28 9
-270 236 -989 928 -523 503 -1008 971 -1079 1040 l-127 125 89 92 c50 50 93
103 97 119 6 25 2 67 -12 127 -5 23 3 31 88 87 51 34 95 62 98 62 3 0 102 -96
219 -214z m711 -171 c0 -13 -302 -315 -315 -315 -13 0 -145 132 -145 145 0 5
71 81 157 167 l158 158 72 -72 c40 -40 73 -77 73 -83z m273 -423 c236 -237
267 -271 267 -299 0 -48 -38 -87 -84 -87 -35 0 -52 15 -306 269 l-270 270 57
57 c32 32 60 58 63 58 3 0 126 -121 273 -268z m-2638 -615 c17 -14 28 -36 32
-63 5 -36 1 -46 -25 -75 l-30 -34 -337 0 -337 0 -30 34 c-26 29 -30 39 -25 75
4 27 15 49 32 63 26 23 28 23 360 23 332 0 334 0 360 -23z m-115 -572 l0 -295
-245 0 -245 0 0 295 0 295 245 0 245 0 0 -295z m99 -409 c66 -35 66 -137 0
-172 -37 -19 -643 -21 -684 -2 -69 31 -71 137 -4 174 36 20 649 20 688 0z
m-99 -656 l0 -370 -245 0 -245 0 0 363 c0 200 3 367 7 370 3 4 114 7 245 7
l238 0 0 -370z"/>
<path d="M1959 3833 c-66 -63 -68 -69 -43 -169 11 -44 24 -70 38 -78 36 -23
155 -47 174 -37 34 18 112 110 112 132 0 31 -39 157 -50 164 -13 8 -146 45
-161 45 -6 0 -37 -25 -70 -57z m153 -72 c4 -4 10 -20 14 -36 4 -24 0 -35 -18
-53 -21 -19 -29 -21 -56 -11 -43 15 -53 61 -21 95 16 18 29 22 48 18 14 -4 29
-10 33 -13z"/>
<path d="M1063 3805 c-81 -22 -132 -52 -195 -116 -101 -100 -130 -192 -126
-389 3 -123 3 -124 30 -139 24 -14 28 -14 46 2 17 15 20 36 25 155 6 166 20
212 88 287 58 62 112 91 201 107 34 6 69 16 76 21 15 12 16 59 0 75 -16 16
-80 14 -145 -3z"/>
<path d="M780 3043 c-32 -11 -40 -37 -40 -126 0 -103 9 -127 49 -127 46 0 52
17 49 130 -3 90 -5 104 -23 115 -11 7 -27 10 -35 8z"/>
<path d="M2055 2964 c-23 -23 -119 -226 -146 -306 -27 -83 -21 -139 22 -198
101 -139 329 -84 355 85 4 32 0 62 -16 112 -26 81 -122 284 -145 307 -21 21
-49 21 -70 0z m123 -376 c4 -42 1 -50 -26 -78 -39 -38 -79 -40 -122 -3 -30 25
-32 30 -28 77 3 32 20 85 47 141 l42 90 41 -90 c22 -50 43 -111 46 -137z"/>
<path d="M2050 2093 c-50 -63 -160 -323 -160 -377 0 -108 91 -196 200 -196
109 0 200 88 200 196 0 32 -43 149 -93 255 -74 153 -103 177 -147 122z m85
-235 c22 -49 40 -104 43 -134 4 -47 2 -52 -28 -77 -41 -35 -79 -35 -120 0 -30
25 -32 30 -28 77 5 49 72 216 88 216 4 0 24 -37 45 -82z"/>
</g>
</svg>
