<?xml version="1.0" standalone="no"?>
<!DOCTYPE svg PUBLIC "-//W3C//DTD SVG 20010904//EN"
 "http://www.w3.org/TR/2001/REC-SVG-20010904/DTD/svg10.dtd">
<svg version="1.0" xmlns="http://www.w3.org/2000/svg"
 width="512.000000pt" height="512.000000pt" viewBox="0 0 512.000000 512.000000"
 preserveAspectRatio="xMidYMid meet">

<g transform="translate(0.000000,512.000000) scale(0.100000,-0.100000)"
fill="#000000" stroke="none">
<path d="M66 5038 c253 -362 602 -753 969 -1083 604 -544 1271 -948 1914
-1156 l103 -34 174 -347 c96 -192 178 -348 182 -348 4 0 66 20 138 44 l129 43
275 -241 c222 -195 279 -251 300 -291 l25 -49 0 -371 0 -370 -82 -3 -83 -3 0
-414 0 -415 500 0 500 0 0 415 0 414 -82 3 -83 3 -5 470 c-5 418 -8 476 -24
525 -29 88 -92 204 -144 267 -27 32 -187 182 -355 333 l-307 275 0 140 0 141
-377 83 c-208 46 -383 86 -390 88 -6 3 -40 52 -74 111 -243 411 -635 781
-1158 1094 -547 328 -1270 599 -1935 727 -88 17 -161 31 -163 31 -3 0 22 -37
53 -82z m484 -208 c641 -174 1253 -448 1715 -765 383 -264 685 -575 874 -902
l42 -73 -51 -75 c-28 -41 -57 -75 -65 -75 -20 0 -239 79 -374 135 -759 313
-1547 918 -2211 1699 -51 60 -76 96 -65 93 11 -3 72 -20 135 -37z m3080 -1909
l305 -68 3 -80 3 -80 -148 -185 -148 -185 -70 -23 c-38 -12 -75 -24 -80 -26
-6 -3 -73 121 -149 275 l-140 279 53 81 c30 45 56 81 60 81 3 0 143 -31 311
-69z m645 -587 c345 -309 389 -355 436 -449 65 -132 69 -165 69 -638 l0 -417
-167 2 -168 3 -5 390 c-5 374 -6 392 -27 445 -35 84 -97 151 -361 380 l-243
211 34 42 c18 23 68 86 111 140 43 53 81 97 85 97 3 0 110 -93 236 -206z m665
-1914 l0 -250 -330 0 -330 0 0 80 0 80 250 0 250 0 0 85 0 85 -250 0 -250 0 0
85 0 85 330 0 330 0 0 -250z"/>
<path d="M2277 3669 c-25 -34 -44 -65 -42 -70 4 -5 573 -450 731 -571 7 -5 28
14 57 52 26 33 47 64 47 69 0 8 -720 573 -738 579 -4 1 -29 -25 -55 -59z"/>
</g>
</svg>
