<?xml version="1.0" standalone="no"?>
<!DOCTYPE svg PUBLIC "-//W3C//DTD SVG 20010904//EN"
 "http://www.w3.org/TR/2001/REC-SVG-20010904/DTD/svg10.dtd">
<svg version="1.0" xmlns="http://www.w3.org/2000/svg"
 width="512.000000pt" height="512.000000pt" viewBox="0 0 512.000000 512.000000"
 preserveAspectRatio="xMidYMid meet">

<g transform="translate(0.000000,512.000000) scale(0.100000,-0.100000)"
fill="#000000" stroke="none">
<path d="M2493 5013 c-84 -178 -128 -331 -165 -566 -19 -121 -22 -182 -22
-417 0 -292 14 -456 57 -696 23 -121 23 -121 3 -151 -18 -27 -29 -32 -115 -48
-224 -41 -565 -142 -776 -230 -216 -89 -432 -214 -590 -340 -87 -70 -255 -235
-255 -250 0 -4 5 -25 11 -46 14 -46 18 -47 189 -55 420 -19 955 141 1474 441
54 31 101 54 104 50 3 -3 -63 -610 -146 -1348 -84 -738 -152 -1345 -152 -1349
0 -5 218 -8 485 -8 l485 0 -6 42 c-19 145 -301 2654 -298 2656 1 2 29 -14 61
-36 178 -120 493 -281 703 -360 220 -82 395 -127 590 -152 107 -13 325 -13
350 0 10 5 24 26 30 45 15 47 8 57 -139 206 -179 180 -352 300 -626 434 -238
117 -520 217 -785 280 -110 25 -117 29 -139 63 l-24 36 17 85 c47 241 60 396
60 721 1 259 -2 334 -17 425 -38 229 -91 408 -172 583 l-44 92 -49 0 -49 0
-50 -107z m177 -358 c45 -172 61 -301 67 -542 6 -238 -4 -417 -37 -638 -31
-201 -18 -180 -109 -180 l-79 0 -16 103 c-38 239 -48 378 -48 627 0 202 4 278
22 395 26 182 60 318 110 445 l12 30 25 -65 c14 -36 38 -114 53 -175z m-4
-1514 c32 -20 64 -74 64 -110 0 -71 -62 -132 -135 -133 -133 -2 -185 173 -72
242 41 25 103 25 143 1z m-314 -233 c12 -27 20 -50 17 -52 -2 -2 -60 -36 -129
-76 -220 -126 -480 -244 -697 -316 -192 -63 -470 -114 -620 -114 -78 0 -77 1
32 89 292 238 702 419 1215 536 l145 33 8 -27 c5 -14 18 -47 29 -73z m638 56
c494 -133 904 -330 1185 -566 50 -42 99 -86 110 -98 l20 -23 -90 6 c-384 27
-858 209 -1322 509 l-92 59 24 36 c14 19 27 50 31 69 8 41 11 42 134 8z m-363
-220 c2 -8 263 -2296 263 -2309 0 -3 -133 -5 -295 -5 -290 0 -295 0 -295 20 0
21 245 2189 256 2266 6 39 8 41 37 39 17 -1 32 -6 34 -11z m277 -2452 c2 -4 8
-40 11 -80 l8 -72 -332 0 -331 0 4 23 c3 12 8 48 11 80 l6 57 309 0 c170 0
311 -3 314 -8z"/>
</g>
</svg>
