<?xml version="1.0" standalone="no"?>
<!DOCTYPE svg PUBLIC "-//W3C//DTD SVG 20010904//EN"
 "http://www.w3.org/TR/2001/REC-SVG-20010904/DTD/svg10.dtd">
<svg version="1.0" xmlns="http://www.w3.org/2000/svg"
 width="512.000000pt" height="512.000000pt" viewBox="0 0 512.000000 512.000000"
 preserveAspectRatio="xMidYMid meet">

<g transform="translate(0.000000,512.000000) scale(0.100000,-0.100000)"
fill="#000000" stroke="none">
<path d="M1470 5051 c-104 -21 -190 -122 -190 -224 0 -74 67 -185 122 -203 20
-6 21 -10 15 -143 -5 -95 -16 -179 -38 -281 -36 -169 -42 -288 -17 -336 46
-86 130 -126 221 -105 29 7 62 18 75 24 20 12 27 9 65 -28 84 -80 218 -86 332
-14 l48 30 56 -25 c79 -35 144 -49 199 -44 44 4 117 32 152 59 13 9 22 5 50
-21 48 -45 85 -61 150 -67 72 -7 142 15 189 59 l33 31 47 -16 c130 -47 269 12
286 121 3 20 8 45 10 55 2 10 -3 89 -12 175 -16 171 -13 359 9 452 l13 55 65
2 c36 1 394 7 795 12 402 6 772 14 823 17 102 7 122 17 122 64 0 57 -10 58
-370 50 -179 -5 -981 -14 -1782 -20 -1349 -12 -1459 -12 -1482 4 -94 61 -56
184 60 202 62 9 1214 -3 1429 -15 269 -16 2084 -14 2115 2 28 14 38 54 20 87
-11 20 -13 20 -963 20 -665 0 -1058 5 -1302 15 -356 15 -1280 19 -1345 6z
m1240 -567 c0 -178 20 -293 54 -316 20 -14 53 -8 71 12 16 18 17 28 5 127 -6
60 -10 151 -8 203 l3 95 163 3 c89 1 162 -1 162 -5 0 -5 -7 -48 -15 -98 -19
-113 -19 -275 0 -431 16 -138 12 -188 -19 -209 -28 -20 -83 -18 -131 5 -22 11
-50 19 -63 20 -29 0 -77 -24 -94 -48 -24 -33 -62 -52 -103 -52 -44 0 -71 16
-126 73 -30 30 -44 37 -75 37 -27 0 -53 -10 -92 -37 -49 -34 -61 -38 -116 -38
-51 1 -73 7 -134 39 -83 44 -112 44 -170 -1 -44 -33 -96 -52 -146 -53 -34 0
-45 6 -86 51 -60 65 -99 73 -180 35 -66 -31 -89 -32 -118 -6 -37 35 -37 76 3
272 25 125 38 223 42 311 l6 127 166 -2 166 -3 3 -55 c2 -30 -4 -110 -13 -178
-16 -117 -16 -124 1 -143 22 -24 66 -25 87 -1 20 22 50 239 45 324 l-3 58 148
0 147 0 -1 -27 c0 -16 -4 -75 -8 -133 -10 -125 -1 -150 53 -150 18 0 39 6 45
14 10 12 30 189 31 273 0 26 16 29 183 31 l117 2 0 -126z"/>
<path d="M735 4236 c-132 -42 -234 -173 -243 -314 -4 -52 0 -71 22 -116 32
-66 99 -129 174 -164 46 -22 72 -27 133 -27 67 0 81 4 124 30 99 61 155 171
155 304 0 95 -19 155 -67 211 -69 80 -188 111 -298 76z m176 -129 c47 -31 70
-82 70 -157 1 -112 -75 -220 -154 -220 -50 0 -105 22 -147 58 -49 41 -70 79
-70 125 0 39 40 124 73 155 66 62 168 80 228 39z"/>
<path d="M3694 4009 c-52 -12 -121 -71 -145 -123 -56 -123 11 -306 135 -365
145 -71 346 47 363 213 5 47 2 64 -21 110 -58 119 -208 193 -332 165z m101
-120 c74 -20 135 -84 135 -140 0 -57 -86 -129 -153 -129 -124 0 -177 224 -63
270 28 12 35 12 81 -1z"/>
<path d="M1435 3476 c-133 -31 -216 -68 -313 -141 -216 -162 -326 -471 -294
-821 31 -339 143 -657 406 -1152 74 -140 125 -303 192 -614 93 -434 135 -550
230 -637 101 -93 234 -95 320 -7 79 83 116 231 164 656 48 432 80 600 131 672
28 39 56 45 85 17 55 -52 96 -236 139 -624 47 -431 81 -593 148 -691 39 -59
80 -84 150 -91 156 -16 269 99 341 349 14 47 48 195 76 328 84 398 108 467
256 755 172 335 266 581 319 835 121 589 -84 1032 -535 1157 -51 14 -102 18
-240 18 -198 0 -269 -14 -435 -85 -122 -51 -167 -62 -256 -62 -89 0 -136 12
-244 59 -150 66 -241 85 -420 89 -112 2 -178 -1 -220 -10z m439 -135 c131 -35
237 -92 324 -175 81 -77 133 -110 194 -121 48 -9 72 0 87 32 10 23 9 30 -7 52
-11 15 -34 29 -56 33 -43 9 -88 36 -80 49 3 5 22 9 42 9 53 0 142 25 234 65
143 63 224 79 393 80 171 0 233 -13 355 -73 145 -71 247 -203 306 -397 26 -83
28 -103 28 -265 0 -194 -10 -267 -69 -469 -51 -176 -133 -371 -257 -611 -158
-309 -190 -398 -267 -765 -70 -332 -95 -423 -136 -506 -30 -59 -84 -106 -132
-115 -114 -21 -154 99 -218 666 -57 502 -92 632 -190 719 -44 39 -107 49 -161
26 -53 -22 -81 -50 -115 -116 -54 -108 -78 -234 -124 -649 -45 -404 -81 -567
-136 -623 -26 -26 -35 -29 -71 -24 -118 16 -170 124 -258 535 -99 461 -120
526 -270 817 -60 116 -129 259 -154 318 -213 502 -251 902 -112 1191 85 177
226 284 432 330 98 22 312 15 418 -13z"/>
<path d="M299 3210 c-52 -27 -86 -72 -105 -137 -51 -177 72 -326 267 -325 125
0 207 85 217 224 4 59 1 75 -22 123 -46 93 -124 135 -250 135 -50 -1 -82 -7
-107 -20z m168 -105 c49 -10 93 -66 93 -118 0 -107 -94 -154 -199 -97 -30 16
-61 69 -61 105 0 50 31 99 70 112 19 6 42 10 50 8 8 -2 29 -6 47 -10z"/>
<path d="M4195 2986 c-122 -54 -141 -248 -33 -329 102 -75 237 -59 292 35 35
62 40 99 22 162 -33 113 -174 180 -281 132z m129 -117 c13 -7 30 -25 37 -41
10 -24 9 -35 -4 -64 -15 -30 -21 -34 -55 -34 -53 0 -92 31 -92 74 0 66 50 94
114 65z"/>
</g>
</svg>
