<svg width="100%" height="100%" viewBox="0 0 512 512" version="1.1" xmlns="http://www.w3.org/2000/svg"
  xmlns:xlink="http://www.w3.org/1999/xlink" xml:space="preserve" xmlns:serif="http://www.serif.com/"
  style="fill-rule:evenodd;clip-rule:evenodd;stroke-linejoin:round;stroke-miterlimit:2;">
  <g transform="matrix(1,0,0,1,16,0)">
    <path
      d="M304,352C295.164,352 288,359.162 288,368C288,376.836 295.164,384 304,384C312.836,384 320,376.836 320,368C320,359.2 312.8,352 304,352ZM255.9,400C247.1,400 240,407.2 240,416C240,424.836 247.164,432 256,432C264.836,432 271.93,424.836 271.93,416C271.9,407.2 264.8,400 255.9,400ZM192,352C183.164,352 176,359.162 176,368C176,376.8 183.2,384 192,384C200.8,384 208,376.836 208,368C208,359.2 200.8,352 192,352ZM256,304C247.164,304 240,311.162 240,320C240,328.836 247.099,336 255.93,336C264.761,336 271.93,328.836 271.93,320C271.9,311.2 264.8,304 256,304ZM368,304C359.2,304 352,311.2 352,320C352,328.836 359.164,336 368,336C376.836,336 384,328.8 384,320C384,311.2 376.8,304 368,304ZM336,400C327.164,400 320,407.162 320,416C320,424.836 327.164,432 336,432C344.836,432 352,424.8 352,416C352,407.2 344.8,400 336,400ZM408,80C404.006,80 400.09,80.326 396.27,80.955C386.684,52.445 359.7,31.845 328,31.845C321.693,31.841 315.412,32.667 309.32,34.302C296.6,13.73 273.9,0 248,0C222.1,0 199.3,13.79 186.6,34.44C180.7,32.85 174.5,32 168.1,32C128.4,32 96.01,64.3 96.01,104L96.01,225.6C90.77,224.6 85.41,224 80.01,224C80.007,224 80.013,224 80.01,224C36.43,224 0,259.15 0,304.07C0,324.36 7.558,343.59 21.45,358.52L102.7,445.76C141.9,487.9 197.4,512 254.9,512L287.98,512C393.9,512 480,425.9 480,320L480,152C480,112.3 447.7,80 408,80ZM432,320C432,399.41 367.41,464 288.9,464L254.9,464C210.49,464 168.07,445.54 137.8,413.04L58.04,327.41C51.87,320.7 48.66,312 48.66,303.4C48.66,281.29 67.12,272 80.01,272C88.571,272 97.11,275.416 103.43,282.18L130.15,310.87C131.8,312.641 133.888,313.434 135.94,313.434C140.046,313.434 144.005,310.262 144.005,305.417L144.005,104C144.005,90.75 154.755,80 167.105,80C179.455,80 191.105,90.75 191.105,104L191.105,256C191.105,264.836 198.269,272 207.105,272C215.941,272 224,264.8 224,256L224.002,72C224.002,58.75 234.752,48 248.002,48C261.252,48 272.002,58.75 272.002,72L272.002,256C272.002,264.836 279.164,272 287.102,272C295.94,272 303.092,264.836 303.092,256L303.099,103.8C303.099,90.55 313.849,79.8 327.099,79.8C340.349,79.8 351.099,90.55 351.099,103.8L351.099,256C351.099,264.836 358.263,272 367.099,272C375.935,272 383.099,264.836 383.099,256L383.099,152C383.099,138.75 393.849,128 407.099,128C421.3,128 432,138.8 432,152L432,320Z"
      style="fill-rule:nonzero;" />
  </g>
</svg>