<svg width="100%" height="100%" viewBox="0 0 512 512" version="1.1" xmlns="http://www.w3.org/2000/svg"
  xmlns:xlink="http://www.w3.org/1999/xlink" xml:space="preserve" xmlns:serif="http://www.serif.com/"
  style="fill-rule:evenodd;clip-rule:evenodd;stroke-linejoin:round;stroke-miterlimit:2;">
  <g transform="matrix(0.8,0,0,0.8,0,51.2)">
    <path
      d="M112,160C112,151.2 119.2,144 128,144L176,144L176,96C176,87.16 183.2,80 192,80L224,80C232.8,80 240,87.16 240,96L240,144L288,144C296.8,144 304,151.2 304,160L304,192C304,200.8 296.8,208 288,208L240,208L240,256C240,264.8 232.8,272 224,272L192,272C183.2,272 176,264.8 176,256L176,208L128,208C119.2,208 112,200.8 112,192L112,160ZM256,416C256,469 213,512 160,512C106.1,512 64,469 64,416C28.65,416 0,387.3 0,352L0,64C0,28.65 28.65,0 64,0L352,0C387.3,0 416,28.65 416,64L416,96L458.7,96C473.6,96 487.8,101.9 498.3,112.4L591.6,205.7C602.1,216.2 608,230.4 608,245.3L608,368L616,368C629.3,368 640,378.7 640,392C640,405.3 629.3,416 616,416L576,416C576,469 533,512 480,512C426.1,512 384,469 384,416L256,416ZM352,48L64,48C55.16,48 48,55.16 48,64L48,352C48,360.8 55.16,368 64,368L76.84,368C93.44,339.3 124.5,320 160,320C195.5,320 226.6,339.3 243.2,368L352,368C360.8,368 368,360.8 368,352L368,64C368,55.16 360.8,48 352,48ZM464.4,146.3C462.9,144.8 460.9,144 458.7,144L416,144L416,240L558,240C557.9,239.9 557.8,239.7 557.7,239.6L464.4,146.3ZM160,368C133.5,368 112,389.5 112,416C112,442.5 133.5,464 160,464C186.5,464 208,442.5 208,416C208,389.5 186.5,368 160,368ZM480,464C506.5,464 528,442.5 528,416C528,389.5 506.5,368 480,368C453.5,368 432,389.5 432,416C432,442.5 453.5,464 480,464Z"
      style="fill-rule:nonzero;" />
  </g>
</svg>