<svg width="100%" height="100%" viewBox="0 0 512 512" version="1.1" xmlns="http://www.w3.org/2000/svg"
  xmlns:xlink="http://www.w3.org/1999/xlink" xml:space="preserve" xmlns:serif="http://www.serif.com/"
  style="fill-rule:evenodd;clip-rule:evenodd;stroke-linejoin:round;stroke-miterlimit:2;">
  <g transform="matrix(1,0,0,1,32,0)">
    <path
      d="M128,352L96,352C87.164,352 80,359.164 80,368L80,400C80,408.8 87.16,416 96,416L128,416C136.836,416 144,408.836 144,400L144,368C144,359.2 136.8,352 128,352ZM96,160L128,160C136.836,160 144,152.836 144,144L144,112C144,103.2 136.8,96 128,96L96,96C87.16,96 80,103.2 80,112L80,144C80,152.8 87.16,160 96,160ZM344,360L200,360C186.75,360 176,370.75 176,384C176,397.25 186.75,408 200,408L344,408C357.25,408 368,397.25 368,384C368,370.75 357.3,360 344,360ZM171.3,220.7C165.05,214.45 154.92,214.45 148.68,220.7L112,257.4L99.31,244.7C93.06,238.45 82.93,238.45 76.69,244.7C70.45,250.95 70.44,261.08 76.69,267.32L100.69,291.32C103.8,294.4 107.9,296 112,296C116.1,296 120.188,294.438 123.31,291.312L171.31,243.312C177.6,237.1 177.6,226.9 171.3,220.7ZM344,232L232,232C218.8,232 208,242.8 208,256C208,269.2 218.75,280 232,280L344,280C357.25,280 368,269.25 368,256C368,242.75 357.3,232 344,232ZM384,0L64,0C28.65,0 0,28.65 0,64L0,448C0,483.35 28.65,512 64,512L384,512C419.35,512 448,483.35 448,448L448,64C448,28.65 419.3,0 384,0ZM400,448C400,456.824 392.822,464 384,464L64,464C55.178,464 48,456.824 48,448L48,64C48,55.176 55.178,48 64,48L384,48C392.822,48 400,55.176 400,64L400,448ZM344,104L200,104C186.8,104 176,114.8 176,128C176,141.2 186.75,152 200,152L344,152C357.25,152 368,141.25 368,128C368,114.75 357.3,104 344,104Z"
      style="fill-rule:nonzero;" />
  </g>
</svg>