<?xml version="1.0" standalone="no"?>
<!DOCTYPE svg PUBLIC "-//W3C//DTD SVG 20010904//EN"
 "http://www.w3.org/TR/2001/REC-SVG-20010904/DTD/svg10.dtd">
<svg version="1.0" xmlns="http://www.w3.org/2000/svg"
 width="512.000000pt" height="512.000000pt" viewBox="0 0 512.000000 512.000000"
 preserveAspectRatio="xMidYMid meet">

<g transform="translate(0.000000,512.000000) scale(0.100000,-0.100000)"
fill="#000000" stroke="none">
<path d="M1115 4745 c-369 -59 -681 -260 -889 -573 -101 -151 -161 -298 -203
-493 -25 -117 -25 -391 0 -508 45 -207 130 -404 241 -551 38 -51 485 -516
1104 -1151 804 -823 1050 -1070 1083 -1085 61 -27 170 -26 224 3 35 18 376
363 1307 1319 148 152 157 168 117 218 -15 19 -30 26 -54 26 -31 0 -81 -49
-725 -709 -381 -390 -703 -714 -717 -720 -30 -14 -56 -14 -87 0 -34 16 -2065
2100 -2129 2185 -100 132 -183 324 -218 499 -8 41 -14 132 -14 220 0 88 6 179
14 220 85 430 388 780 786 908 133 43 192 52 350 52 197 0 338 -32 500 -113
143 -71 205 -121 427 -344 133 -134 231 -224 252 -233 45 -19 107 -19 153 0
23 10 113 93 247 229 217 220 286 276 431 348 77 39 197 80 290 100 81 17 332
17 420 -1 699 -140 1111 -870 879 -1559 -34 -102 -107 -241 -169 -323 -27 -37
-155 -176 -284 -309 -203 -209 -234 -246 -234 -272 0 -36 41 -78 76 -78 25 -1
440 414 537 535 200 252 304 582 286 910 -17 328 -144 623 -368 860 -387 409
-989 520 -1493 275 -155 -75 -230 -134 -458 -360 -119 -118 -225 -216 -235
-218 -11 -2 -84 64 -212 193 -107 108 -233 225 -280 261 -265 199 -631 291
-955 239z"/>
<path d="M2415 3510 c-136 -22 -270 -75 -391 -155 -91 -61 -228 -200 -264
-268 -21 -39 -22 -46 -9 -72 16 -33 54 -51 90 -42 14 4 44 34 72 72 152 206
380 319 647 319 150 1 224 -16 355 -79 208 -101 370 -297 431 -525 25 -91 25
-310 0 -400 -79 -285 -291 -501 -573 -582 -103 -30 -313 -32 -413 -4 -289 80
-509 299 -586 586 -17 65 -24 236 -14 347 5 62 -16 93 -62 93 -70 0 -87 -35
-95 -195 -9 -193 38 -381 139 -546 68 -111 206 -249 317 -317 317 -194 723
-187 1030 18 283 189 445 510 428 845 -13 254 -107 459 -291 640 -129 126
-276 208 -447 250 -78 19 -282 27 -364 15z"/>
<path d="M2414 3206 c-17 -8 -42 -29 -55 -47 -22 -32 -24 -44 -28 -206 l-3
-173 -167 0 c-149 0 -169 -2 -199 -20 -50 -31 -62 -71 -62 -207 0 -99 3 -123
20 -150 37 -62 57 -68 241 -71 l167 -4 4 -167 c4 -185 9 -204 71 -241 27 -17
51 -20 157 -20 106 0 130 3 157 20 62 37 67 56 71 241 l4 167 167 4 c184 3
204 9 241 71 17 27 20 51 20 150 0 136 -12 176 -62 207 -30 18 -50 20 -199 20
l-167 0 -3 173 c-4 162 -6 174 -28 206 -13 18 -39 40 -57 47 -45 19 -247 18
-290 0z m217 -298 c0 -180 9 -220 52 -252 26 -19 44 -21 208 -24 l179 -4 0
-74 0 -74 -184 0 c-177 0 -186 -1 -211 -22 -36 -32 -44 -79 -45 -255 l0 -153
-75 0 -75 0 0 186 0 186 -29 29 -29 29 -186 0 -186 0 0 75 0 75 158 0 c175 0
222 9 252 47 18 24 20 40 20 203 0 97 3 180 7 183 3 4 37 7 75 7 l68 0 1 -162z"/>
</g>
</svg>
