<svg width="100%" height="100%" viewBox="0 0 512 512" version="1.1" xmlns="http://www.w3.org/2000/svg"
  xmlns:xlink="http://www.w3.org/1999/xlink" xml:space="preserve" xmlns:serif="http://www.serif.com/"
  style="fill-rule:evenodd;clip-rule:evenodd;stroke-linejoin:round;stroke-miterlimit:2;">
  <g transform="matrix(0.888889,0,0,0.888889,0,28.4444)">
    <path
      d="M368,176L320,176L320,128C320,119.199 312.801,112 304,112L272,112C263.2,112 256,119.2 256,128L256,176L208,176C199.2,176 192,183.2 192,191.1L192,224C192,232.797 199.199,239.1 208,239.1L256,239.1L256,287.1C256,296.8 263.2,304 272,304L304,304C312.801,304 320,296.8 320,288L320,240L368,240C376.8,239.1 384,232.8 384,224L384,191.1C384,183.2 376.8,176 368,176ZM512,0L64,0C28.65,0 0,28.65 0,64L0,352C0,387.35 28.65,416 64,416L212.3,416L202.7,464L152,464C138.8,464 128,474.8 128,488C128,501.2 138.8,512 152,512L424,512C437.25,512 448,501.25 448,488C448,474.75 437.25,464 424,464L373.27,464L363.7,416L512,416C547.35,416 576,387.35 576,352L576,64C576,28.65 547.3,0 512,0ZM251.7,464L261.3,416L314.76,416L324.36,464L251.7,464ZM528,352C528,360.822 520.822,368 512,368L64,368C55.178,368 48,360.822 48,352L48,64C48,55.178 55.178,48 64,48L512,48C520.822,48 528,55.178 528,64L528,352Z"
      style="fill-rule:nonzero;" />
  </g>
</svg>