<svg width="100%" height="100%" viewBox="0 0 512 512" version="1.1" xmlns="http://www.w3.org/2000/svg"
  xmlns:xlink="http://www.w3.org/1999/xlink" xml:space="preserve" xmlns:serif="http://www.serif.com/"
  style="fill-rule:evenodd;clip-rule:evenodd;stroke-linejoin:round;stroke-miterlimit:2;">
  <g transform="matrix(1.04493,0,0,1.04493,55.374,-6.28393)">
    <path
      d="M368,319.1C368,417.2 289.2,496 192,496C94.8,496 16,417.2 16,319.1C16,245.9 118.3,89.43 166.9,19.3C179.2,1.585 204.8,1.585 217.1,19.3C265.7,89.43 368,245.9 368,319.1ZM306.6,269.3C297.3,245.7 284.1,218.1 268.8,191.4C243.9,146.4 214.8,101.5 192,67.67C169.2,101.5 140.1,146.4 115.2,191.4C99.95,218.1 86.7,245.7 77.39,269.3C67.65,293.9 64,310.7 64,319.1C64,390.7 121.3,448 192,448C262.7,448 320,390.7 320,319.1C320,310.7 316.3,293.9 306.6,269.3Z"
      style="fill-rule:nonzero;" />
  </g>
</svg>