<?xml version="1.0" standalone="no"?>
<!DOCTYPE svg PUBLIC "-//W3C//DTD SVG 20010904//EN"
 "http://www.w3.org/TR/2001/REC-SVG-20010904/DTD/svg10.dtd">
<svg version="1.0" xmlns="http://www.w3.org/2000/svg"
 width="512.000000pt" height="512.000000pt" viewBox="0 0 512.000000 512.000000"
 preserveAspectRatio="xMidYMid meet">

<g transform="translate(0.000000,512.000000) scale(0.100000,-0.100000)"
fill="#000000" stroke="none">
<path d="M2865 4324 c-22 -2 -123 -11 -225 -20 -194 -16 -235 -25 -250 -55
-17 -31 -11 -74 13 -97 27 -25 63 -27 197 -12 168 19 375 30 420 24 33 -5 53
-16 75 -40 35 -38 239 -357 584 -915 l246 -397 183 -167 183 -166 -34 -47
c-129 -176 -138 -202 -92 -247 28 -28 61 -32 92 -10 12 8 67 79 124 158 56 78
105 146 109 150 5 5 124 -73 265 -174 281 -199 297 -207 342 -155 27 31 29 62
8 93 -13 19 -174 136 -494 360 -123 87 -152 92 -199 39 l-29 -33 -167 151
-167 151 -160 260 c-89 143 -240 386 -337 540 -324 517 -358 561 -441 590 -47
16 -175 26 -246 19z"/>
<path d="M2035 4240 c-224 -30 -257 -38 -337 -85 -104 -61 -882 -743 -1018
-893 -69 -75 -127 -184 -136 -253 -8 -60 16 -141 60 -207 l34 -50 -287 -544
c-158 -298 -297 -567 -309 -596 -86 -199 -33 -454 127 -612 147 -146 347 -201
545 -150 111 28 170 63 261 155 79 80 83 86 275 453 l195 372 46 0 c25 0 67 7
93 16 41 14 49 14 56 3 53 -92 87 -122 159 -138 90 -20 209 25 290 109 26 27
82 111 126 189 91 162 89 162 160 53 22 -34 73 -113 113 -175 166 -258 311
-378 550 -456 91 -30 258 -66 352 -77 81 -8 80 -8 68 -42 -23 -60 -15 -68 298
-296 163 -119 309 -219 325 -223 22 -4 34 1 59 25 32 33 36 54 17 89 -7 12
-123 104 -260 203 -136 100 -247 186 -247 192 0 5 115 170 255 365 165 231
255 365 255 380 0 29 -51 83 -77 83 -10 -1 -28 -6 -40 -13 -12 -7 -119 -149
-239 -316 l-218 -304 -85 6 c-201 15 -418 69 -551 138 -141 73 -218 158 -390
429 -93 147 -109 166 -162 200 -74 48 -225 97 -495 160 -306 71 -415 104 -530
160 -122 60 -204 130 -229 197 -15 39 -16 53 -6 101 15 72 52 126 105 154 35
19 58 22 137 22 87 0 107 -4 230 -46 74 -25 191 -72 260 -103 293 -135 583
-217 713 -201 129 15 277 159 353 343 31 77 32 157 0 249 -40 119 -165 388
-188 408 -22 17 -38 18 -253 13 -198 -5 -342 -17 -522 -43 -27 -4 -59 -19 -87
-41 l-45 -35 -118 62 c-65 35 -142 76 -170 92 l-53 29 98 86 c113 99 201 159
251 172 20 6 119 20 221 33 161 19 188 25 208 45 30 30 29 77 -3 108 -29 30
-46 30 -240 5z m-356 -726 c141 -75 260 -139 264 -144 8 -7 -37 -110 -48 -110
-6 0 -519 272 -528 280 -8 7 38 110 49 110 4 0 122 -61 263 -136z m1022 -54
c72 -161 101 -141 -233 -166 l-288 -22 -65 -41 c-36 -23 -65 -38 -65 -34 0 5
21 46 45 92 69 127 61 156 -55 217 l-35 18 50 8 c130 22 314 36 449 34 l149
-1 48 -105z m-1204 -172 c169 -89 312 -165 317 -169 5 -5 -25 5 -66 21 -171
66 -245 83 -368 83 -97 1 -124 -3 -174 -23 -188 -73 -285 -314 -202 -497 43
-93 164 -199 296 -258 l44 -20 -293 -5 -293 -5 -24 -28 c-29 -34 -31 -66 -3
-101 l20 -26 365 0 c255 0 364 -3 364 -11 0 -24 -564 -1077 -598 -1117 -80
-94 -218 -149 -345 -139 -265 22 -444 305 -350 550 15 40 994 1906 1000 1907
1 0 141 -73 310 -162z m-653 -145 c-103 -196 -119 -223 -125 -223 -14 0 -19
68 -8 101 7 19 25 53 41 77 31 44 131 152 143 152 4 0 -19 -48 -51 -107z
m1956 5 c0 -23 -59 -130 -97 -176 -20 -25 -57 -58 -82 -74 -42 -27 -51 -29
-106 -23 -117 12 -433 105 -442 130 -2 6 34 33 79 60 l82 50 265 21 c146 12
274 22 284 23 9 0 17 -5 17 -11z m-1008 -847 c10 -8 -149 -217 -201 -264 -24
-21 -45 -36 -47 -34 -3 3 32 75 78 161 l82 157 41 -7 c22 -3 43 -9 47 -13z
m346 -96 c10 -8 -145 -256 -179 -287 -99 -90 -191 -59 -173 57 4 32 28 71 95
162 l89 121 82 -25 c46 -14 84 -26 86 -28z"/>
</g>
</svg>
