<svg width="100%" height="100%" viewBox="0 0 512 512" version="1.1" xmlns="http://www.w3.org/2000/svg"
  xmlns:xlink="http://www.w3.org/1999/xlink" xml:space="preserve" xmlns:serif="http://www.serif.com/"
  style="fill-rule:evenodd;clip-rule:evenodd;stroke-linejoin:round;stroke-miterlimit:2;">
  <path
    d="M128,192L240,192L240,224L160,224C151.2,224 144,231.2 144,240C144,248.8 151.2,256 160,256L240,256L240,288L170.7,288C145.14,288 129.9,316.48 144.08,337.75L165.41,369.75C171.3,378.7 181.3,384 192,384L319.1,384C329.8,384 339.79,378.652 345.73,369.75L367.06,337.75C382.1,316.5 366.9,288 341.3,288L272,288L272,256L352,256C360.801,256 368,248.799 368,240C368,231.2 360.8,224 352,224L272,224L272,192L384,192C392.801,192 400,184.799 400,176C400,167.2 392.8,160 384,160L272,160L272,128C272,119.199 264.801,112 256,112C247.199,112 240,119.2 240,128L240,160L128,160C119.2,160 112,167.2 112,176C112,184.8 119.2,192 128,192ZM200,352C191.164,352 184,344.836 184,336C184,327.162 191.164,320 200,320C208.836,320 216,327.162 216,336C216,344.8 208.8,352 200,352ZM312,320C320.836,320 328,327.162 328,336C328,344.836 320.836,352 312,352C303.164,352 296,344.836 296,336C296,327.2 303.2,320 312,320ZM488,432L480,432L480,80L488,80C501.3,80 512,69.25 512,56C512,42.75 501.3,32 488,32L24,32C10.75,32 0,42.75 0,56C0,69.25 10.75,80 24,80L32,80L32,432L24,432C10.75,432 0,442.7 0,456C0,469.3 10.75,480 24,480L488,480C501.26,480 512,469.25 512,456C512,442.75 501.3,432 488,432ZM432,432L80,432L80,80L432,80L432,432Z"
    style="fill-rule:nonzero;" />
</svg>