<?xml version="1.0" standalone="no"?>
<!DOCTYPE svg PUBLIC "-//W3C//DTD SVG 20010904//EN"
 "http://www.w3.org/TR/2001/REC-SVG-20010904/DTD/svg10.dtd">
<svg version="1.0" xmlns="http://www.w3.org/2000/svg"
 width="512.000000pt" height="512.000000pt" viewBox="0 0 512.000000 512.000000"
 preserveAspectRatio="xMidYMid meet">

<g transform="translate(0.000000,512.000000) scale(0.100000,-0.100000)"
fill="#000000" stroke="none">
<path d="M401 4679 c-133 -26 -272 -131 -338 -255 -66 -124 -63 -18 -63 -1864
0 -1846 -3 -1740 63 -1864 66 -125 209 -231 346 -256 74 -14 4228 -14 4302 0
137 25 280 131 346 256 61 114 63 135 63 705 0 490 -1 518 -19 540 -26 32 -86
32 -112 0 -18 -22 -19 -50 -19 -535 0 -570 0 -575 -67 -673 -43 -64 -133 -127
-203 -142 -72 -15 -4208 -15 -4280 0 -70 15 -160 78 -203 142 -72 105 -67 -23
-67 1828 0 1604 1 1670 19 1728 36 116 131 208 244 238 68 17 4205 20 4287 2
70 -15 160 -78 203 -142 70 -103 67 -50 67 -1162 0 -999 0 -1002 21 -1029 28
-36 80 -36 108 0 21 27 21 30 21 1033 0 1109 2 1074 -63 1195 -68 127 -205
229 -346 256 -67 13 -4246 12 -4310 -1z"/>
<path d="M2515 4381 c-69 -17 -127 -64 -159 -128 -9 -17 -19 -70 -22 -117 l-7
-86 -196 0 c-225 0 -251 -7 -313 -80 -92 -106 -64 -264 59 -337 48 -28 49 -28
251 -31 l202 -3 0 -110 0 -109 -103 0 c-118 0 -137 -10 -137 -72 0 -64 22 -73
175 -73 203 0 217 13 223 207 6 182 -2 234 -43 275 l-33 33 -216 0 c-229 0
-256 5 -275 47 -16 36 -14 51 14 78 24 25 24 25 235 25 300 0 310 6 318 191 5
121 16 142 72 142 56 0 67 -21 72 -142 8 -185 18 -191 318 -191 211 0 211 0
235 -25 33 -32 31 -60 -4 -96 l-29 -29 -222 0 -222 0 -33 -33 c-41 -41 -49
-92 -43 -275 4 -148 19 -183 86 -202 22 -6 186 -10 413 -10 l376 0 21 -23 c39
-41 25 -97 -29 -116 -21 -7 -159 -11 -406 -11 -406 0 -414 -1 -443 -56 -12
-21 -15 -66 -15 -193 0 -266 -6 -261 300 -261 l217 0 29 -29 c35 -36 37 -64 4
-96 -24 -25 -24 -25 -235 -25 -325 0 -315 10 -315 -305 0 -251 3 -261 79 -290
46 -18 28 -22 196 45 69 27 145 35 215 20 315 -64 438 -446 219 -681 -65 -68
-88 -80 -386 -203 -285 -117 -347 -133 -452 -116 -63 10 -563 208 -631 250
-52 32 -124 116 -153 178 -24 51 -27 69 -27 168 0 107 1 112 38 186 57 116
138 181 269 214 80 21 150 14 257 -26 108 -39 150 -39 190 0 38 39 44 85 40
307 -6 255 -3 253 -323 253 l-215 0 -20 26 c-27 35 -26 57 3 91 l24 28 229 5
c249 5 261 8 285 65 19 45 18 353 -2 389 -29 55 -37 56 -443 56 -247 0 -385 4
-406 11 -54 19 -69 79 -28 116 19 19 37 22 134 25 100 3 115 5 134 25 27 27
29 75 4 103 -16 18 -30 20 -149 20 -124 0 -134 -2 -181 -28 -64 -35 -107 -102
-113 -177 -9 -109 69 -211 179 -234 30 -7 186 -11 389 -11 l340 0 0 -104 0
-104 -198 -4 c-189 -3 -200 -4 -247 -28 -128 -66 -161 -231 -67 -340 62 -73
88 -80 315 -80 l197 0 0 -135 c0 -74 -2 -135 -5 -135 -3 0 -33 9 -65 20 -294
99 -626 -83 -704 -386 -20 -78 -21 -213 -1 -288 36 -139 145 -281 263 -344 71
-38 551 -236 612 -252 66 -18 224 -16 291 3 31 10 177 66 323 126 300 123 369
165 443 265 175 235 154 538 -51 742 -168 168 -381 204 -628 109 -17 -7 -18 4
-18 134 l0 141 198 0 c226 0 252 7 314 80 105 122 50 309 -105 355 -37 11
-100 15 -229 15 l-178 0 0 105 0 105 340 0 c203 0 359 4 389 11 69 15 123 56
155 120 53 108 19 225 -84 287 l-54 32 -373 0 -373 0 0 110 0 110 178 0 c243
0 301 19 359 118 66 112 13 266 -109 316 -29 13 -79 16 -231 16 l-194 0 -7 81
c-8 92 -25 141 -64 182 -52 55 -142 84 -207 68z"/>
<path d="M480 4103 c-8 -3 -23 -12 -32 -21 -17 -14 -18 -45 -18 -374 0 -345 1
-359 20 -378 25 -25 71 -26 101 -1 l24 19 5 304 5 303 298 5 c281 5 299 6 313
24 21 29 18 80 -7 102 -20 18 -42 19 -358 21 -185 1 -343 -1 -351 -4z"/>
<path d="M3960 4103 c-33 -12 -50 -37 -50 -73 0 -64 0 -64 329 -70 l296 -5 5
-303 5 -304 24 -19 c30 -25 76 -24 101 1 19 19 20 33 20 335 0 346 0 348 -60
398 -17 15 -47 31 -68 37 -38 10 -574 13 -602 3z"/>
<path d="M995 3321 c-78 -20 -142 -79 -164 -150 -16 -54 -16 -1168 0 -1222 61
-202 353 -203 425 -2 19 55 19 1171 0 1226 -38 106 -158 175 -261 148z m78
-153 c47 -25 46 -12 46 -608 0 -599 2 -583 -47 -609 -28 -15 -77 1 -92 30 -6
11 -10 240 -10 581 0 594 -1 581 45 606 26 14 32 14 58 0z"/>
<path d="M4013 3316 c-60 -19 -99 -51 -130 -104 l-28 -47 -3 -583 c-2 -376 1
-596 8 -621 46 -173 274 -223 388 -86 16 20 34 53 41 74 16 54 16 1168 0 1222
-34 111 -165 181 -276 145z m96 -151 c16 -8 31 -22 35 -30 10 -28 7 -1135 -4
-1154 -15 -29 -64 -45 -92 -30 -49 26 -47 10 -47 609 0 593 -1 582 44 608 26
15 31 15 64 -3z"/>
<path d="M450 1790 c-19 -19 -20 -33 -20 -335 0 -346 0 -348 60 -399 52 -43
90 -47 394 -44 263 3 285 4 305 22 25 22 28 73 7 102 -14 18 -32 19 -313 24
l-298 5 -5 303 -5 304 -24 19 c-30 25 -76 24 -101 -1z"/>
<path d="M4569 1791 l-24 -19 -5 -304 -5 -303 -296 -5 c-230 -4 -300 -8 -312
-19 -25 -20 -22 -83 4 -107 20 -18 42 -19 305 -22 304 -3 342 1 394 44 60 51
60 53 60 399 0 302 -1 316 -20 335 -25 25 -71 26 -101 1z"/>
<path d="M2019 1737 c-60 -22 -105 -55 -132 -94 -37 -55 -47 -87 -47 -157 0
-80 37 -157 96 -202 46 -34 538 -239 599 -249 23 -3 62 -1 89 5 48 11 452 173
537 216 186 94 191 354 9 458 -47 26 -65 31 -120 30 -57 -1 -85 -9 -225 -68
-138 -59 -171 -69 -237 -73 -76 -5 -76 -5 -255 67 -190 77 -252 90 -314 67z
m260 -208 c166 -68 181 -72 271 -77 107 -5 141 4 378 103 127 52 151 53 197 5
35 -37 39 -96 9 -137 -28 -37 -497 -234 -560 -235 -55 -1 -528 191 -561 228
-56 62 -7 180 76 183 8 1 93 -31 190 -70z"/>
</g>
</svg>
