<svg version="1.1" id="Layer_1" x="0" y="0" viewBox="0 0 948.59998 261.475" xml:space="preserve" width="948.59998"
     height="261.47501" xmlns="http://www.w3.org/2000/svg" xmlns:svg="http://www.w3.org/2000/svg">
     <defs id="defs52" />
     <style id="style2">
          .st0 {
               fill: #58595b
          }

          .st1 {
               fill: #f9b77a
          }

          .st2 {
               fill: #f3dfb6
          }
     </style>
     <g id="XMLID_1_" transform="translate(-21.4,-21.812503)">
          <g id="g1140" transform="translate(0,-33.849997)">
               <path id="XMLID_201_" style="fill:#F3DFB6;stroke:none;stroke-width:0.997011"
                    d="m 889.18534,92 v 18 h 31.01374 v 84.7 h 18.78718 V 110 H 970 V 92 Z M 852.00861,165.6 803.00292,92 h -21.47106 v 102.7 h 18.68777 V 121 l 49.60211,73.7 h 20.97404 V 92 H 852.00861 Z M 706.68138,92 661.65181,194.7 h 21.47106 l 9.54269,-24 h 42.04748 l 9.64209,24 h 21.57046 L 722.18825,92 Z m 20.97404,61.5 H 699.62377 L 713.739,119 Z M 602.01,92 h -18.78718 v 102.7 h 63.02152 V 176.6 H 602.01 Z m -93.63766,0 -45.02957,102.7 h 21.47106 l 9.54269,-24 H 536.404 l 9.64209,24 h 21.47106 L 523.97862,92 Z m 21.07345,61.5 H 501.41413 L 515.52936,119 Z M 429.04873,132.3 H 384.81438 V 92 h -18.78717 v 102.7 h 18.78717 v -44.4 h 44.23435 v 44.4 H 447.8359 V 92 h -18.78717 z m -99.50243,35 c -5.56657,7.8 -13.2206,11.8 -22.8627,11.8 -22.76329,0 -33.1012,-18.1 -33.1012,-35 0,-21.2 13.91642,-36.6 33.1012,-36.6 8.25046,0 16.3021,3.8 21.07345,10 l 1.68985,2.3 15.40747,-11.8 -1.68986,-2.3 C 335.51048,95.6 321.99167,89.5 307.18062,89.5 275.86867,89.5 254,112 254,144.2 c 0,25.5 20.07941,53 52.38539,53 24.45315,0 36.58032,-15.1 38.76719,-18.2 l 1.59044,-2.3 -15.60627,-11.8 z" />
               <g id="XMLID_240_" transform="matrix(0.99986035,0,0,1,-8.4633419,0)">
                    <path id="XMLID_230_" class="st1"
                         d="m 956.4,283.3 c -8.3,0 -15.2,-3.1 -19.1,-8.5 l -2,-2.8 11.6,-9.9 2.4,3.7 c 1.5,2.3 4.3,3.7 7.4,3.7 1.9,0 6.2,-1.1 6.2,-4.6 0,-1.8 -1.4,-2.7 -7.3,-4.6 -6.9,-2.2 -17.5,-5.5 -17.5,-19.4 0,-6.9 5.7,-17.9 20.8,-17.9 2.9,0 11.6,0 17.4,7.1 l 2.3,2.8 -11.5,10.5 -2.4,-3.8 c -1,-1.6 -3.3,-2.7 -5.7,-2.7 -3.7,0 -6,1.4 -6,3.8 0,2.5 1.4,3.4 8,5.4 6.7,2 16.7,5.1 16.7,17.8 0,11.2 -9,19.4 -21.3,19.4 z M 847.6,282 v -57.9 h 40.1 v 14 h -25.6 v 7.4 h 23.8 v 14 H 862.1 V 268 H 889 v 14 z m -64.2,0 -12.8,-22.1 H 769 V 282 h -14.4 v -57.9 h 21.5 c 14.7,0 19.9,9.2 19.9,17.9 0,6.9 -4.1,12.8 -10.2,15.6 L 801,282 Z m -9.2,-35.7 c 7,0 7,-2.4 7,-4.3 0,-1.9 0,-4.3 -7,-4.3 h -5.1 v 8.5 h 5.1 z m -96.8,37 c -13.5,0 -23.3,-9.9 -23.3,-23.5 v -35.7 h 14.4 v 34.6 c 0,2.5 0.6,10.5 8.8,10.5 8.2,0 8.8,-8 8.8,-10.5 v -34.6 h 14.4 v 35.7 c 0.1,13.6 -9.7,23.5 -23.1,23.5 z M 575.1,282 V 238.1 H 559 v -14 h 46.8 v 14 H 589.6 V 282 Z m -79.9,0 -22.3,-32.9 V 282 h -14.4 v -57.9 h 14.8 l 21.9,32.8 v -32.8 h 14.5 V 282 Z m -129.7,0 v -57.9 h 40 v 14 h -25.6 v 7.4 h 23.9 v 14 h -23.9 v 8.5 h 26.9 v 14 z m -80.7,0 -22.3,-57.9 h 16.1 l 12.2,33.8 12.7,-33.8 h 15.7 L 296.4,282 Z" />
               </g>
          </g>
          <g id="XMLID_242_" transform="translate(0,0.01250305)">
               <g id="XMLID_90_">
                    <path id="XMLID_251_" class="st2"
                         d="m 204.2,128.8 -86.7,151.4 c -2.3,4.1 -8.2,4.1 -10.6,0 l -63.1,-110 c 2.9,2.5 6,4.9 9.3,6.9 7.8,4.8 15.9,8.1 23.6,9.5 l 2.6,0.5 h 0.2 c 0.6,0.1 1.3,0.1 1.9,0.2 l 0.8,0.1 4.5,0.4 h 1.2 c 0.8,0 1.6,0 2.3,-0.1 0.4,0 0.8,0 1.2,-0.1 1.4,0 2.8,-0.1 4,-0.2 h 0.2 c 2.2,-0.3 4.4,-0.7 6.6,-1.1 1.1,-0.2 2.1,-0.5 2.8,-0.7 l 2.4,-0.8 c 2.7,-1 3.6,-2.4 5.3,-4.8 4.1,-5.9 7.4,-12.3 11,-18.5 3.8,-6.5 7.6,-13.1 11.4,-19.6 4.6,-7.8 11.8,-12.6 20.8,-12.9 16,-0.6 48.3,-0.2 48.3,-0.2 z" />
                    <path id="XMLID_250_" class="st2"
                         d="m 77.7,229.3 c -2.4,-4.1 -4.8,-8.2 -7.1,-12.3 l -5.2,-9.1 -1.9,-3.3 -19.6,-34.3 z" />
                    <path id="XMLID_89_" class="st1"
                         d="m 111.2,181.9 c -11.3,17.8 -35.8,22.2 -51.4,16.4 l -16,-28 c 2.9,2.6 6,4.9 9.3,6.9 7.8,4.8 15.9,8.1 23.6,9.5 l 2.6,0.5 h 0.2 c 0.6,0.1 1.3,0.1 1.9,0.2 l 0.8,0.1 4.6,0.4 H 88 c 0.8,0 1.6,0 2.3,-0.1 h 1.2 c 1.4,0 2.7,-0.1 4,-0.2 h 0.2 c 2.2,-0.3 4.4,-0.7 6.6,-1.1 4.1,-1.1 7.9,-3.3 8.9,-4.6 z" />
               </g>
               <g id="XMLID_241_">
                    <path id="XMLID_96_"
                         d="m 203.7,114.1 h -39.3 c -7.5,0 -14.4,-4.4 -17.5,-11.3 -0.2,-0.5 -0.5,-1 -0.7,-1.6 -2,-4 -4.8,-8.5 -8.8,-12.7 l -1.1,-1.1 c -0.4,-0.4 -0.9,-0.7 -1.3,-1 -0.9,-0.7 -1.6,-1.5 -2.6,-2.1 -1.8,-1.3 -3.9,-2.5 -6,-3.6 -0.5,-0.2 -1.1,-0.5 -1.6,-0.8 -0.5,-0.3 -1.1,-0.6 -1.7,-0.7 -0.6,-0.2 -1.2,-0.4 -1.7,-0.6 -0.6,-0.2 -1.1,-0.5 -1.8,-0.6 -0.6,-0.1 -1.2,-0.3 -1.8,-0.5 l -0.9,-0.3 c -0.2,-0.1 -0.3,-0.1 -0.4,-0.1 h -0.3 c -0.4,0 -0.8,-0.1 -1.2,-0.2 -0.2,0 -0.4,-0.1 -0.6,-0.2 h -1.5 c -1.1,-0.1 -2.2,-0.1 -3.4,-0.2 l -0.9,-0.1 h -3.5 l -1,0.2 c -0.9,0.1 -1.7,0.2 -2.6,0.3 h -0.2 l -1.2,0.3 c -0.7,0.2 -1.3,0.3 -2,0.4 -0.7,0.1 -1.3,0.4 -2,0.6 l -2,0.6 c -0.6,0.3 -1.3,0.6 -1.9,0.8 l -1,0.4 -0.5,0.2 -0.5,0.3 c -0.6,0.3 -1.2,0.7 -1.9,1 l -1,0.5 -0.9,0.6 -1.8,1.2 L 84.3,84 83.9,84.3 83,85 c -0.6,0.5 -1.1,0.9 -1.7,1.3 -4.4,3.9 -8.1,8.6 -10.6,14 -0.3,0.7 -0.7,1.3 -1,2 -0.2,0.7 -0.5,1.4 -0.8,2.1 -0.7,1.6 -0.8,2.4 -1.2,3.4 l -0.3,0.8 c -0.1,0.5 -0.2,1.1 -0.2,1.7 -0.1,1.1 -0.3,2.3 -0.4,3.4 l -0.1,0.9 -0.1,0.4 v 0.2 -1 0.1 l -0.1,1.1 c -0.1,0.8 -0.1,1.5 -0.2,2.2 -0.3,6 0.3,12 1.9,17.7 1.6,5.7 4.1,11.2 7.1,16 3.1,4.8 6.7,9.3 10.5,12.7 l 1.4,1.4 c 0.5,0.4 1,0.8 1.4,1.2 1,0.8 1.9,1.6 2.8,2.3 1.9,1.4 3.8,2.6 5.5,3.8 1.7,1 3.3,1.9 4.7,2.8 0.7,0.4 1.5,0.8 2.1,1.1 0.7,0.3 1.3,0.6 1.8,0.9 1.1,0.5 1.9,0.9 2.5,1.2 0.6,0.3 0.9,0.4 0.9,0.4 0,0 -0.3,0.1 -0.9,0.4 -0.6,0.2 -1.5,0.6 -2.6,1 -0.6,0.2 -1.2,0.4 -1.9,0.7 -0.7,0.2 -1.4,0.5 -2.3,0.7 -1.8,0.4 -3.9,0.8 -6.3,1.1 -1.2,0.1 -2.4,0.2 -3.7,0.2 -1.3,0 -2.7,0.1 -4.2,0.1 -1.5,-0.1 -3,-0.3 -4.6,-0.4 -0.8,-0.1 -1.6,-0.1 -2.5,-0.3 -0.8,-0.2 -1.6,-0.3 -2.5,-0.5 -6.9,-1.2 -14.4,-4.1 -22,-8.8 -7.6,-4.7 -15,-11.6 -21,-20.4 -1.8,-2.7 -3.5,-5.5 -5,-8.5 -3.5,-7 -6,-14.8 -7.2,-23.2 -0.2,-1.5 -0.3,-3 -0.5,-4.5 l -0.2,-2.3 v -2.9 c 0,-1.1 -0.1,-2.3 -0.1,-3.4 v -1.8 l 0.2,-2.7 c 0.3,-3.5 0.6,-7.3 1.3,-10.2 l 0.9,-4.2 C 24.1,87.4 24.7,85.8 25.2,84 29.1,71.5 35.8,59.7 44.9,50 l 3.6,-3.5 1.8,-1.7 0.1,-0.1 0.8,-0.7 1,-0.8 3.9,-3.1 2,-1.5 2.1,-1.4 4.2,-2.7 1.1,-0.7 1.1,-0.6 3.5,-1.8 5.5,-2.5 c 0.7,-0.3 1.3,-0.5 2,-0.8 1.7,-0.6 3.3,-1.4 5,-1.8 1.6,-0.5 3.2,-0.9 4.8,-1.4 3.2,-1 6.5,-1.4 9.8,-2 l 2.4,-0.4 c 0.8,-0.1 1.6,-0.1 2.4,-0.2 l 4.8,-0.3 1.2,-0.1 h 1 -0.2 1.7 l 1.7,0.1 c 1.1,0 2.3,0.1 3.4,0.1 h 1.7 l 2.7,0.3 c 1.8,0.2 3.6,0.5 5.4,0.8 l 1.3,0.2 c 0.4,0.1 0.9,0.2 1.2,0.2 l 2.3,0.6 4.5,1.2 c 1.5,0.3 2.9,0.9 4.4,1.4 1.4,0.5 2.8,1.1 4.2,1.6 1.4,0.5 2.8,1.2 4.1,1.8 0.9,0.5 1.8,0.9 2.7,1.3 l 1.2,0.6 1.8,0.9 c 0,0 0.1,0 0.1,0.1 h 0.1 c 31.8,17 46.9,48.6 50.4,81 z" />
                    <path id="XMLID_91_"
                         d="m 203.7,114.1 h -39.3 c -7.5,0 -14.4,-4.4 -17.5,-11.3 -0.2,-0.5 -0.5,-1 -0.7,-1.6 -2,-4 -4.8,-8.5 -8.8,-12.7 l -1.1,-1.1 c -0.4,-0.4 -0.9,-0.7 -1.3,-1 -0.9,-0.7 -1.6,-1.5 -2.6,-2.1 -1.8,-1.3 -3.9,-2.5 -6,-3.6 -0.5,-0.2 -1.1,-0.5 -1.6,-0.8 -0.5,-0.3 -1.1,-0.6 -1.7,-0.7 -0.6,-0.2 -1.2,-0.4 -1.7,-0.6 -0.6,-0.2 -1.1,-0.5 -1.8,-0.6 -0.6,-0.1 -1.2,-0.3 -1.8,-0.5 l -0.9,-0.3 c -0.2,-0.1 -0.3,-0.1 -0.4,-0.1 h -0.3 c -0.4,0 -0.8,-0.1 -1.2,-0.2 -0.2,0 -0.4,-0.1 -0.6,-0.2 h -1.5 c -1.1,-0.1 -2.2,-0.1 -3.4,-0.2 l -0.9,-0.1 h -3.5 l -1,0.2 c -0.9,0.1 -1.7,0.2 -2.6,0.3 h -0.2 c -28.2,3.1 -63.4,28.3 -71.9,67.3 -3.5,-7 -6,-14.8 -7.2,-23.2 -0.2,-1.5 -0.3,-3 -0.5,-4.5 l -0.2,-2.3 v -2.9 c 0,-1.1 -0.1,-2.3 -0.1,-3.4 v -1.8 l 0.2,-2.7 c 0.3,-3.5 0.6,-7.3 1.3,-10.2 L 23.8,89 c 0.3,-1.8 0.9,-3.4 1.4,-5.2 C 29.1,71.5 35.8,59.7 44.9,50 l 3.6,-3.5 1.8,-1.7 0.1,-0.1 0.8,-0.7 1,-0.8 3.9,-3.1 2,-1.5 2.1,-1.4 4.2,-2.7 1.1,-0.7 1.1,-0.6 3.5,-1.8 5.5,-2.5 c 0.7,-0.3 1.3,-0.5 2,-0.8 1.7,-0.6 3.3,-1.4 5,-1.8 1.6,-0.5 3.2,-0.9 4.8,-1.4 3.2,-1 6.5,-1.4 9.8,-2 l 2.4,-0.4 c 0.8,-0.1 1.6,-0.1 2.4,-0.2 l 4.8,-0.3 1.2,-0.1 h 1 -0.2 1.7 l 1.7,0.1 c 1.1,0 2.3,0.1 3.4,0.1 h 1.7 l 2.7,0.3 c 1.8,0.2 3.6,0.5 5.4,0.8 l 1.3,0.2 c 0.4,0.1 0.9,0.2 1.2,0.2 l 2.3,0.6 4.5,1.2 c 1.5,0.3 2.9,0.9 4.4,1.4 1.4,0.5 2.8,1.1 4.2,1.6 1.4,0.5 2.8,1.2 4.1,1.8 0.9,0.5 1.8,0.9 2.7,1.3 l 1.2,0.6 1.8,0.9 c 0,0 0.1,0 0.1,0.1 h 0.1 c 31.8,17 46.9,48.6 50.4,81 z"
                         style="fill:#231f20" />
                    <path id="XMLID_88_" class="st0"
                         d="m 203.7,114.1 h -39.3 c -7.5,0 -14.4,-4.4 -17.5,-11.3 -0.2,-0.5 -0.5,-1 -0.7,-1.6 C 135,73.1 116.3,50.2 50.5,44.6 l 0.8,-0.7 1,-0.8 3.9,-3.1 2,-1.5 2.1,-1.4 4.2,-2.7 1.1,-0.7 1.1,-0.6 3.5,-1.8 5.5,-2.5 c 0.7,-0.3 1.3,-0.5 2,-0.8 1.7,-0.6 3.3,-1.4 5,-1.8 1.6,-0.5 3.2,-0.9 4.8,-1.4 3.2,-1 6.5,-1.4 9.8,-2 l 2.4,-0.4 c 0.8,-0.1 1.6,-0.1 2.4,-0.2 l 4.8,-0.3 1.2,-0.1 h 1 -0.2 1.7 l 1.7,0.1 c 1.1,0 2.3,0.1 3.4,0.1 h 1.7 l 2.7,0.3 c 1.8,0.2 3.6,0.5 5.4,0.8 l 1.3,0.2 c 0.4,0.1 0.9,0.2 1.2,0.2 l 2.3,0.6 4.5,1.2 c 1.5,0.3 2.9,0.9 4.4,1.4 1.4,0.5 2.8,1.1 4.2,1.6 1.4,0.5 2.8,1.2 4.1,1.8 0.9,0.5 1.8,0.9 2.7,1.3 l 1.2,0.6 1.8,0.9 c 0,0 0.1,0 0.1,0.1 h 0.1 c 31.7,17.1 46.8,48.7 50.3,81.1 z" />
               </g>
          </g>
     </g>
</svg>