<svg width="100%" height="100%" viewBox="0 0 1024 1024" version="1.1" xmlns="http://www.w3.org/2000/svg"
    xmlns:xlink="http://www.w3.org/1999/xlink" xml:space="preserve" xmlns:serif="http://www.serif.com/"
    style="fill-rule:evenodd;clip-rule:evenodd;stroke-linejoin:round;stroke-miterlimit:2;">
    <g transform="matrix(2.37553,0,0,2.37553,-1255.58,-1.11179)">
        <path
            d="M742.144,404.944C565.216,404.944 533.151,431.529 533.151,431.529L951.137,431.529C951.137,431.529 919.073,404.944 742.144,404.944Z"
            style="fill:rgb(22,54,92);fill-rule:nonzero;" />
        <path
            d="M742.144,98.042C704.4,98.043 666.682,103.694 654.427,114.996C634.444,133.453 624.667,163.212 616.536,188.322C605.185,223.423 597.888,259.764 593.978,296.439C590.329,330.563 582.579,372.939 582.269,431.529L902.019,431.529C901.709,372.939 893.96,330.563 890.311,296.439C886.4,259.764 879.103,223.423 867.753,188.322C859.621,163.212 849.844,133.453 829.861,114.996C817.606,103.694 779.888,98.043 742.144,98.042Z"
            style="fill:rgb(22,54,92);fill-rule:nonzero;" />
        <path
            d="M562.503,343.554L890.758,343.554L955.003,307.726L890.758,271.898L562.503,271.898C538.407,271.898 538.407,343.554 562.503,343.554Z"
            style="fill:rgb(211,127,40);fill-rule:nonzero;" />
        <path
            d="M623.17,343.554C599.074,343.554 599.074,271.898 623.17,271.898L614.133,271.898C590.038,271.898 590.038,343.554 614.133,343.554"
            style="fill:rgb(22,54,92);fill-rule:nonzero;" />
        <path
            d="M890.758,343.554C866.663,343.554 866.663,271.898 890.758,271.898L881.723,271.898C857.628,271.898 857.628,343.554 881.723,343.554"
            style="fill:rgb(22,54,92);fill-rule:nonzero;" />
        <path
            d="M827.624,94.41C825.024,51.217 803.095,22.641 772.933,11.387L772.933,76.627C795.021,81.973 804.689,92.189 827.624,94.41Z"
            style="fill:rgb(211,127,40);fill-rule:nonzero;" />
        <path
            d="M711.356,11.387C681.193,22.64 659.264,51.217 656.664,94.41C679.6,92.189 689.268,81.972 711.356,76.627L711.356,11.387Z"
            style="fill:rgb(211,127,40);fill-rule:nonzero;" />
        <path
            d="M719.668,6.923L719.668,74.971C726.047,73.957 733.4,73.346 742.144,73.346C750.889,73.346 758.242,73.957 764.622,74.971L764.622,6.923C764.622,3.358 761.732,0.468 758.167,0.468L726.122,0.468C722.557,0.468 719.668,3.358 719.668,6.923Z"
            style="fill:rgb(211,127,40);fill-rule:nonzero;" />
        <path
            d="M742.144,79.133C693.071,79.133 687.689,98.324 653.598,100.443C650.061,100.663 647.313,103.628 647.313,107.171C647.313,114.1 694.728,127.551 742.144,127.551C789.56,127.551 836.976,114.1 836.976,107.171C836.976,103.628 834.228,100.663 830.691,100.443C796.599,98.324 791.217,79.133 742.144,79.133Z"
            style="fill:rgb(211,127,40);fill-rule:nonzero;" />
        <path
            d="M742.144,287.671C741.831,288.7 734.18,313.009 710.236,313.009C664.746,313.009 685.153,216.878 742.144,216.878C799.135,216.878 819.543,313.009 774.053,313.009C750.108,313.009 742.457,288.7 742.144,287.671Z"
            style="fill:rgb(22,54,92);fill-rule:nonzero;" />
        <path
            d="M742.144,280.147C741.831,281.066 734.18,302.792 710.236,302.792C664.746,302.792 685.153,216.878 742.144,216.878C799.135,216.878 819.543,302.792 774.053,302.792C750.108,302.792 742.457,281.066 742.144,280.147Z"
            style="fill:white;fill-rule:nonzero;" />
        <path
            d="M766.139,233.32C766.139,239.502 755.396,257.2 742.144,257.2C728.892,257.2 718.149,239.502 718.149,233.32C718.149,227.138 728.892,222.126 742.144,222.126C755.396,222.126 766.139,227.138 766.139,233.32Z"
            style="fill:rgb(22,54,92);fill-rule:nonzero;" />
        <path
            d="M772.453,309.88L762.832,336.182L721.457,336.182L711.836,309.88C734.148,303.474 741.792,284.002 742.158,283.04C742.525,284.002 750.17,303.474 772.453,309.88Z"
            style="fill:rgb(22,54,92);fill-rule:nonzero;" />
        <path
            d="M742.155,306.872L739.506,327.94L724.265,327.94L718.087,309.849C733.218,306.998 739.654,297.908 742.155,291.472C744.657,297.908 751.092,306.998 766.224,309.849L760.046,327.94L744.805,327.94L742.155,306.872Z"
            style="fill:white;fill-rule:nonzero;" />
        <path
            d="M661.823,120.204C656.07,108.876 641.512,101.675 631.076,105.02C623.037,107.595 616.11,115.504 613.883,125.445C611.657,135.386 614.508,146.958 621.156,153.138C627.805,159.318 637.909,159.263 644.199,152.528C652.045,144.128 662.018,133.072 661.823,120.204Z"
            style="fill:rgb(22,54,92);fill-rule:nonzero;" />
        <path
            d="M634.409,145.367C634.409,145.367 641.882,133.552 648.793,127.524C648.793,127.524 634.742,117.565 628.083,126.483C620.121,137.147 634.409,145.367 634.409,145.367Z"
            style="fill:white;fill-rule:nonzero;" />
        <path
            d="M822.466,120.204C828.219,108.876 842.776,101.675 853.213,105.02C861.252,107.595 868.179,115.504 870.405,125.445C872.631,135.386 869.78,146.958 863.132,153.138C856.484,159.318 846.38,159.263 840.09,152.528C832.244,144.128 822.27,133.072 822.466,120.204Z"
            style="fill:rgb(22,54,92);fill-rule:nonzero;" />
        <path
            d="M849.88,145.367C849.88,145.367 842.407,133.552 835.495,127.524C835.495,127.524 849.547,117.565 856.206,126.483C864.168,137.147 849.88,145.367 849.88,145.367Z"
            style="fill:white;fill-rule:nonzero;" />
        <path
            d="M718.401,374.081C724.674,389.512 736.387,399.601 755.083,401.258C741.952,410.873 712.783,401.631 718.401,374.081Z"
            style="fill:white;fill-rule:nonzero;" />
        <path d="M613.322,165.472L613.137,199.269L619.768,204.908L613.322,165.472Z"
            style="fill:rgb(22,54,92);fill-rule:nonzero;" />
        <path d="M870.966,165.472L871.151,199.269L864.52,204.908L870.966,165.472Z"
            style="fill:rgb(22,54,92);fill-rule:nonzero;" />
        <path
            d="M706.259,230.335L640.964,230.335C631.199,230.335 622.935,224.282 621.607,216.16L613.322,165.472C611.712,155.617 620.832,146.836 632.678,146.836L714.544,146.836C726.39,146.836 735.511,155.617 733.9,165.472L725.615,216.16C724.288,224.282 716.023,230.335 706.259,230.335Z"
            style="fill:white;fill-rule:nonzero;" />
        <path
            d="M778.03,230.335L843.325,230.335C853.089,230.335 861.354,224.282 862.681,216.16L870.966,165.472C872.577,155.617 863.457,146.836 851.61,146.836L769.745,146.836C757.898,146.836 748.778,155.617 750.388,165.472L758.674,216.16C760.001,224.282 768.265,230.335 778.03,230.335Z"
            style="fill:white;fill-rule:nonzero;" />
        <path
            d="M705.543,187.43C705.543,198.475 698.71,207.428 690.281,207.428C681.852,207.428 675.019,198.475 675.019,187.43C675.019,176.386 681.852,167.432 690.281,167.432C698.71,167.432 705.543,176.386 705.543,187.43Z"
            style="fill:rgb(22,54,92);fill-rule:nonzero;" />
        <path
            d="M695.088,178.861C695.088,182.339 692.936,185.159 690.281,185.159C687.627,185.159 685.475,182.339 685.475,178.861C685.475,175.383 687.627,172.563 690.281,172.563C692.936,172.563 695.088,175.383 695.088,178.861Z"
            style="fill:white;fill-rule:nonzero;" />
        <path
            d="M777.772,187.43C777.772,198.475 784.605,207.428 793.034,207.428C801.463,207.428 808.296,198.475 808.296,187.43C808.296,176.386 801.463,167.432 793.034,167.432C784.605,167.432 777.772,176.386 777.772,187.43Z"
            style="fill:rgb(22,54,92);fill-rule:nonzero;" />
        <path
            d="M797.841,178.861C797.841,182.339 795.688,185.159 793.034,185.159C790.38,185.159 788.227,182.339 788.227,178.861C788.227,175.383 790.38,172.563 793.034,172.563C795.688,172.563 797.841,175.383 797.841,178.861Z"
            style="fill:white;fill-rule:nonzero;" />
    </g>
</svg>