<svg width="100%" height="100%" viewBox="0 0 4415 740" version="1.1" xmlns="http://www.w3.org/2000/svg"
    xmlns:xlink="http://www.w3.org/1999/xlink" xml:space="preserve" xmlns:serif="http://www.serif.com/"
    style="fill-rule:evenodd;clip-rule:evenodd;stroke-linejoin:round;stroke-miterlimit:2;">
    <g transform="matrix(1.75061,0,0,1.71321,-1225.84,0.698217)">
        <g transform="matrix(1,0,0,1,167.084,0.000659196)">
            <path
                d="M742.144,404.944C565.216,404.944 533.151,431.529 533.151,431.529L951.137,431.529C951.137,431.529 919.073,404.944 742.144,404.944Z"
                style="fill:rgb(22,54,92);fill-rule:nonzero;" />
        </g>
        <g transform="matrix(1,0,0,1,167.084,0.000659196)">
            <path
                d="M742.144,98.042C704.4,98.043 666.682,103.694 654.427,114.996C634.444,133.453 624.667,163.212 616.536,188.322C605.185,223.423 597.888,259.764 593.978,296.439C590.329,330.563 582.579,372.939 582.269,431.529L902.019,431.529C901.709,372.939 893.96,330.563 890.311,296.439C886.4,259.764 879.103,223.423 867.753,188.322C859.621,163.212 849.844,133.453 829.861,114.996C817.606,103.694 779.888,98.043 742.144,98.042Z"
                style="fill:rgb(22,54,92);fill-rule:nonzero;" />
        </g>
        <g transform="matrix(1,0,0,1,167.084,0.000659196)">
            <path
                d="M562.503,343.554L890.758,343.554L955.003,307.726L890.758,271.898L562.503,271.898C538.407,271.898 538.407,343.554 562.503,343.554Z"
                style="fill:rgb(211,127,40);fill-rule:nonzero;" />
        </g>
        <g transform="matrix(1,0,0,1,167.084,0.000659196)">
            <path
                d="M623.17,343.554C599.074,343.554 599.074,271.898 623.17,271.898L614.133,271.898C590.038,271.898 590.038,343.554 614.133,343.554"
                style="fill:rgb(22,54,92);fill-rule:nonzero;" />
        </g>
        <g transform="matrix(1,0,0,1,167.084,0.000659196)">
            <path
                d="M890.758,343.554C866.663,343.554 866.663,271.898 890.758,271.898L881.723,271.898C857.628,271.898 857.628,343.554 881.723,343.554"
                style="fill:rgb(22,54,92);fill-rule:nonzero;" />
        </g>
        <g transform="matrix(1,0,0,1,167.084,0.000659196)">
            <path
                d="M827.624,94.41C825.024,51.217 803.095,22.641 772.933,11.387L772.933,76.627C795.021,81.973 804.689,92.189 827.624,94.41Z"
                style="fill:rgb(211,127,40);fill-rule:nonzero;" />
        </g>
        <g transform="matrix(1,0,0,1,167.084,0.000659196)">
            <path
                d="M711.356,11.387C681.193,22.64 659.264,51.217 656.664,94.41C679.6,92.189 689.268,81.972 711.356,76.627L711.356,11.387Z"
                style="fill:rgb(211,127,40);fill-rule:nonzero;" />
        </g>
        <g transform="matrix(1,0,0,1,167.084,0.000659196)">
            <path
                d="M719.668,6.923L719.668,74.971C726.047,73.957 733.4,73.346 742.144,73.346C750.889,73.346 758.242,73.957 764.622,74.971L764.622,6.923C764.622,3.358 761.732,0.468 758.167,0.468L726.122,0.468C722.557,0.468 719.668,3.358 719.668,6.923Z"
                style="fill:rgb(211,127,40);fill-rule:nonzero;" />
        </g>
        <g transform="matrix(1,0,0,1,167.084,0.000659196)">
            <path
                d="M742.144,79.133C693.071,79.133 687.689,98.324 653.598,100.443C650.061,100.663 647.313,103.628 647.313,107.171C647.313,114.1 694.728,127.551 742.144,127.551C789.56,127.551 836.976,114.1 836.976,107.171C836.976,103.628 834.228,100.663 830.691,100.443C796.599,98.324 791.217,79.133 742.144,79.133Z"
                style="fill:rgb(211,127,40);fill-rule:nonzero;" />
        </g>
        <g transform="matrix(1,0,0,1,167.084,0.000659196)">
            <path
                d="M742.144,287.671C741.831,288.7 734.18,313.009 710.236,313.009C664.746,313.009 685.153,216.878 742.144,216.878C799.135,216.878 819.543,313.009 774.053,313.009C750.108,313.009 742.457,288.7 742.144,287.671Z"
                style="fill:rgb(22,54,92);fill-rule:nonzero;" />
        </g>
        <g transform="matrix(1,0,0,1,167.084,0.000659196)">
            <path
                d="M742.144,280.147C741.831,281.066 734.18,302.792 710.236,302.792C664.746,302.792 685.153,216.878 742.144,216.878C799.135,216.878 819.543,302.792 774.053,302.792C750.108,302.792 742.457,281.066 742.144,280.147Z"
                style="fill:white;fill-rule:nonzero;" />
        </g>
        <g transform="matrix(1,0,0,1,167.084,0.000659196)">
            <path
                d="M766.139,233.32C766.139,239.502 755.396,257.2 742.144,257.2C728.892,257.2 718.149,239.502 718.149,233.32C718.149,227.138 728.892,222.126 742.144,222.126C755.396,222.126 766.139,227.138 766.139,233.32Z"
                style="fill:rgb(22,54,92);fill-rule:nonzero;" />
        </g>
        <g transform="matrix(1,0,0,1,167.084,0.000659196)">
            <path
                d="M772.453,309.88L762.832,336.182L721.457,336.182L711.836,309.88C734.148,303.474 741.792,284.002 742.158,283.04C742.525,284.002 750.17,303.474 772.453,309.88Z"
                style="fill:rgb(22,54,92);fill-rule:nonzero;" />
        </g>
        <g transform="matrix(1,0,0,1,167.084,0.000659196)">
            <path
                d="M742.155,306.872L739.506,327.94L724.265,327.94L718.087,309.849C733.218,306.998 739.654,297.908 742.155,291.472C744.657,297.908 751.092,306.998 766.224,309.849L760.046,327.94L744.805,327.94L742.155,306.872Z"
                style="fill:white;fill-rule:nonzero;" />
        </g>
        <g transform="matrix(1,0,0,1,167.084,0.000659196)">
            <path
                d="M661.823,120.204C656.07,108.876 641.512,101.675 631.076,105.02C623.037,107.595 616.11,115.504 613.883,125.445C611.657,135.386 614.508,146.958 621.156,153.138C627.805,159.318 637.909,159.263 644.199,152.528C652.045,144.128 662.018,133.072 661.823,120.204Z"
                style="fill:rgb(22,54,92);fill-rule:nonzero;" />
        </g>
        <g transform="matrix(1,0,0,1,167.084,0.000659196)">
            <path
                d="M634.409,145.367C634.409,145.367 641.882,133.552 648.793,127.524C648.793,127.524 634.742,117.565 628.083,126.483C620.121,137.147 634.409,145.367 634.409,145.367Z"
                style="fill:white;fill-rule:nonzero;" />
        </g>
        <g transform="matrix(1,0,0,1,167.084,0.000659196)">
            <path
                d="M822.466,120.204C828.219,108.876 842.776,101.675 853.213,105.02C861.252,107.595 868.179,115.504 870.405,125.445C872.631,135.386 869.78,146.958 863.132,153.138C856.484,159.318 846.38,159.263 840.09,152.528C832.244,144.128 822.27,133.072 822.466,120.204Z"
                style="fill:rgb(22,54,92);fill-rule:nonzero;" />
        </g>
        <g transform="matrix(1,0,0,1,167.084,0.000659196)">
            <path
                d="M849.88,145.367C849.88,145.367 842.407,133.552 835.495,127.524C835.495,127.524 849.547,117.565 856.206,126.483C864.168,137.147 849.88,145.367 849.88,145.367Z"
                style="fill:white;fill-rule:nonzero;" />
        </g>
        <g transform="matrix(1,0,0,1,167.084,0.000659196)">
            <path
                d="M718.401,374.081C724.674,389.512 736.387,399.601 755.083,401.258C741.952,410.873 712.783,401.631 718.401,374.081Z"
                style="fill:white;fill-rule:nonzero;" />
        </g>
        <g transform="matrix(1,0,0,1,167.084,0.000659196)">
            <path d="M613.322,165.472L613.137,199.269L619.768,204.908L613.322,165.472Z"
                style="fill:rgb(22,54,92);fill-rule:nonzero;" />
        </g>
        <g transform="matrix(1,0,0,1,167.084,0.000659196)">
            <path d="M870.966,165.472L871.151,199.269L864.52,204.908L870.966,165.472Z"
                style="fill:rgb(22,54,92);fill-rule:nonzero;" />
        </g>
        <g transform="matrix(1,0,0,1,167.084,0.000659196)">
            <path
                d="M706.259,230.335L640.964,230.335C631.199,230.335 622.935,224.282 621.607,216.16L613.322,165.472C611.712,155.617 620.832,146.836 632.678,146.836L714.544,146.836C726.39,146.836 735.511,155.617 733.9,165.472L725.615,216.16C724.288,224.282 716.023,230.335 706.259,230.335Z"
                style="fill:white;fill-rule:nonzero;" />
        </g>
        <g transform="matrix(1,0,0,1,167.084,0.000659196)">
            <path
                d="M778.03,230.335L843.325,230.335C853.089,230.335 861.354,224.282 862.681,216.16L870.966,165.472C872.577,155.617 863.457,146.836 851.61,146.836L769.745,146.836C757.898,146.836 748.778,155.617 750.388,165.472L758.674,216.16C760.001,224.282 768.265,230.335 778.03,230.335Z"
                style="fill:white;fill-rule:nonzero;" />
        </g>
        <g transform="matrix(1,0,0,1,167.084,0.000659196)">
            <path
                d="M705.543,187.43C705.543,198.475 698.71,207.428 690.281,207.428C681.852,207.428 675.019,198.475 675.019,187.43C675.019,176.386 681.852,167.432 690.281,167.432C698.71,167.432 705.543,176.386 705.543,187.43Z"
                style="fill:rgb(22,54,92);fill-rule:nonzero;" />
        </g>
        <g transform="matrix(1,0,0,1,167.084,0.000659196)">
            <path
                d="M695.088,178.861C695.088,182.339 692.936,185.159 690.281,185.159C687.627,185.159 685.475,182.339 685.475,178.861C685.475,175.383 687.627,172.563 690.281,172.563C692.936,172.563 695.088,175.383 695.088,178.861Z"
                style="fill:white;fill-rule:nonzero;" />
        </g>
        <g transform="matrix(1,0,0,1,167.084,0.000659196)">
            <path
                d="M777.772,187.43C777.772,198.475 784.605,207.428 793.034,207.428C801.463,207.428 808.296,198.475 808.296,187.43C808.296,176.386 801.463,167.432 793.034,167.432C784.605,167.432 777.772,176.386 777.772,187.43Z"
                style="fill:rgb(22,54,92);fill-rule:nonzero;" />
        </g>
        <g transform="matrix(1,0,0,1,167.084,0.000659196)">
            <path
                d="M797.841,178.861C797.841,182.339 795.688,185.159 793.034,185.159C790.38,185.159 788.227,182.339 788.227,178.861C788.227,175.383 790.38,172.563 793.034,172.563C795.688,172.563 797.841,175.383 797.841,178.861Z"
                style="fill:white;fill-rule:nonzero;" />
        </g>
    </g>
    <g transform="matrix(2.37517,0,0,2.37517,587.584,-931.681)">
        <g transform="matrix(1,0,0,1,123.149,0.000475478)">
            <path
                d="M22.384,529.799L0,529.799L0,509.817L70.539,509.817L70.539,529.799L48.155,529.799L48.155,586.253L22.384,586.253L22.384,529.799Z"
                style="fill:white;fill-rule:nonzero;" />
        </g>
        <g transform="matrix(1,0,0,1,123.149,0.000475478)">
            <path
                d="M133.335,548.036C133.335,536.132 125.691,528.926 116.191,528.926C106.691,528.926 99.048,536.132 99.048,548.036C99.048,559.938 106.691,567.144 116.191,567.144C125.691,567.144 133.335,559.938 133.335,548.036ZM73.059,548.036C73.059,524.886 91.294,508.071 116.191,508.071C141.087,508.071 159.323,524.886 159.323,548.036C159.323,571.184 141.087,588 116.191,588C91.294,588 73.059,571.184 73.059,548.036Z"
                style="fill:white;fill-rule:nonzero;" />
        </g>
        <g transform="matrix(1,0,0,1,123.149,0.000475478)">
            <path
                d="M214.367,538.644C214.367,533.077 210.983,529.69 203.885,529.69L194.494,529.69L194.494,547.598L203.885,547.598C210.983,547.598 214.367,544.213 214.367,538.644ZM240.356,538.644C240.356,556.335 226.816,567.472 205.523,567.472L194.494,567.472L194.494,586.253L168.725,586.253L168.725,509.817L205.523,509.817C226.816,509.817 240.356,520.956 240.356,538.644Z"
                style="fill:white;fill-rule:nonzero;" />
        </g>
        <g transform="matrix(1,0,0,1,123.149,0.000475478)">
            <path
                d="M263.734,529.799L241.349,529.799L241.349,509.817L311.889,509.817L311.889,529.799L289.504,529.799L289.504,586.253L263.734,586.253L263.734,529.799Z"
                style="fill:white;fill-rule:nonzero;" />
        </g>
        <g transform="matrix(1,0,0,1,123.149,0.000475478)">
            <path
                d="M353.718,529.69L344.328,529.69L344.328,547.598L353.718,547.598C360.816,547.598 364.201,544.213 364.201,538.644C364.201,533.077 360.816,529.69 353.718,529.69ZM351.316,567.035L344.328,567.035L344.328,586.253L318.558,586.253L318.558,509.817L355.357,509.817C376.649,509.817 390.189,520.956 390.189,538.644C390.189,549.673 384.948,557.972 375.776,562.668L391.827,586.253L364.31,586.253L351.316,567.035Z"
                style="fill:white;fill-rule:nonzero;" />
        </g>
        <g transform="matrix(1,0,0,1,123.149,0.000475478)">
            <path
                d="M444.904,554.369L437.479,535.15L430.054,554.369L444.904,554.369ZM452.002,572.932L422.956,572.932L417.825,586.253L391.618,586.253L425.031,509.817L450.364,509.817L483.779,586.253L457.135,586.253L452.002,572.932Z"
                style="fill:white;fill-rule:nonzero;" />
        </g>
        <g transform="matrix(1,0,0,1,123.149,0.000475478)">
            <path
                d="M524.519,566.162C535.33,566.162 542.755,559.719 542.755,548.036C542.755,536.351 535.33,529.91 524.519,529.91L513.709,529.91L513.709,566.162L524.519,566.162ZM487.94,509.817L525.612,509.817C551.163,509.817 568.744,524.34 568.744,548.036C568.744,571.73 551.163,586.253 525.612,586.253L487.94,586.253L487.94,509.817Z"
                style="fill:white;fill-rule:nonzero;" />
        </g>
        <g transform="matrix(1,0,0,1,123.149,0.000475478)">
            <path
                d="M641.695,566.817L641.695,586.253L578.145,586.253L578.145,509.817L640.276,509.817L640.276,529.253L603.477,529.253L603.477,538.208L635.799,538.208L635.799,556.771L603.477,556.771L603.477,566.817L641.695,566.817Z"
                style="fill:white;fill-rule:nonzero;" />
        </g>
        <g transform="matrix(1,0,0,1,123.149,0.000475478)">
            <path
                d="M646.834,580.138L655.134,561.357C662.34,565.615 671.949,568.345 680.357,568.345C687.673,568.345 690.294,566.817 690.294,564.196C690.294,554.586 648.036,562.34 648.036,533.84C648.036,519.645 659.938,508.071 683.633,508.071C693.897,508.071 704.489,510.253 712.461,514.731L704.707,533.404C697.173,529.582 690.076,527.725 683.415,527.725C675.88,527.725 673.478,529.91 673.478,532.53C673.478,541.702 715.736,534.059 715.736,562.23C715.736,576.208 703.834,588 680.138,588C667.363,588 654.478,584.834 646.834,580.138Z"
                style="fill:white;fill-rule:nonzero;" />
        </g>
        <g transform="matrix(1,0,0,1,123.149,0.000475478)">
            <path
                d="M720.332,548.036C720.332,524.559 738.349,508.071 762.917,508.071C777.877,508.071 789.669,513.531 797.205,523.357L780.934,537.88C776.458,532.202 771.107,528.926 764.227,528.926C753.527,528.926 746.32,536.351 746.32,548.036C746.32,559.719 753.527,567.144 764.227,567.144C771.107,567.144 776.458,563.869 780.934,558.19L797.205,572.713C789.669,582.541 777.877,588 762.917,588C738.349,588 720.332,571.512 720.332,548.036Z"
                style="fill:white;fill-rule:nonzero;" />
        </g>
        <g transform="matrix(1,0,0,1,123.149,0.000475478)">
            <path
                d="M879.983,509.817L879.983,586.253L854.214,586.253L854.214,558.081L830.41,558.081L830.41,586.253L804.64,586.253L804.64,509.817L830.41,509.817L830.41,536.898L854.214,536.898L854.214,509.817L879.983,509.817Z"
                style="fill:white;fill-rule:nonzero;" />
        </g>
        <g transform="matrix(1,0,0,1,123.149,0.000475478)">
            <path
                d="M949.658,548.036C949.658,536.132 942.014,528.926 932.516,528.926C923.015,528.926 915.372,536.132 915.372,548.036C915.372,559.938 923.015,567.144 932.516,567.144C942.014,567.144 949.658,559.938 949.658,548.036ZM889.383,548.036C889.383,524.886 907.62,508.071 932.516,508.071C957.412,508.071 975.646,524.886 975.646,548.036C975.646,571.184 957.412,588 932.516,588C907.62,588 889.383,571.184 889.383,548.036Z"
                style="fill:white;fill-rule:nonzero;" />
        </g>
        <g transform="matrix(1,0,0,1,123.149,0.000475478)">
            <path
                d="M1042.27,548.036C1042.27,536.132 1034.62,528.926 1025.12,528.926C1015.62,528.926 1007.98,536.132 1007.98,548.036C1007.98,559.938 1015.62,567.144 1025.12,567.144C1034.62,567.144 1042.27,559.938 1042.27,548.036ZM981.992,548.036C981.992,524.886 1000.23,508.071 1025.12,508.071C1050.02,508.071 1068.25,524.886 1068.25,548.036C1068.25,571.184 1050.02,588 1025.12,588C1000.23,588 981.992,571.184 981.992,548.036Z"
                style="fill:white;fill-rule:nonzero;" />
        </g>
        <g transform="matrix(1,0,0,1,123.149,0.000475478)">
            <path
                d="M1077.66,509.817L1103.43,509.817L1103.43,566.271L1137.93,566.271L1137.93,586.253L1077.66,586.253L1077.66,509.817Z"
                style="fill:white;fill-rule:nonzero;" />
        </g>
        <g transform="matrix(1,0,0,1,123.149,0.000475478)">
            <path
                d="M1140.23,580.138L1148.53,561.357C1155.74,565.615 1165.34,568.345 1173.75,568.345C1181.07,568.345 1183.69,566.817 1183.69,564.196C1183.69,554.586 1141.43,562.34 1141.43,533.84C1141.43,519.645 1153.33,508.071 1177.03,508.071C1187.29,508.071 1197.89,510.253 1205.86,514.731L1198.1,533.404C1190.57,529.582 1183.47,527.725 1176.81,527.725C1169.28,527.725 1166.87,529.91 1166.87,532.53C1166.87,541.702 1209.13,534.059 1209.13,562.23C1209.13,576.208 1197.23,588 1173.53,588C1160.76,588 1147.87,584.834 1140.23,580.138Z"
                style="fill:white;fill-rule:nonzero;" />
        </g>
        <g transform="matrix(1,0,0,1,123.149,0.000475478)">
            <path
                d="M1229.34,579.92C1229.34,584.178 1226.39,587.236 1222.46,587.236C1218.53,587.236 1215.58,584.178 1215.58,579.92C1215.58,575.771 1218.53,572.823 1222.46,572.823C1226.39,572.823 1229.34,575.771 1229.34,579.92Z"
                style="fill:white;fill-rule:nonzero;" />
        </g>
        <g transform="matrix(1,0,0,1,123.149,0.000475478)">
            <path
                d="M1307.31,521.283L1299.77,530.673C1294.21,524.668 1286.23,520.956 1278.48,520.956C1263.19,520.956 1251.18,532.748 1251.18,547.817C1251.18,562.886 1263.19,574.788 1278.48,574.788C1286.12,574.788 1293.99,571.294 1299.77,565.725L1307.42,574.242C1299.67,581.886 1288.64,586.799 1277.82,586.799C1255.44,586.799 1238.08,569.875 1238.08,547.926C1238.08,526.196 1255.66,509.49 1278.26,509.49C1289.07,509.49 1299.88,513.968 1307.31,521.283Z"
                style="fill:white;fill-rule:nonzero;" />
        </g>
        <g transform="matrix(1,0,0,1,123.149,0.000475478)">
            <path
                d="M1325.66,548.036C1325.66,563.213 1338.22,575.224 1353.18,575.224C1368.14,575.224 1380.37,563.213 1380.37,548.036C1380.37,532.857 1368.14,521.065 1353.18,521.065C1338.11,521.065 1325.66,532.857 1325.66,548.036ZM1393.58,548.036C1393.58,569.875 1375.89,586.799 1353.07,586.799C1330.25,586.799 1312.56,569.875 1312.56,548.036C1312.56,526.087 1330.25,509.49 1353.07,509.49C1375.89,509.49 1393.58,526.196 1393.58,548.036Z"
                style="fill:white;fill-rule:nonzero;" />
        </g>
        <g transform="matrix(1,0,0,1,123.149,0.000475478)">
            <path
                d="M1476.25,586.253L1476.14,529.144L1452.01,578.282L1443.6,578.282L1419.47,529.144L1419.47,586.253L1407.35,586.253L1407.35,509.817L1422.64,509.817L1447.86,560.592L1472.98,509.817L1488.15,509.817L1488.15,586.253L1476.25,586.253Z"
                style="fill:white;fill-rule:nonzero;" />
        </g>
    </g>
</svg>