<svg width="100%" height="100%" viewBox="0 0 1024 55" version="1.1" xmlns="http://www.w3.org/2000/svg"
    xmlns:xlink="http://www.w3.org/1999/xlink" xml:space="preserve" xmlns:serif="http://www.serif.com/"
    style="fill-rule:evenodd;clip-rule:evenodd;stroke-linejoin:round;stroke-miterlimit:2;">
    <g transform="matrix(0.688111,0,0,0.688111,0,-349.609)">
        <path
            d="M22.384,529.799L0,529.799L0,509.817L70.539,509.817L70.539,529.799L48.155,529.799L48.155,586.253L22.384,586.253L22.384,529.799Z"
            style="fill:rgb(22,54,92);fill-rule:nonzero;" />
        <path
            d="M133.335,548.036C133.335,536.132 125.691,528.926 116.191,528.926C106.691,528.926 99.048,536.132 99.048,548.036C99.048,559.938 106.691,567.144 116.191,567.144C125.691,567.144 133.335,559.938 133.335,548.036ZM73.059,548.036C73.059,524.886 91.294,508.071 116.191,508.071C141.087,508.071 159.323,524.886 159.323,548.036C159.323,571.184 141.087,588 116.191,588C91.294,588 73.059,571.184 73.059,548.036Z"
            style="fill:rgb(22,54,92);fill-rule:nonzero;" />
        <path
            d="M214.367,538.644C214.367,533.077 210.983,529.69 203.885,529.69L194.494,529.69L194.494,547.598L203.885,547.598C210.983,547.598 214.367,544.213 214.367,538.644ZM240.356,538.644C240.356,556.335 226.816,567.472 205.523,567.472L194.494,567.472L194.494,586.253L168.725,586.253L168.725,509.817L205.523,509.817C226.816,509.817 240.356,520.956 240.356,538.644Z"
            style="fill:rgb(22,54,92);fill-rule:nonzero;" />
        <path
            d="M263.734,529.799L241.349,529.799L241.349,509.817L311.889,509.817L311.889,529.799L289.504,529.799L289.504,586.253L263.734,586.253L263.734,529.799Z"
            style="fill:rgb(22,54,92);fill-rule:nonzero;" />
        <path
            d="M353.718,529.69L344.328,529.69L344.328,547.598L353.718,547.598C360.816,547.598 364.201,544.213 364.201,538.644C364.201,533.077 360.816,529.69 353.718,529.69ZM351.316,567.035L344.328,567.035L344.328,586.253L318.558,586.253L318.558,509.817L355.357,509.817C376.649,509.817 390.189,520.956 390.189,538.644C390.189,549.673 384.948,557.972 375.776,562.668L391.827,586.253L364.31,586.253L351.316,567.035Z"
            style="fill:rgb(22,54,92);fill-rule:nonzero;" />
        <path
            d="M444.904,554.369L437.479,535.15L430.054,554.369L444.904,554.369ZM452.002,572.932L422.956,572.932L417.825,586.253L391.618,586.253L425.031,509.817L450.364,509.817L483.779,586.253L457.135,586.253L452.002,572.932Z"
            style="fill:rgb(22,54,92);fill-rule:nonzero;" />
        <path
            d="M524.519,566.162C535.33,566.162 542.755,559.719 542.755,548.036C542.755,536.351 535.33,529.91 524.519,529.91L513.709,529.91L513.709,566.162L524.519,566.162ZM487.94,509.817L525.612,509.817C551.163,509.817 568.744,524.34 568.744,548.036C568.744,571.73 551.163,586.253 525.612,586.253L487.94,586.253L487.94,509.817Z"
            style="fill:rgb(22,54,92);fill-rule:nonzero;" />
        <path
            d="M641.695,566.817L641.695,586.253L578.145,586.253L578.145,509.817L640.276,509.817L640.276,529.253L603.477,529.253L603.477,538.208L635.799,538.208L635.799,556.771L603.477,556.771L603.477,566.817L641.695,566.817Z"
            style="fill:rgb(22,54,92);fill-rule:nonzero;" />
        <path
            d="M646.834,580.138L655.134,561.357C662.34,565.615 671.949,568.345 680.357,568.345C687.673,568.345 690.294,566.817 690.294,564.196C690.294,554.586 648.036,562.34 648.036,533.84C648.036,519.645 659.938,508.071 683.633,508.071C693.897,508.071 704.489,510.253 712.461,514.731L704.707,533.404C697.173,529.582 690.076,527.725 683.415,527.725C675.88,527.725 673.478,529.91 673.478,532.53C673.478,541.702 715.736,534.059 715.736,562.23C715.736,576.208 703.834,588 680.138,588C667.363,588 654.478,584.834 646.834,580.138Z"
            style="fill:rgb(22,54,92);fill-rule:nonzero;" />
        <path
            d="M720.332,548.036C720.332,524.559 738.349,508.071 762.917,508.071C777.877,508.071 789.669,513.531 797.205,523.357L780.934,537.88C776.458,532.202 771.107,528.926 764.227,528.926C753.527,528.926 746.32,536.351 746.32,548.036C746.32,559.719 753.527,567.144 764.227,567.144C771.107,567.144 776.458,563.869 780.934,558.19L797.205,572.713C789.669,582.541 777.877,588 762.917,588C738.349,588 720.332,571.512 720.332,548.036Z"
            style="fill:rgb(22,54,92);fill-rule:nonzero;" />
        <path
            d="M879.983,509.817L879.983,586.253L854.214,586.253L854.214,558.081L830.41,558.081L830.41,586.253L804.64,586.253L804.64,509.817L830.41,509.817L830.41,536.898L854.214,536.898L854.214,509.817L879.983,509.817Z"
            style="fill:rgb(22,54,92);fill-rule:nonzero;" />
        <path
            d="M949.658,548.036C949.658,536.132 942.014,528.926 932.516,528.926C923.015,528.926 915.372,536.132 915.372,548.036C915.372,559.938 923.015,567.144 932.516,567.144C942.014,567.144 949.658,559.938 949.658,548.036ZM889.383,548.036C889.383,524.886 907.62,508.071 932.516,508.071C957.412,508.071 975.646,524.886 975.646,548.036C975.646,571.184 957.412,588 932.516,588C907.62,588 889.383,571.184 889.383,548.036Z"
            style="fill:rgb(22,54,92);fill-rule:nonzero;" />
        <path
            d="M1042.27,548.036C1042.27,536.132 1034.62,528.926 1025.12,528.926C1015.62,528.926 1007.98,536.132 1007.98,548.036C1007.98,559.938 1015.62,567.144 1025.12,567.144C1034.62,567.144 1042.27,559.938 1042.27,548.036ZM981.992,548.036C981.992,524.886 1000.23,508.071 1025.12,508.071C1050.02,508.071 1068.25,524.886 1068.25,548.036C1068.25,571.184 1050.02,588 1025.12,588C1000.23,588 981.992,571.184 981.992,548.036Z"
            style="fill:rgb(22,54,92);fill-rule:nonzero;" />
        <path
            d="M1077.66,509.817L1103.43,509.817L1103.43,566.271L1137.93,566.271L1137.93,586.253L1077.66,586.253L1077.66,509.817Z"
            style="fill:rgb(22,54,92);fill-rule:nonzero;" />
        <path
            d="M1140.23,580.138L1148.53,561.357C1155.74,565.615 1165.34,568.345 1173.75,568.345C1181.07,568.345 1183.69,566.817 1183.69,564.196C1183.69,554.586 1141.43,562.34 1141.43,533.84C1141.43,519.645 1153.33,508.071 1177.03,508.071C1187.29,508.071 1197.89,510.253 1205.86,514.731L1198.1,533.404C1190.57,529.582 1183.47,527.725 1176.81,527.725C1169.28,527.725 1166.87,529.91 1166.87,532.53C1166.87,541.702 1209.13,534.059 1209.13,562.23C1209.13,576.208 1197.23,588 1173.53,588C1160.76,588 1147.87,584.834 1140.23,580.138Z"
            style="fill:rgb(22,54,92);fill-rule:nonzero;" />
        <path
            d="M1229.34,579.92C1229.34,584.178 1226.39,587.236 1222.46,587.236C1218.53,587.236 1215.58,584.178 1215.58,579.92C1215.58,575.771 1218.53,572.823 1222.46,572.823C1226.39,572.823 1229.34,575.771 1229.34,579.92Z"
            style="fill:rgb(22,54,92);fill-rule:nonzero;" />
        <path
            d="M1307.31,521.283L1299.77,530.673C1294.21,524.668 1286.23,520.956 1278.48,520.956C1263.19,520.956 1251.18,532.748 1251.18,547.817C1251.18,562.886 1263.19,574.788 1278.48,574.788C1286.12,574.788 1293.99,571.294 1299.77,565.725L1307.42,574.242C1299.67,581.886 1288.64,586.799 1277.82,586.799C1255.44,586.799 1238.08,569.875 1238.08,547.926C1238.08,526.196 1255.66,509.49 1278.26,509.49C1289.07,509.49 1299.88,513.968 1307.31,521.283Z"
            style="fill:rgb(22,54,92);fill-rule:nonzero;" />
        <path
            d="M1325.66,548.036C1325.66,563.213 1338.22,575.224 1353.18,575.224C1368.14,575.224 1380.37,563.213 1380.37,548.036C1380.37,532.857 1368.14,521.065 1353.18,521.065C1338.11,521.065 1325.66,532.857 1325.66,548.036ZM1393.58,548.036C1393.58,569.875 1375.89,586.799 1353.07,586.799C1330.25,586.799 1312.56,569.875 1312.56,548.036C1312.56,526.087 1330.25,509.49 1353.07,509.49C1375.89,509.49 1393.58,526.196 1393.58,548.036Z"
            style="fill:rgb(22,54,92);fill-rule:nonzero;" />
        <path
            d="M1476.25,586.253L1476.14,529.144L1452.01,578.282L1443.6,578.282L1419.47,529.144L1419.47,586.253L1407.35,586.253L1407.35,509.817L1422.64,509.817L1447.86,560.592L1472.98,509.817L1488.15,509.817L1488.15,586.253L1476.25,586.253Z"
            style="fill:rgb(22,54,92);fill-rule:nonzero;" />
    </g>
</svg>