<?xml version="1.0" standalone="no"?>
<!DOCTYPE svg PUBLIC "-//W3C//DTD SVG 20010904//EN"
 "http://www.w3.org/TR/2001/REC-SVG-20010904/DTD/svg10.dtd">
<svg version="1.0" xmlns="http://www.w3.org/2000/svg"
 width="512.000000pt" height="512.000000pt" viewBox="0 0 512.000000 512.000000"
 preserveAspectRatio="xMidYMid meet">

<g transform="translate(0.000000,512.000000) scale(0.100000,-0.100000)"
fill="#000000" stroke="none">
<path d="M2454 4830 c-39 -13 -78 -35 -108 -61 -48 -43 -106 -130 -106 -161 0
-16 -11 -18 -95 -18 -156 0 -205 -36 -205 -149 l0 -61 -119 0 -118 0 -7 63
c-7 70 -27 104 -77 130 -32 16 -71 17 -544 14 -565 -3 -558 -3 -700 -72 -134
-66 -238 -172 -305 -310 -67 -139 -72 -181 -68 -686 l3 -444 28 -80 c32 -89
89 -190 113 -199 26 -10 59 -7 81 9 36 25 34 60 -8 140 -52 99 -73 188 -66
290 5 69 13 102 42 183 4 10 20 1 52 -28 55 -48 183 -113 268 -136 44 -12 127
-17 313 -21 l252 -6 0 -273 0 -274 -238 0 c-182 0 -250 4 -292 15 -100 28
-123 29 -148 5 -35 -33 -27 -87 16 -116 63 -43 150 -54 416 -54 l246 0 2 -948
3 -949 30 -48 c22 -36 45 -57 84 -77 l53 -28 1083 0 1082 0 7 -62 c7 -70 23
-100 69 -129 31 -19 48 -19 552 -17 l520 3 80 27 c189 64 329 188 411 363 61
132 66 179 62 676 l-3 444 -28 80 c-74 207 -231 365 -430 432 -80 26 -89 27
-349 31 l-268 3 0 228 c0 225 0 228 -23 249 -33 31 -80 29 -106 -4 -21 -27
-21 -32 -21 -850 l0 -824 -182 0 c-164 0 -186 -2 -215 -20 -64 -39 -68 -53
-71 -277 l-4 -203 -1072 0 -1073 0 -21 23 -22 23 0 1527 0 1526 195 3 195 3
31 31 c42 42 48 81 49 287 l0 178 118 -3 117 -3 5 -81 c5 -88 18 -112 72 -140
40 -21 1056 -21 1096 0 54 28 67 52 72 140 l5 81 326 3 c317 2 327 2 352 -19
l27 -20 0 -544 c0 -383 3 -551 11 -569 23 -51 103 -55 128 -7 8 13 11 203 11
578 0 520 -2 561 -19 598 -21 45 -61 89 -106 113 -26 15 -77 17 -382 20 l-353
3 0 57 c0 115 -50 152 -205 152 -84 0 -95 2 -95 18 0 31 -58 118 -106 161 -52
46 -148 81 -218 80 -22 0 -68 -9 -102 -19z m182 -149 c50 -23 86 -68 108 -138
27 -81 56 -97 184 -101 l102 -4 0 -149 0 -149 -470 0 -470 0 0 150 0 150 90 0
c134 0 170 20 200 115 27 86 100 145 180 145 19 0 54 -9 76 -19z m-1088 -523
l2 -278 -74 0 -74 0 -4 96 c-3 86 -5 98 -27 115 -30 25 -76 24 -101 -1 -17
-17 -20 -33 -20 -115 l0 -95 -80 0 -80 0 0 92 c0 80 -3 95 -22 115 -30 33 -80
31 -107 -3 -18 -23 -21 -41 -21 -115 l0 -89 -74 0 -74 0 -4 94 c-4 109 -18
136 -75 136 -59 0 -73 -26 -73 -133 l0 -94 -86 -17 c-140 -27 -292 -110 -372
-201 l-32 -36 0 168 c0 195 13 262 66 364 69 130 224 244 366 268 29 5 258 8
508 7 l455 -1 3 -277z m-470 -600 l-3 -173 -240 1 c-199 0 -250 3 -300 18 -72
21 -144 61 -203 112 l-43 37 37 38 c46 47 153 104 230 123 42 10 128 15 292
15 l232 1 -2 -172z m3473 -1388 c146 -27 297 -144 362 -281 68 -143 74 -284
18 -432 l-11 -27 -55 45 c-73 59 -159 102 -253 126 -64 16 -111 19 -324 19
l-248 0 0 280 0 280 229 0 c125 0 253 -4 282 -10z m56 -725 c79 -27 161 -75
203 -120 l25 -27 -45 -38 c-56 -49 -168 -105 -238 -119 -29 -6 -156 -11 -282
-11 l-230 0 0 170 0 170 246 0 c236 0 248 -1 321 -25z m348 -611 c-34 -148
-135 -280 -265 -348 -65 -34 -185 -69 -202 -59 -5 2 -8 43 -8 91 0 108 -13
132 -70 132 -62 0 -80 -31 -80 -141 l0 -89 -75 0 -75 0 0 89 c0 107 -18 141
-76 141 -60 0 -74 -25 -74 -135 l0 -96 -77 3 -78 3 -3 95 c-3 110 -14 130 -72
130 -60 0 -74 -25 -78 -136 l-4 -95 -71 3 -72 3 0 275 0 275 500 5 c446 5 506
8 555 24 93 30 202 93 270 155 l65 58 3 -158 c2 -115 -2 -177 -13 -225z"/>
<path d="M2505 3470 c-12 -13 -19 -42 -23 -90 -2 -39 -7 -69 -11 -67 -82 45
-130 60 -205 64 -81 5 -83 5 -104 -22 -49 -62 -7 -125 84 -125 57 0 110 -20
154 -57 22 -19 40 -38 40 -42 0 -4 -45 -15 -100 -24 -314 -52 -467 -238 -431
-525 12 -94 -2 -51 241 -737 132 -374 199 -551 218 -575 41 -52 123 -90 192
-90 69 0 151 38 192 90 19 24 86 202 218 575 243 686 229 643 241 735 36 289
-115 474 -428 526 -54 9 -100 18 -102 20 -3 2 6 16 20 30 34 38 116 74 167 74
97 0 141 61 90 125 -21 27 -23 27 -104 22 -75 -4 -123 -19 -205 -64 -4 -2 -9
28 -11 67 -6 85 -24 110 -78 110 -24 0 -43 -7 -55 -20z m245 -510 c199 -32
284 -99 311 -246 17 -91 -3 -170 -127 -522 -64 -180 -123 -346 -131 -369 l-15
-43 -104 0 c-98 0 -107 -2 -129 -25 -32 -31 -32 -69 0 -100 21 -22 33 -25 100
-25 41 0 75 -4 75 -9 0 -30 -93 -259 -111 -273 -28 -23 -91 -23 -119 0 -15 12
-71 157 -199 517 -98 275 -176 503 -174 508 2 4 76 7 163 7 l159 0 20 26 c27
35 26 57 -3 91 l-24 28 -186 3 -186 3 -7 27 c-4 15 -7 61 -7 102 2 219 142
307 494 309 74 0 164 -4 200 -9z"/>
<path d="M2450 2130 c-30 -30 -27 -83 6 -109 22 -17 41 -21 104 -21 95 0 130
20 130 76 0 59 -25 74 -130 74 -77 0 -93 -3 -110 -20z"/>
</g>
</svg>
