<svg version="1.1" id="Layer_1" x="0" y="0" xml:space="preserve" width="256" height="256" xmlns="http://www.w3.org/2000/svg">
  <style type="text/css" id="style2">
    .st3{fill:#168ccb}
  </style>
  <g id="g542" transform="matrix(1.3203 0 0 1.3203 -210.613 -83.359)" style="fill:#00a3ff;fill-opacity:1">
    <path id="path354" style="fill:#00a3ff;fill-opacity:1" d="m192.62 116.484-18.702 87.201h12.5l4.701-21.8h15.5l4.7 21.8h12.5l-18.7-87.201Zm6.298 18.701 6.201 37.4h-12.5z"/>
    <path style="fill:#00a3ff;fill-opacity:1" d="M233.726 203.684v-87.2h12.5v37.4h21.8v-37.4h12.5v87.2h-12.5v-40.5h-21.8v40.5z" id="path336"/>
    <path style="fill:#00a3ff;fill-opacity:1" d="M315.717 204.684c-3.7 0-6.9-.5-9.7-1.6-2.8-1-5.1-2.5-6.9-4.3-1.8-1.8-3.2-4.1-4.4-6.9-1.1-2.7-1.9-5.7-2.4-8.8-.5-3.1-.7-6.6-.7-10.6v-24.9c0-3.9.2-7.4.7-10.6.5-3.1 1.2-6 2.4-8.8 1.1-2.7 2.6-5 4.4-6.8 1.8-1.8 4.1-3.2 6.9-4.3 2.8-1 6-1.6 9.7-1.6 4.1 0 7.6.6 10.5 1.8 3 1.2 5.3 3 7.1 5.3 1.8 2.3 3.1 5 4 8.1.9 3.1 1.4 6.7 1.6 10.8 0 .6.1 1.6.1 2.9h-12.5v-2.8c0-1.7-.1-3.2-.2-4.4-.1-1.2-.3-2.5-.5-3.8-.3-1.3-.6-2.4-1.1-3.2-.5-.9-1.1-1.7-1.9-2.4-.8-.7-1.7-1.3-2.9-1.6-1.2-.3-2.5-.5-4.1-.5-2 0-3.7.3-5.2 1-1.4.6-2.6 1.5-3.4 2.5-.8 1-1.4 2.4-1.9 4.1-.4 1.7-.7 3.4-.9 5-.1 1.6-.2 3.7-.2 6.1v31.1c0 2.1.1 4 .3 5.6.2 1.6.5 3.4 1 5 .5 1.7 1.2 3.1 2 4.2s1.9 2 3.3 2.7c1.4.7 3 1 4.8 1 1.8 0 3.4-.4 4.8-1.1 1.3-.7 2.4-1.6 3.1-2.7.8-1.1 1.4-2.5 1.8-4.2.4-1.7.7-3.4.8-5 .1-1.6.2-3.5.2-5.6v-2.7h12.5v3.1c0 4.5-.4 8.5-1.2 11.9-.8 3.4-2.1 6.4-3.8 9-1.7 2.6-4.2 4.6-7.2 6-3 1.3-6.6 2-10.9 2z" id="path320"/>
  </g>
</svg>
