<svg width="512" height="512" xmlns="http://www.w3.org/2000/svg">
  <g style="font-size:378.545px;line-height:1.25;word-spacing:0;stroke-width:9.46362;fill:#000;fill-opacity:1">
    <path d="M355.457 138.135q0 23.838-8.74 42.643-8.741 18.54-21.985 34.168-12.978 15.627-26.486 30.99-13.243 15.096-23.043 32.048-9.535 16.951-10.86 38.14l-1.589 25.427q-5.032 3.709-10.065 6.357-4.767 2.649-12.184 4.503l-7.151-6.092-2.119-30.195q-1.06-18.01 5.827-35.492 7.152-17.746 18.011-34.697 10.86-16.951 21.984-33.108 11.124-16.422 18.805-32.049 7.681-15.627 7.681-30.724 0-32.578-13.773-50.324-13.508-17.746-38.14-17.746-17.217 0-30.195 15.097-12.713 14.832-12.713 35.492 0 3.708.794 7.946 1.06 4.238 2.384 7.946-8.74 4.502-21.984 7.68-13.243 3.18-24.897 4.504l-7.946-8.741q-.265-1.854-.53-4.768v-5.297q0-24.897 15.892-44.497 16.157-19.865 42.378-31.254 26.487-11.39 56.946-11.39 40.525 0 61.979 23.309 21.719 23.043 21.719 60.124zM285.532 413.33q0 19.335-11.918 31.784-11.655 12.184-28.606 12.184-30.46 0-30.46-31.784 0-18.806 12.184-31.254 12.184-12.714 28.606-12.714 13.508 0 21.719 8.21 8.475 7.947 8.475 23.574z" style="font-family:'Gentium Book Plus';-inkscape-font-specification:'Gentium Book Plus';fill:#e1002a;fill-opacity:1;stroke-width:13.5611" aria-label="?"/>
  </g>
</svg>
