<?xml version="1.0" encoding="UTF-8" standalone="no"?>
<!DOCTYPE svg PUBLIC "-//W3C//DTD SVG 1.1//EN" "http://www.w3.org/Graphics/SVG/1.1/DTD/svg11.dtd">
<svg width="100%" height="100%" viewBox="0 0 1024 1024" version="1.1" xmlns="http://www.w3.org/2000/svg" xmlns:xlink="http://www.w3.org/1999/xlink" xml:space="preserve" xmlns:serif="http://www.serif.com/" style="fill-rule:evenodd;clip-rule:evenodd;stroke-linejoin:round;stroke-miterlimit:2;">
    <g transform="matrix(2.37553,0,0,2.37553,-1255.58,-1.11179)">
        <path d="M766.139,233.32C766.139,239.502 755.396,257.2 742.144,257.2C728.892,257.2 718.149,239.502 718.149,233.32C718.149,227.138 728.892,222.126 742.144,222.126C755.396,222.126 766.139,227.138 766.139,233.32Z" style="fill:rgb(211,127,40);fill-rule:nonzero;"/>
        <g transform="matrix(0.420959,0,0,0.420959,528.547,0.468018)">
            <path d="M813.865,472.258L813.864,472.259C830.675,528.759 843.201,586.491 851.924,644.79L860.442,644.79L1013.06,729.901L872.384,808.352C878.649,859.792 884.65,918.476 886.576,987.027C980.226,1004.39 1003.87,1024 1003.87,1024L10.936,1024C10.936,1024 34.585,1004.39 128.235,987.027C130.079,921.411 135.656,864.841 141.624,815.011L80.663,815.011C23.422,815.011 23.422,644.79 80.663,644.79L162.888,644.79C171.611,586.482 184.138,528.751 200.948,472.26L200.945,472.258L201.385,391.972L221.066,512.383C224.221,531.677 243.852,546.056 267.049,546.056L422.159,546.056C422.498,546.056 422.836,546.053 423.172,546.047C357.561,603.47 350.592,718.18 431.607,718.18C488.487,718.18 506.662,666.569 507.405,664.386C508.149,666.569 526.324,718.18 583.206,718.18C664.221,718.18 657.251,603.47 591.639,546.047C591.977,546.053 592.315,546.056 592.654,546.056L747.764,546.056C770.959,546.056 790.592,531.677 793.745,512.383L813.426,391.972L813.865,472.258ZM507.431,727.872L501.139,777.92L464.933,777.92L450.257,734.944C486.201,728.171 501.49,706.578 507.431,691.289C513.375,706.578 528.662,728.171 564.608,734.944L549.932,777.92L513.727,777.92L507.431,727.872ZM215.737,358.15C203.023,342.798 197.932,318.256 202.717,296.887C208.008,273.271 224.463,254.483 243.56,248.366C255.321,244.597 269.285,246.465 282.171,252.342C282.727,244.435 289.04,237.993 297.062,237.494C378.046,232.46 390.831,186.871 507.405,186.871C623.98,186.871 636.765,232.46 717.751,237.494C725.773,237.993 732.086,244.435 732.642,252.342C745.532,246.464 759.494,244.598 771.253,248.366C790.35,254.483 806.805,273.271 812.093,296.887C816.878,318.256 811.788,342.798 799.075,358.149C790.835,351.696 779.76,347.702 767.445,347.702L572.972,347.702C544.829,347.702 523.165,368.561 526.989,391.972L546.673,512.383C547.172,515.435 548.083,518.364 549.356,521.136C536.516,516.626 522.501,514.088 507.405,514.088C492.31,514.088 478.295,516.626 465.457,521.135C466.73,518.364 467.642,515.435 468.14,512.383L487.821,391.972C491.648,368.561 469.981,347.702 441.841,347.702L247.366,347.702C235.051,347.702 223.977,351.696 215.737,358.15ZM251.478,344.212C251.478,344.212 269.23,316.145 285.647,301.825C285.647,301.825 252.269,278.167 236.45,299.352C217.536,324.685 251.478,344.212 251.478,344.212ZM763.335,344.212C763.335,344.212 745.583,316.145 729.163,301.825C729.163,301.825 762.544,278.167 778.363,299.352C797.277,324.685 763.335,344.212 763.335,344.212ZM710.466,223.162C704.289,120.556 652.196,52.673 580.546,25.938L580.546,180.918C633.016,193.618 655.983,217.886 710.466,223.162ZM434.268,25.938C362.614,52.67 310.521,120.556 304.345,223.162C358.83,217.886 381.797,193.615 434.268,180.918L434.268,25.938ZM454.013,15.334L454.013,176.984C469.166,174.575 486.634,173.124 507.405,173.124C528.179,173.124 545.647,174.575 560.802,176.984L560.802,15.334C560.802,6.865 553.937,-0 545.468,-0L469.345,-0C460.876,-0 454.013,6.865 454.013,15.334Z" style="fill:rgb(211,127,40);fill-rule:nonzero;"/>
        </g>
        <g transform="matrix(0.420959,0,0,0.420959,425.795,0.468018)">
            <path d="M592.041,444.134C592.041,470.372 608.273,491.64 628.296,491.64C648.319,491.64 664.551,470.372 664.551,444.134C664.551,417.898 648.319,396.628 628.296,396.628C608.273,396.628 592.041,417.898 592.041,444.134ZM639.715,423.778C639.715,432.04 634.601,438.739 628.296,438.739C621.991,438.739 616.877,432.04 616.877,423.778C616.877,415.516 621.991,408.817 628.296,408.817C634.601,408.817 639.715,415.516 639.715,423.778Z" style="fill:rgb(211,127,40);fill-rule:nonzero;"/>
        </g>
        <g transform="matrix(0.420959,0,0,0.420959,528.547,0.468018)">
            <path d="M592.041,444.134C592.041,470.372 608.273,491.64 628.296,491.64C648.319,491.64 664.551,470.372 664.551,444.134C664.551,417.898 648.319,396.628 628.296,396.628C608.273,396.628 592.041,417.898 592.041,444.134ZM639.715,423.778C639.715,432.04 634.601,438.739 628.296,438.739C621.991,438.739 616.877,432.04 616.877,423.778C616.877,415.516 621.991,408.817 628.296,408.817C634.601,408.817 639.715,415.516 639.715,423.778Z" style="fill:rgb(211,127,40);fill-rule:nonzero;"/>
        </g>
    </g>
</svg>
