<?xml version="1.0" standalone="no"?>
<!DOCTYPE svg PUBLIC "-//W3C//DTD SVG 20010904//EN"
 "http://www.w3.org/TR/2001/REC-SVG-20010904/DTD/svg10.dtd">
<svg version="1.0" xmlns="http://www.w3.org/2000/svg"
 width="512.000000pt" height="512.000000pt" viewBox="0 0 512.000000 512.000000"
 preserveAspectRatio="xMidYMid meet">

<g transform="translate(0.000000,512.000000) scale(0.100000,-0.100000)"
fill="#000000" stroke="none">
<path d="M3678 5100 c-21 -16 -28 -30 -28 -55 0 -48 33 -71 117 -80 165 -17
350 -96 486 -204 177 -143 294 -332 343 -554 20 -88 23 -289 5 -372 -66 -319
-256 -560 -547 -697 -143 -66 -215 -81 -399 -81 -192 0 -266 16 -422 93 -266
131 -443 354 -515 648 -31 130 -29 313 6 447 82 313 319 571 621 675 75 26 95
44 95 87 0 40 -30 73 -65 73 -40 0 -142 -38 -232 -85 -204 -108 -366 -270
-471 -472 -46 -89 -97 -233 -107 -306 -7 -46 -10 -50 -82 -99 -41 -27 -105
-64 -142 -82 -57 -27 -77 -31 -146 -31 -69 0 -89 4 -148 32 -38 18 -123 70
-190 116 -144 100 -178 118 -276 147 -65 20 -88 22 -209 17 -159 -6 -238 -25
-380 -92 -128 -61 -217 -123 -304 -213 -90 -93 -146 -175 -204 -296 -130 -274
-166 -647 -93 -944 23 -92 76 -227 143 -361 63 -126 96 -214 118 -316 18 -82
20 -134 22 -595 2 -544 8 -627 60 -832 65 -255 187 -436 382 -564 240 -158
448 -130 523 71 12 32 35 141 52 244 16 102 45 252 64 332 42 174 44 212 13
233 -34 24 -85 21 -102 -7 -23 -34 -82 -289 -121 -521 -19 -116 -43 -226 -53
-245 -36 -75 -108 -77 -245 -9 -107 54 -225 170 -280 276 -121 231 -149 449
-146 1107 3 527 -3 568 -128 840 -118 257 -134 295 -153 370 -81 317 -22 718
144 975 67 103 147 183 248 251 147 97 310 149 467 150 146 1 188 -16 408
-164 190 -128 293 -165 423 -154 80 7 170 37 245 83 32 18 60 32 65 29 4 -2
10 -39 13 -82 12 -154 94 -371 194 -512 173 -243 438 -409 732 -457 94 -16
313 -14 384 2 22 5 27 3 27 -14 0 -59 -57 -230 -125 -372 -156 -327 -165 -382
-175 -1055 -8 -547 -15 -626 -66 -803 -67 -230 -187 -385 -372 -478 -123 -62
-199 -55 -233 21 -10 22 -34 135 -53 250 -98 587 -243 983 -416 1139 -124 112
-302 124 -449 31 -88 -55 -178 -174 -236 -309 -24 -58 -26 -67 -14 -92 16 -33
55 -50 92 -40 22 5 36 25 73 101 78 160 170 242 281 252 76 6 131 -22 195
-102 125 -154 246 -528 324 -995 41 -247 54 -296 97 -352 49 -66 113 -93 212
-92 123 1 237 55 377 176 159 138 266 365 314 668 12 81 18 223 24 615 9 548
14 613 66 777 15 46 53 136 86 202 73 145 122 290 145 425 l18 101 91 45 c307
149 526 434 599 780 21 99 24 301 6 405 -49 277 -208 533 -435 702 -152 114
-361 196 -542 213 -62 6 -72 5 -96 -15z"/>
<path d="M3980 4527 c-25 -7 -99 -74 -267 -240 l-232 -230 -49 45 c-59 56 -98
76 -156 84 -98 14 -202 -38 -249 -124 -37 -68 -43 -125 -22 -197 15 -54 28
-70 146 -190 154 -157 200 -186 305 -193 51 -3 86 0 125 13 50 16 79 42 372
334 175 174 327 332 337 351 84 163 -38 362 -220 359 -30 -1 -71 -6 -90 -12z
m141 -147 c10 -6 26 -25 35 -42 32 -63 26 -71 -293 -390 -164 -163 -308 -301
-320 -307 -27 -14 -93 -14 -129 0 -34 12 -240 212 -261 253 -42 80 50 176 130
135 12 -7 49 -38 83 -70 64 -61 96 -76 142 -64 17 4 116 95 273 251 233 232
247 244 283 244 20 0 46 -5 57 -10z"/>
<path d="M1285 3852 c-220 -88 -387 -273 -456 -507 -29 -96 -39 -352 -16 -407
17 -40 48 -55 92 -44 40 10 47 38 46 180 -2 214 46 357 165 484 67 72 137 120
236 159 80 32 98 48 98 88 0 38 -35 75 -71 75 -13 -1 -55 -13 -94 -28z"/>
<path d="M875 2730 c-15 -17 -17 -31 -12 -94 3 -41 11 -87 19 -103 25 -52 108
-57 130 -8 15 33 -5 181 -29 207 -22 25 -84 24 -108 -2z"/>
</g>
</svg>
