<?xml version="1.0" standalone="no"?>
<!DOCTYPE svg PUBLIC "-//W3C//DTD SVG 20010904//EN"
 "http://www.w3.org/TR/2001/REC-SVG-20010904/DTD/svg10.dtd">
<svg version="1.0" xmlns="http://www.w3.org/2000/svg"
 width="512.000000pt" height="512.000000pt" viewBox="0 0 512.000000 512.000000"
 preserveAspectRatio="xMidYMid meet">

<g transform="translate(0.000000,512.000000) scale(0.100000,-0.100000)"
fill="#000000" stroke="none">
<path d="M3105 4775 c-24 -23 -25 -29 -25 -163 0 -164 9 -186 75 -186 66 0 75
22 75 186 0 134 -1 140 -25 163 -13 14 -36 25 -50 25 -14 0 -37 -11 -50 -25z"/>
<path d="M2705 4665 c-14 -13 -25 -34 -25 -46 0 -30 105 -214 133 -234 39 -28
80 -15 106 33 7 12 9 32 6 43 -12 37 -106 194 -127 212 -28 24 -65 21 -93 -8z"/>
<path d="M3512 4673 c-21 -18 -115 -175 -127 -212 -3 -11 -1 -31 6 -43 26 -48
67 -61 106 -33 28 20 133 204 133 234 0 29 -43 71 -73 71 -14 0 -34 -8 -45
-17z"/>
<path d="M3058 4107 c-103 -39 -163 -93 -207 -187 -21 -46 -26 -73 -29 -162
l-4 -108 -1267 -2 -1266 -3 -65 -31 c-83 -39 -145 -101 -184 -184 l-31 -65 -3
-304 c-3 -302 -3 -303 19 -327 30 -32 78 -32 107 -1 21 23 22 30 22 298 0 169
4 289 11 314 15 53 91 129 144 144 28 8 324 11 983 11 l942 0 0 -810 0 -810
-1040 0 -1040 0 0 286 c0 167 -4 293 -10 304 -23 43 -116 40 -134 -5 -3 -9 -6
-297 -6 -640 0 -578 1 -628 18 -683 34 -107 105 -187 209 -235 40 -18 71 -23
192 -27 l145 -5 17 -69 c60 -236 251 -422 484 -471 276 -58 561 80 690 335 21
42 43 110 59 183 l6 27 681 -2 681 -3 19 -75 c27 -106 73 -191 146 -270 80
-86 155 -136 263 -174 76 -27 97 -30 200 -30 97 0 127 5 195 27 103 34 188 90
268 177 72 78 119 165 146 272 l19 73 203 5 c185 5 209 7 253 28 105 48 179
134 211 244 14 49 16 112 13 480 l-3 423 -28 60 c-33 71 -104 148 -167 179
-25 13 -189 71 -366 130 -257 86 -326 112 -346 134 -16 16 -93 191 -198 447
-94 231 -179 433 -187 449 -49 94 -175 180 -282 193 l-49 6 -4 106 c-3 97 -6
113 -36 173 -36 74 -87 124 -161 159 -58 28 -179 36 -233 16z m200 -170 c60
-39 82 -94 82 -200 l0 -87 -186 0 -186 0 4 98 c3 87 6 103 30 139 55 84 171
107 256 50z m307 -448 c26 -7 56 -28 85 -58 41 -43 59 -82 199 -427 85 -208
172 -416 193 -462 59 -125 67 -130 473 -263 335 -111 340 -113 385 -158 52
-52 70 -100 70 -185 l0 -56 -585 0 -586 0 -24 -25 c-14 -13 -25 -36 -25 -50 0
-14 11 -37 25 -50 l24 -25 586 0 585 0 0 -264 0 -264 -28 -53 c-17 -34 -44
-65 -71 -84 l-43 -30 -199 -3 -199 -3 0 24 c0 41 -40 149 -81 218 -74 126
-194 224 -341 277 -64 23 -88 26 -198 26 -110 0 -134 -3 -198 -26 -41 -15 -99
-42 -129 -60 -71 -42 -169 -140 -211 -211 -36 -60 -82 -185 -82 -223 l0 -24
-400 0 -400 0 0 350 0 350 555 0 556 0 24 25 c14 13 25 36 25 50 0 14 -11 37
-25 50 l-24 25 -556 0 -555 0 0 810 0 810 568 0 c379 0 580 -4 607 -11z
m-1335 -2109 l0 -350 -205 0 c-156 0 -206 3 -209 13 -2 6 -8 35 -15 62 -22 98
-87 211 -166 290 -212 211 -542 244 -791 79 -124 -82 -238 -248 -265 -385
l-12 -60 -138 3 c-134 3 -138 4 -180 33 -27 19 -54 50 -71 84 l-28 53 0 264 0
264 1040 0 1040 0 0 -350z m-938 39 c218 -45 379 -245 378 -469 -1 -130 -40
-228 -132 -326 -281 -299 -771 -131 -824 283 -16 127 41 280 140 378 123 121
275 168 438 134z m2633 -4 c237 -62 393 -291 358 -529 -38 -264 -288 -451
-545 -408 -209 35 -371 200 -401 408 -48 330 266 612 588 529z"/>
<path d="M2598 3335 c-60 -33 -63 -48 -66 -405 -4 -406 -1 -443 43 -487 l33
-33 577 0 c526 0 579 2 606 17 31 19 59 68 59 105 0 13 -66 187 -146 388 -107
269 -153 373 -175 395 l-29 30 -438 2 c-373 2 -441 0 -464 -12z m961 -457
l128 -318 -498 0 -499 0 0 320 0 320 371 -2 371 -3 127 -317z"/>
<path d="M1150 1171 c-114 -23 -186 -118 -178 -237 7 -117 88 -196 208 -202
81 -5 130 16 183 79 135 157 -10 400 -213 360z m100 -179 c25 -32 25 -53 -1
-86 -40 -51 -129 -23 -129 42 0 75 83 104 130 44z"/>
<path d="M3770 1170 c-108 -20 -180 -108 -180 -220 0 -128 91 -220 220 -220
129 0 219 92 220 223 0 139 -124 243 -260 217z m93 -168 c22 -19 22 -79 0
-104 -20 -23 -80 -24 -105 -1 -11 10 -18 30 -18 53 0 69 69 99 123 52z"/>
<path d="M1043 3335 c-64 -27 -73 -59 -73 -247 l0 -166 -167 -4 c-189 -3 -219
-13 -255 -78 -17 -30 -19 -52 -16 -160 3 -102 7 -130 22 -153 32 -47 50 -52
236 -57 l175 -5 5 -175 c6 -197 11 -214 75 -244 56 -27 272 -20 312 10 55 40
63 72 63 252 l0 162 174 0 c171 0 175 0 204 25 47 39 54 69 50 214 l-3 131
-31 31 c-41 40 -82 48 -251 49 l-143 0 0 158 c0 177 -9 209 -69 249 -31 21
-45 23 -155 23 -81 -1 -132 -5 -153 -15z m227 -321 l0 -186 29 -29 29 -29 186
0 186 0 0 -75 0 -75 -157 0 c-176 0 -223 -9 -253 -47 -18 -24 -20 -39 -20
-209 l0 -184 -75 0 -75 0 0 171 c0 265 2 263 -258 267 l-183 4 3 71 3 72 187
5 188 5 27 28 28 27 3 185 3 185 75 0 74 0 0 -186z"/>
</g>
</svg>
