<svg version="1.0" xmlns="http://www.w3.org/2000/svg" width="512.000000pt" height="512.000000pt" viewBox="0 0 512 512"
  preserveAspectRatio="xMidYMid meet">
  <g transform="translate(0.000000,512) scale(0.100000,-0.100000)" fill="#000000" stroke="none">
    <path
      d="M4665 5051 c-231 -82 -724 -278 -742 -294 -29 -26 -31 -86 -5 -110 38 -35 59 -30 377 92 171 65 311 118 313 116 5 -4 -67 -164 -137 -303 -322 -642 -858 -1290 -1446 -1747 -812 -632 -1809 -1005 -2835 -1060 -132 -7 -163 -16 -179 -51 -17 -39 -13 -63 15 -91 l26 -26 131 7 c1358 70 2612 655 3549 1653 417 444 793 1002 983 1456 16 37 32 64 35 60 4 -4 56 -134 114 -288 65 -168 115 -287 128 -297 29 -26 74 -23 103 7 32 31 31 54 -6 150 -17 44 -80 210 -139 369 -111 294 -137 347 -178 365 -30 14 -47 13 -107 -8z" />
    <path
      d="M1405 4954 c-434 -47 -799 -297 -992 -678 -95 -189 -128 -336 -127 -566 0 -138 4 -181 24 -260 60 -245 169 -439 341 -607 102 -101 176 -154 299 -217 211 -107 364 -141 610 -133 202 7 318 33 485 112 492 234 777 775 690 1312 -83 513 -479 921 -987 1018 -85 16 -272 26 -343 19z m265 -168 c285 -43 536 -193 711 -425 69 -93 144 -248 176 -366 24 -90 27 -117 27 -275 0 -148 -4 -187 -22 -253 -69 -250 -204 -455 -395 -600 -192 -147 -404 -218 -649 -218 -228 0 -405 52 -591 174 -415 273 -589 786 -426 1253 169 485 664 786 1169 710z" />
    <path
      d="M1466 4539 c-24 -19 -26 -26 -26 -99 l0 -78 -99 -4 c-88 -3 -104 -7 -147 -34 -30 -18 -60 -48 -79 -78 -30 -49 -30 -50 -33 -217 -3 -154 -2 -171 18 -218 25 -56 92 -124 148 -149 29 -13 85 -17 260 -22 l224 -5 29 -33 29 -32 0 -139 c0 -200 21 -186 -275 -186 -237 0 -237 0 -256 24 -14 17 -19 39 -19 83 0 62 -18 111 -45 122 -34 13 -72 6 -93 -17 -19 -20 -22 -35 -22 -105 0 -95 15 -141 63 -190 53 -56 101 -74 205 -80 l92 -5 0 -69 c0 -38 4 -78 10 -88 15 -28 61 -40 97 -25 36 15 53 56 53 130 l0 52 88 5 c129 8 200 49 243 143 16 34 18 65 18 200 0 96 -5 173 -12 192 -22 60 -72 117 -128 148 l-54 30 -220 5 c-298 7 -295 4 -295 225 0 185 -16 175 275 175 274 0 270 2 277 -117 5 -68 8 -79 32 -100 34 -29 65 -29 100 -2 25 19 26 25 26 110 0 76 -4 97 -25 139 -45 89 -121 129 -246 130 l-76 0 -5 77 c-5 68 -8 79 -32 100 -34 29 -65 29 -100 2z" />
    <path
      d="M4082 3374 c-56 -28 -92 -67 -117 -127 -13 -32 -15 -212 -15 -1537 l0 -1500 -100 0 -100 0 0 913 c0 597 -4 925 -10 949 -16 56 -69 119 -125 147 l-49 26 -371 0 c-417 0 -421 -1 -491 -70 -77 -78 -74 -31 -74 -1057 l0 -908 -100 0 -100 0 0 625 c0 690 2 665 -63 733 -18 19 -50 43 -72 55 -39 21 -53 22 -395 25 -232 2 -370 -1 -398 -8 -63 -15 -119 -57 -150 -109 l-27 -46 -5 -635 -5 -635 -97 -3 -98 -3 0 489 c0 529 -2 548 -54 617 -15 19 -48 47 -74 62 l-47 28 -385 0 c-378 0 -386 0 -426 -22 -53 -28 -107 -91 -122 -142 -17 -53 -17 -1109 -1 -1145 7 -13 23 -30 38 -35 18 -8 746 -10 2497 -9 2415 3 2472 3 2493 22 l21 19 0 1566 c0 1500 -1 1568 -19 1607 -22 49 -92 111 -140 124 -21 6 -191 10 -402 10 l-365 0 -52 -26z m797 -153 c11 -11 23 -35 26 -53 3 -18 4 -690 3 -1493 l-3 -1460 -397 -3 -398 -2 0 1492 0 1492 22 23 21 23 354 0 c336 0 354 -1 372 -19z m-1313 -1164 l24 -28 0 -910 0 -909 -400 0 -400 0 0 908 c0 987 -3 939 54 962 11 5 173 8 359 7 l339 -2 24 -28z m-1315 -596 c18 -22 19 -48 19 -637 l0 -614 -395 0 -395 0 0 619 0 620 27 21 c26 20 34 21 376 18 l349 -3 19 -24z m-1320 -240 l29 -29 0 -491 0 -491 -400 0 -400 0 0 491 c0 328 4 497 11 510 6 11 20 24 32 29 12 5 174 9 360 9 l339 1 29 -29z" />
  </g>
</svg>