<?xml version="1.0" standalone="no"?>
<!DOCTYPE svg PUBLIC "-//W3C//DTD SVG 20010904//EN"
 "http://www.w3.org/TR/2001/REC-SVG-20010904/DTD/svg10.dtd">
<svg version="1.0" xmlns="http://www.w3.org/2000/svg"
 width="512.000000pt" height="512.000000pt" viewBox="0 0 512.000000 512.000000"
 preserveAspectRatio="xMidYMid meet">

<g transform="translate(0.000000,512.000000) scale(0.100000,-0.100000)"
fill="#000000" stroke="none">
<path d="M1439 5106 c-106 -29 -209 -121 -251 -224 -22 -55 -23 -68 -26 -439
l-3 -382 -432 -3 c-425 -3 -433 -3 -489 -26 -81 -33 -160 -108 -200 -190 l-33
-67 0 -1365 0 -1365 33 -67 c40 -82 119 -157 200 -190 l57 -23 948 -3 947 -2
0 -154 0 -154 -87 -4 c-185 -9 -310 -112 -343 -285 -11 -55 -10 -66 6 -100 11
-21 30 -43 44 -50 36 -18 1464 -18 1500 0 14 7 33 29 44 50 16 34 17 45 6 100
-33 173 -158 276 -342 285 l-88 4 0 154 0 154 948 2 947 3 57 23 c81 33 160
108 200 190 l33 67 3 358 3 359 -22 24 c-30 32 -78 32 -107 1 -22 -23 -22 -28
-22 -351 0 -217 -4 -342 -11 -367 -16 -50 -61 -105 -112 -132 l-42 -22 -2245
0 -2245 0 -42 22 c-51 27 -96 82 -112 132 -16 55 -16 2627 0 2682 16 50 61
105 112 132 41 22 50 22 465 25 l422 3 0 -76 0 -75 -387 0 c-370 0 -390 -1
-421 -20 -18 -11 -37 -32 -42 -46 -6 -16 -10 -498 -10 -1305 l0 -1280 25 -24
24 -25 2193 0 c2174 0 2193 0 2226 20 18 11 37 32 42 46 7 17 9 480 8 1300
l-3 1274 -28 27 -27 28 -400 3 -400 3 0 75 0 75 423 -3 c414 -3 423 -3 464
-25 51 -27 96 -82 112 -132 8 -27 11 -273 11 -860 0 -517 4 -829 10 -841 25
-47 123 -38 135 12 3 13 4 403 3 868 l-3 845 -27 57 c-32 68 -96 140 -156 175
-83 49 -125 53 -564 53 l-407 0 -3 383 c-3 372 -4 383 -26 439 -33 81 -108
160 -190 200 l-67 33 -1095 2 c-847 1 -1105 -1 -1141 -11z m2212 -147 c50 -16
105 -61 132 -112 l22 -42 3 -1797 2 -1798 -1250 0 -1250 0 2 1798 3 1797 22
42 c26 47 77 92 125 110 46 16 2133 18 2189 2z m-2491 -2549 l0 -1200 -355 0
-355 0 0 1200 0 1200 355 0 355 0 0 -1200z m3510 0 l0 -1200 -355 0 -355 0 0
1200 0 1200 355 0 355 0 0 -1200z m-1890 -1805 l0 -155 -220 0 -220 0 0 155 0
155 220 0 220 0 0 -155z m343 -333 c31 -20 87 -93 87 -115 0 -4 -292 -7 -650
-7 -357 0 -650 3 -650 7 0 3 11 25 25 48 25 44 59 72 104 86 14 4 256 7 536 6
l510 -2 38 -23z"/>
<path d="M2393 4655 c-126 -23 -239 -67 -348 -136 -36 -23 -70 -49 -75 -59
-16 -31 -11 -76 10 -95 31 -28 69 -22 134 20 131 84 254 123 411 132 318 17
619 -162 761 -454 196 -401 30 -882 -373 -1079 -400 -196 -883 -30 -1079 373
-109 222 -110 470 -3 702 22 46 39 94 39 107 0 38 -35 66 -78 62 -44 -4 -76
-45 -121 -160 -52 -131 -65 -198 -65 -358 0 -160 12 -226 65 -359 89 -224 288
-428 510 -522 284 -121 602 -100 871 58 112 65 266 219 329 328 101 174 133
294 133 495 0 160 -12 227 -65 359 -70 177 -224 358 -388 459 -196 120 -445
168 -668 127z"/>
<path d="M2870 4171 c-60 -12 -80 -28 -272 -219 l-187 -186 -41 38 c-54 49
-97 66 -162 66 -106 -1 -196 -72 -218 -172 -11 -47 -10 -63 5 -114 15 -54 27
-69 134 -176 132 -132 177 -159 269 -160 121 -1 119 -3 433 311 281 280 287
287 298 338 34 164 -100 305 -259 274z m100 -179 c11 -13 20 -34 20 -45 0 -14
-87 -108 -257 -279 -281 -281 -298 -293 -365 -264 -44 18 -238 217 -238 243 0
37 38 73 76 73 28 0 46 -11 99 -60 58 -54 69 -60 107 -60 41 0 45 3 247 205
114 112 217 208 231 213 33 12 57 5 80 -26z"/>
<path d="M1645 2385 c-14 -13 -25 -36 -25 -50 0 -14 11 -37 25 -50 l24 -25
891 0 891 0 24 25 c14 13 25 36 25 50 0 14 -11 37 -25 50 l-24 25 -891 0 -891
0 -24 -25z"/>
<path d="M1645 1935 c-14 -13 -25 -36 -25 -50 0 -14 11 -37 25 -50 l24 -25
891 0 891 0 24 25 c14 13 25 36 25 50 0 14 -11 37 -25 50 l-24 25 -891 0 -891
0 -24 -25z"/>
</g>
</svg>
