<svg width="100%" height="100%" viewBox="0 0 700 700" version="1.1" xmlns="http://www.w3.org/2000/svg"
    xmlns:xlink="http://www.w3.org/1999/xlink" xml:space="preserve" xmlns:serif="http://www.serif.com/"
    style="fill-rule:evenodd;clip-rule:evenodd;stroke-linejoin:round;stroke-miterlimit:2;">
    <g transform="matrix(1.1583,0,0,1.1583,-55.3133,25.6757)">
        <path
            d="M149.91,428.23L149.91,532C149.91,533.856 150.648,535.637 151.961,536.949C153.273,538.262 155.055,539 156.91,539L391.55,539C393.409,539 395.187,538.262 396.499,536.949C397.816,535.637 398.55,533.855 398.55,532L398.55,428.23C398.55,426.375 397.816,424.593 396.499,423.281C395.187,421.968 393.409,421.23 391.55,421.23L373.015,421.23L375.984,413.503C378.464,407.05 379.163,400.046 378.011,393.23C376.859,386.414 373.894,380.031 369.433,374.753C361.132,366.039 348.835,362.374 337.121,365.121C334.617,365.769 332.18,366.652 329.84,367.753L329.84,301.671C346.918,302.679 385.84,304.918 391.442,305.086C392.618,305.086 395.473,306.093 399.504,307.324L398.664,324.801C398.637,325.117 398.637,325.434 398.664,325.754L418.375,532.564L418.375,532.56C418.723,536.142 421.723,538.876 425.321,538.888L488.825,538.888C492.376,538.79 495.29,536.044 495.602,532.505L510.106,328.615L511.899,274.685L535.532,258.615L535.528,258.615C541.294,254.713 545.669,249.076 548.016,242.521C550.36,235.963 550.559,228.833 548.575,222.158L530.266,159.607C530.277,159.365 530.277,159.119 530.266,158.877C527.035,151.236 521.629,144.721 514.715,140.139C507.805,135.557 499.692,133.115 491.399,133.119L455.45,133.119L411.602,134.014C401.52,134.233 391.844,138.045 384.329,144.768L345.52,179.545L345.52,179.541C343.946,180.963 343.102,183.025 343.223,185.143L348.262,245.791L325.024,242.376L324.016,242.376L314.719,242.373C322.391,232.248 325.992,219.611 324.805,206.963C323.622,194.315 317.735,182.568 308.317,174.041C298.895,165.517 286.622,160.83 273.919,160.912C261.212,160.99 249.001,165.83 239.685,174.471C230.373,183.111 224.638,194.932 223.611,207.596C222.584,220.26 226.338,232.846 234.138,242.877C219.45,244.857 206.224,252.798 197.568,264.83L162.795,313.607C162.428,314.146 162.127,314.732 161.897,315.341C159.28,323.001 159.014,331.267 161.127,339.079C163.244,346.895 167.647,353.895 173.772,359.188L189.061,374.418C180.94,382.816 176.741,396.313 182.229,414.066L185.03,421.289L157.03,421.289L157.026,421.293C155.159,421.261 153.358,421.98 152.026,423.281C150.69,424.586 149.928,426.371 149.913,428.234L149.91,428.23ZM240.015,523.429L195.214,409.189C189.612,391.212 198.015,381.638 206.862,378.951C208.784,378.346 210.784,378.041 212.8,378.053C222.151,378.053 232.234,384.494 236.823,398.83L255.248,519.51L240.015,523.429ZM250.32,375.649L315.84,375.649L315.84,379.063C312.067,383.958 309.219,389.501 307.442,395.415C307.414,395.751 307.414,396.091 307.442,396.427L303.688,421.236L254.801,421.232L250.992,396.423L250.992,396.427C251.019,396.091 251.019,395.751 250.992,395.415C251.012,395.251 251.012,395.079 250.992,394.911C253.683,388.72 253.437,381.641 250.32,375.649ZM287.84,524.999L270.199,524.999C270.258,524.628 270.258,524.249 270.199,523.878L256.761,435.23L301.281,435.23L287.785,523.878C287.773,524.253 287.793,524.628 287.84,524.999ZM384.551,435.397L384.551,524.999L332.528,524.999L367.528,435.397L384.551,435.397ZM340.258,378.784C347.114,377.14 354.324,379.276 359.184,384.382C361.922,387.8 363.696,391.886 364.328,396.214C364.957,400.546 364.418,404.968 362.77,409.023L317.969,523.763L302.512,519.841L320.938,399.161L320.938,399.165C322.075,394.368 324.465,389.954 327.856,386.376C331.247,382.798 335.528,380.177 340.258,378.782L340.258,378.784ZM496.278,327.882L482.278,525.002L462.508,524.998L460.66,338.738C460.598,334.918 457.485,331.851 453.66,331.851C451.817,331.867 450.059,332.613 448.766,333.926C447.473,335.238 446.758,337.011 446.774,338.851L448.621,524.941L431.82,524.941L412.722,324.801L413.281,311.305C427.336,315.731 445.984,321.778 463.679,327.489L463.683,327.489C467.019,328.575 470.644,327.048 472.194,323.903L485.577,295.903C486.124,294.716 486.32,293.396 486.14,292.099L498.011,284.036L496.278,327.882ZM393.518,155.232C398.514,150.775 404.916,148.22 411.608,148.009L455.456,147.115L491.128,147.115C496.601,147.084 501.964,148.658 506.554,151.646C511.14,154.63 514.753,158.896 516.945,163.912L535.312,226.072C536.445,229.9 536.328,233.99 534.98,237.748C533.628,241.502 531.117,244.732 527.808,246.963L501.206,265.049L474.046,283.584L458.702,277.31L513.975,234.189L513.975,234.193C516.198,232.494 517.174,229.615 516.44,226.912L506.135,187.713C505.143,183.971 501.307,181.74 497.565,182.729C493.822,183.721 491.592,187.557 492.58,191.299L501.709,225.795L443.748,271.268L415.748,259.733L419.053,183.741L419.053,183.737C419.014,181.104 417.51,178.714 415.154,177.538C412.799,176.362 409.986,176.593 407.854,178.139L383.608,196.393C381.897,197.757 380.889,199.811 380.861,201.995L380.303,250.882L362.326,248.081L357.287,187.601L393.518,155.232ZM404.159,198.127L401.753,254.127L401.749,254.131C401.327,253.994 400.897,253.881 400.464,253.795L394.136,252.842L394.694,205.467L404.159,198.127ZM274.239,175.111L274.239,175.115C283.997,175.115 293.356,178.99 300.255,185.888C307.157,192.79 311.032,202.146 311.032,211.904C311.032,221.662 307.157,231.021 300.255,237.92C293.357,244.822 283.997,248.697 274.239,248.697C264.481,248.697 255.126,244.822 248.223,237.92C241.325,231.022 237.45,221.662 237.45,211.904C237.462,202.154 241.345,192.802 248.243,185.908C255.138,179.01 264.489,175.127 274.239,175.115L274.239,175.111ZM183.466,348.991L183.075,348.6L183.071,348.6C179.091,345.264 176.185,340.827 174.72,335.842C173.255,330.862 173.298,325.557 174.841,320.6L208.946,272.776C216.36,262.303 228.368,256.049 241.2,255.975L249.88,255.975C265.044,264.346 283.439,264.346 298.603,255.975L323.357,255.975L397.556,267.174L469.513,296.799L462.009,312.479C396.603,291.198 393.185,291.198 391.841,291.198C389.04,291.198 349.282,288.901 323.239,287.335C321.325,287.269 319.454,287.952 318.032,289.237C316.641,290.569 315.852,292.409 315.848,294.335L315.848,361.534L239.856,361.534L236.551,357.39L238.008,299.206C238.032,296.065 235.973,293.288 232.965,292.393C229.954,291.499 226.715,292.702 225.016,295.342L203.063,330.901C201.509,333.425 201.708,336.655 203.567,338.968L223.786,363.999L224.29,364.671L226.138,366.909C218.782,363.901 210.618,363.507 203.009,365.792C202.345,365.979 201.688,366.206 201.048,366.464L183.466,348.991ZM223.337,324.8L222.946,340.816L217.345,334.152L223.337,324.8ZM163.919,435.23L190.521,435.23L225.521,524.832L163.919,524.832L163.919,435.23Z"
            style="fill-rule:nonzero;stroke:black;stroke-width:8.63px;" />
        <path
            d="M455.56,21C442.091,21 429.173,26.352 419.646,35.875C410.123,45.402 404.771,58.32 404.771,71.793C404.771,85.262 410.123,98.184 419.646,107.707C429.173,117.234 442.091,122.586 455.56,122.586C469.033,122.586 481.951,117.234 491.478,107.707C501.001,98.184 506.353,85.262 506.353,71.793C506.353,58.32 501.001,45.402 491.478,35.875C481.951,26.352 469.033,21 455.56,21ZM455.56,108.586C445.802,108.586 436.447,104.707 429.544,97.809C422.646,90.907 418.771,81.551 418.771,71.793C418.771,62.035 422.646,52.676 429.544,45.777C436.446,38.875 445.802,35 455.56,35C465.318,35 474.677,38.875 481.576,45.777C488.478,52.675 492.353,62.035 492.353,71.793C492.353,81.551 488.478,90.906 481.576,97.809C474.678,104.707 465.318,108.586 455.56,108.586Z"
            style="fill-rule:nonzero;stroke:black;stroke-width:8.63px;" />
    </g>
</svg>