<?xml version="1.0" standalone="no"?>
<!DOCTYPE svg PUBLIC "-//W3C//DTD SVG 20010904//EN"
 "http://www.w3.org/TR/2001/REC-SVG-20010904/DTD/svg10.dtd">
<svg version="1.0" xmlns="http://www.w3.org/2000/svg"
 width="512.000000pt" height="512.000000pt" viewBox="0 0 512.000000 512.000000"
 preserveAspectRatio="xMidYMid meet">

<g transform="translate(0.000000,512.000000) scale(0.100000,-0.100000)"
fill="#000000" stroke="none">
<path d="M1155 5113 c-422 -65 -746 -391 -804 -807 -6 -42 -11 -128 -11 -189
l0 -112 -52 -19 c-113 -40 -193 -113 -247 -226 -34 -70 -36 -81 -36 -170 0
-69 5 -109 19 -145 47 -125 145 -221 264 -261 l66 -23 17 -78 c32 -146 107
-306 204 -433 94 -122 261 -258 393 -319 l52 -24 0 -88 0 -87 -162 -5 c-187
-6 -240 -17 -375 -82 -227 -110 -381 -297 -455 -552 -23 -77 -23 -86 -23 -658
0 -575 0 -580 22 -627 30 -66 105 -143 172 -175 l56 -28 1195 0 1195 0 57 27
c70 32 133 96 167 168 l26 55 0 580 c0 646 1 637 -71 794 -19 41 -34 75 -34
77 0 2 72 4 159 4 l159 0 27 32 c31 36 29 79 -6 113 -18 19 -35 20 -245 23
l-225 3 -67 54 c-82 67 -213 137 -312 166 -59 17 -111 22 -237 26 l-163 5 0
44 0 44 983 0 982 0 0 -93 c0 -95 1 -98 73 -239 2 -5 -116 -8 -261 -8 l-265 0
-31 -26 c-40 -33 -43 -83 -6 -119 l24 -25 846 0 846 0 24 25 c32 31 32 75 1
112 l-24 28 -230 3 -230 3 36 70 c33 64 37 79 40 170 l4 99 108 0 c59 0 122 5
141 12 68 23 116 65 148 130 l31 61 0 458 0 458 -115 461 c-63 254 -124 478
-134 499 -11 20 -38 54 -60 74 -74 66 -80 67 -688 67 l-543 0 0 69 c0 77 -21
119 -79 158 l-34 23 -528 0 -528 0 -44 58 c-130 168 -306 285 -512 342 -73 21
-106 23 -375 25 -162 2 -308 1 -325 -2z m673 -192 c263 -78 465 -284 537 -546
19 -72 33 -295 18 -295 -6 0 -35 11 -64 24 -30 13 -104 40 -166 59 -470 152
-1049 139 -1498 -33 -60 -23 -118 -44 -127 -47 -39 -12 -16 232 35 369 82 226
290 412 523 472 93 23 104 24 394 22 249 -3 282 -5 348 -25z m1582 -1296 l0
-895 -510 0 c-280 0 -510 2 -510 4 0 3 18 37 39 78 46 85 86 196 104 287 l13
64 58 18 c173 53 296 221 296 404 0 178 -131 359 -292 404 l-45 13 -6 166 c-5
159 -11 192 -52 330 l-7 22 456 0 456 0 0 -895z m342 273 c4 -411 3 -408 69
-483 19 -21 56 -49 84 -61 l50 -24 498 0 497 0 0 -129 0 -128 -83 -5 c-68 -3
-92 -9 -131 -32 -87 -51 -133 -142 -123 -247 6 -65 25 -106 71 -152 50 -51
101 -71 189 -75 l77 -4 0 -55 c0 -47 -4 -59 -29 -84 l-29 -29 -142 0 -141 0
-49 48 c-162 160 -417 160 -585 1 l-52 -49 -171 0 -172 0 0 933 c0 514 3 937
7 940 3 4 41 7 84 7 l77 0 4 -372z m952 341 c17 -20 44 -112 109 -373 48 -190
87 -350 87 -356 0 -7 -157 -10 -460 -10 l-461 0 -24 25 -25 24 0 361 0 361
376 -3 376 -3 22 -26z m-3054 -149 c216 -19 450 -76 624 -154 l60 -27 -55 -55
c-96 -98 -151 -112 -297 -74 -161 42 -245 52 -472 57 -249 6 -382 -6 -568 -52
-175 -42 -222 -33 -321 68 -62 64 -68 56 77 112 289 111 614 154 952 125z
m-1310 -505 c0 -191 -3 -235 -14 -235 -22 0 -105 80 -129 124 -30 57 -30 165
0 221 29 54 104 123 136 125 4 0 7 -106 7 -235z m2258 221 c41 -21 88 -76 111
-126 34 -76 25 -164 -24 -238 -24 -35 -92 -91 -112 -92 -10 0 -13 54 -13 235
0 129 2 235 5 235 4 0 18 -6 33 -14z m-2031 -136 c93 -81 225 -103 373 -62
175 49 242 57 505 57 265 0 322 -6 500 -53 170 -45 292 -27 388 58 25 22 48
40 52 40 4 0 5 -118 2 -262 -5 -299 -16 -363 -87 -515 -51 -110 -110 -191
-201 -279 -90 -85 -143 -123 -251 -174 -139 -67 -219 -83 -398 -83 -178 0
-253 15 -395 82 -104 49 -163 88 -244 165 -165 157 -263 350 -291 567 -11 88
-14 499 -4 499 3 0 26 -18 51 -40z m4383 -855 l0 -85 -51 0 c-79 0 -118 29
-119 88 0 22 8 41 25 57 20 21 34 25 85 25 l60 0 0 -85z m-1540 -340 l0 -85
-680 0 c-374 0 -680 2 -680 3 0 2 24 20 53 40 28 20 72 57 97 82 l44 45 583 0
583 0 0 -85z m979 -121 c120 -65 166 -210 105 -332 -48 -97 -136 -147 -243
-140 -75 6 -116 23 -164 72 -52 52 -72 101 -72 181 1 78 16 118 69 173 80 86
200 104 305 46z m-3089 -124 c91 -14 230 -12 325 5 44 8 81 15 83 15 1 0 2
-142 2 -315 l0 -315 -257 2 -258 3 -3 300 c-1 165 0 306 3 313 3 7 13 11 22 8
10 -3 47 -10 83 -16z m-280 -447 c1 -231 15 -273 105 -314 36 -17 70 -19 325
-19 255 0 289 2 325 19 91 42 105 82 105 311 l0 180 125 0 125 0 0 -895 0
-895 -680 0 -680 0 0 895 0 895 125 0 125 0 0 -177z m-420 -743 l0 -870 -145
0 c-100 0 -156 4 -178 14 -43 17 -95 78 -102 118 -3 18 -5 274 -3 568 l3 535
27 80 c45 132 110 228 216 317 49 42 155 107 175 108 4 0 7 -391 7 -870z
m1769 840 c130 -70 233 -179 297 -315 61 -132 64 -167 64 -739 0 -339 -4 -524
-11 -543 -14 -38 -57 -83 -96 -99 -23 -10 -77 -14 -178 -14 l-145 0 0 870 c0
479 3 870 6 870 3 0 32 -14 63 -30z"/>
<path d="M3975 3148 c-51 -27 -62 -98 -22 -136 21 -20 34 -22 143 -22 112 0
122 2 141 23 11 12 24 32 27 44 9 29 -16 76 -49 91 -33 15 -213 15 -240 0z"/>
<path d="M4145 4088 c-51 -27 -62 -98 -22 -135 36 -34 458 -283 479 -283 24 0
59 18 75 39 18 23 16 76 -4 99 -24 26 -471 292 -492 292 -9 0 -25 -6 -36 -12z"/>
<path d="M1770 2983 c-8 -3 -40 -31 -70 -62 -78 -80 -113 -95 -237 -99 -92 -3
-108 -1 -156 21 -33 15 -76 47 -108 81 -45 48 -58 56 -89 56 -47 0 -80 -33
-80 -80 0 -45 62 -126 134 -174 92 -61 154 -78 286 -78 131 0 197 18 287 77
56 37 129 122 139 160 8 34 -20 81 -57 94 -18 6 -32 11 -33 10 -1 0 -8 -3 -16
-6z"/>
</g>
</svg>
